<svg width="233" height="49" viewBox="0 0 233 49" fill="none" xmlns="http://www.w3.org/2000/svg">
<g clip-path="url(#clip0_1629_10794)">
<path d="M21.58 2.88281V36.5145H-1.52588e-05V25.1677C-1.52588e-05 12.8688 9.67017 2.88281 21.58 2.88281Z" fill="#D33021"/>
<path d="M47.0701 2.88281V36.5145H25.4901V25.1677C25.4963 12.8688 35.1602 2.88281 47.0701 2.88281Z" fill="#D33021"/>
<path d="M72.5666 2.88281V36.5145H50.9865V25.1677C50.9865 12.8688 60.6567 2.88281 72.5666 2.88281Z" fill="#D33021"/>
<path d="M163.069 13.7188C156.938 13.7188 152.075 18.7405 152.075 25.2892C152.075 31.838 156.938 36.8597 163.069 36.8597C171.527 36.8597 173.847 29.6593 173.847 29.6593H169.194C169.194 29.6593 167.505 32.7133 163.063 32.7133C159.895 32.7133 157.142 30.5282 156.511 26.8226H174.057V25.2956C174.057 18.7469 169.194 13.7251 163.063 13.7251L163.069 13.7188ZM156.727 23.1042C157.365 19.833 160.112 17.8652 163.069 17.8652C166.874 17.8652 168.99 20.4847 169.411 23.1042H156.727Z" fill="white"/>
<path d="M214.192 14.5293V18.6758H221.375V36.795H225.817V18.6758H233V14.5293H214.192Z" fill="white"/>
<path d="M111.352 8.27539H99.1086C91.4739 8.27539 85.2622 14.69 85.2622 22.574C85.2622 30.458 91.4739 36.8726 99.1086 36.8726H111.352C118.987 36.8726 125.199 30.458 125.199 22.574C125.199 14.69 118.987 8.27539 111.352 8.27539ZM102.709 32.0042H99.1147C94.0786 32.0042 89.9828 27.7746 89.9828 22.574C89.9828 17.3733 94.0786 13.1438 99.1147 13.1438H102.709V32.0042ZM111.352 32.0042H107.758V13.1438H111.352C116.389 13.1438 120.484 17.3733 120.484 22.574C120.484 27.7746 116.389 32.0042 111.352 32.0042Z" fill="white"/>
<path d="M138.822 14.5415H133.044V14.5352H128.608V23.8567V18.8605V36.0405V43.2473H133.044V36.0405H139.076C144.947 36.0405 149.699 30.9932 149.476 24.879C149.266 19.065 144.459 14.5479 138.822 14.5479V14.5415ZM139.076 31.4021H133.087V19.1672H139.076C142.343 19.1672 144.997 21.9081 144.997 25.2815C144.997 28.6549 142.343 31.3957 139.076 31.3957V31.4021Z" fill="white"/>
<path d="M176.94 22.975V36.7944H181.426V22.975C181.426 20.8794 183.078 19.1672 185.107 19.1672H191.486V14.5352H185.107C180.603 14.5352 176.94 18.3174 176.94 22.9686V22.975Z" fill="white"/>
<path d="M203.167 13.4297C196.961 13.4297 191.919 18.6431 191.919 25.0449C191.919 31.4467 196.967 36.6601 203.167 36.6601H213.183V23.7735C213.183 18.0681 208.692 13.4297 203.167 13.4297ZM208.698 32.0281H203.16C199.43 32.0281 196.392 28.8911 196.392 25.0385C196.392 21.1859 199.43 18.0489 203.16 18.0489C206.211 18.0489 208.698 20.6109 208.698 23.7671V32.0217V32.0281Z" fill="white"/>
</g>
<defs>
<clipPath id="clip0_1629_10794">
<rect width="233" height="49" fill="white"/>
</clipPath>
</defs>
</svg>
