<svg width="134" height="28" viewBox="0 0 134 28" fill="none" xmlns="http://www.w3.org/2000/svg">
<path d="M12.4108 1.62598V20.5894H0V14.1914C0 7.25663 5.56139 1.62598 12.4108 1.62598Z" fill="#D33021"/>
<path d="M27.0704 1.62598V20.5894H14.6596V14.1914C14.6631 7.25663 20.221 1.62598 27.0704 1.62598Z" fill="#D33021"/>
<path d="M41.7336 1.62598V20.5894H29.3228V14.1914C29.3228 7.25663 34.8841 1.62598 41.7336 1.62598Z" fill="#D33021"/>
<path d="M93.7822 7.73535C90.2561 7.73535 87.4594 10.5669 87.4594 14.2594C87.4594 17.9519 90.2561 20.7835 93.7822 20.7835C98.6462 20.7835 99.9805 16.7235 99.9805 16.7235H97.3048C97.3048 16.7235 96.3334 18.4455 93.7786 18.4455C91.9569 18.4455 90.3735 17.2134 90.0105 15.124H100.101V14.263C100.101 10.5705 97.3048 7.73895 93.7786 7.73895L93.7822 7.73535ZM90.1351 13.0274C90.5016 11.1829 92.0814 10.0734 93.7822 10.0734C95.9705 10.0734 97.1873 11.5504 97.4293 13.0274H90.1351Z" fill="white"/>
<path d="M123.183 8.19336V10.5314H127.314V20.748H129.869V10.5314H134V8.19336H123.183Z" fill="white"/>
<path d="M64.0396 4.66602H56.998C52.6073 4.66602 49.0349 8.28289 49.0349 12.7283C49.0349 17.1738 52.6073 20.7907 56.998 20.7907H64.0396C68.4304 20.7907 72.0028 17.1738 72.0028 12.7283C72.0028 8.28289 68.4304 4.66602 64.0396 4.66602ZM59.0689 18.0456H57.0016C54.1052 18.0456 51.7498 15.6607 51.7498 12.7283C51.7498 9.79593 54.1052 7.4111 57.0016 7.4111H59.0689V18.0456ZM64.0396 18.0456H61.9723V7.4111H64.0396C66.9359 7.4111 69.2914 9.79593 69.2914 12.7283C69.2914 15.6607 66.9359 18.0456 64.0396 18.0456Z" fill="white"/>
<path d="M79.8378 8.19989H76.5145V8.19629H73.9633V13.4523V10.6352V20.3222V24.3858H76.5145V20.3222H79.9837C83.3604 20.3222 86.093 17.4762 85.9649 14.0287C85.844 10.7504 83.0793 8.20349 79.8378 8.20349V8.19989ZM79.9837 17.7068H76.5394V10.8081H79.9837C81.8624 10.8081 83.3888 12.3535 83.3888 14.2556C83.3888 16.1577 81.8624 17.7032 79.9837 17.7032V17.7068Z" fill="white"/>
<path d="M101.76 12.9551V20.7473H104.339V12.9551C104.339 11.7735 105.289 10.8081 106.456 10.8081H110.125V8.19629H106.456C103.866 8.19629 101.76 10.3289 101.76 12.9515V12.9551Z" fill="white"/>
<path d="M116.843 7.57324C113.274 7.57324 110.374 10.5129 110.374 14.1225C110.374 17.7322 113.277 20.6718 116.843 20.6718H122.603V13.4056C122.603 10.1886 120.02 7.57324 116.843 7.57324ZM120.024 18.06H116.839C114.694 18.06 112.946 16.2912 112.946 14.1189C112.946 11.9466 114.694 10.1778 116.839 10.1778C118.593 10.1778 120.024 11.6224 120.024 13.402V18.0564V18.06Z" fill="white"/>
</svg>
