<svg width="140" height="34" viewBox="0 0 140 34" fill="none" xmlns="http://www.w3.org/2000/svg">
<g clip-path="url(#clip0_1629_10812)">
<path d="M53.32 23.1213H50.4632V18.3294H44.9291L46.1796 15.4906H50.4632V10.7021H53.32V23.1213Z" fill="white"/>
<path d="M44.5698 23.1213H41.7129V10.7021H44.5698V23.1213Z" fill="white"/>
<path d="M64.889 12.5214C63.6696 11.3097 62.1945 10.7021 60.4707 10.7021C58.7469 10.7021 57.2719 11.3097 56.0524 12.5214C54.833 13.7331 54.2216 15.1989 54.2216 16.9117C54.2216 18.6246 54.833 20.0903 56.0524 21.302C57.2719 22.5138 58.7469 23.1213 60.4707 23.1213C62.1945 23.1213 63.6696 22.5138 64.889 21.302C66.1084 20.0903 66.7199 18.6246 66.7199 16.9117C66.7199 15.1989 66.1084 13.7331 64.889 12.5214ZM62.8716 19.2974C62.2118 19.953 61.4103 20.2826 60.4707 20.2826C59.5311 20.2826 58.7435 19.953 58.0768 19.2974C57.41 18.6418 57.0784 17.8454 57.0784 16.9117C57.0784 15.9781 57.41 15.1817 58.0768 14.5261C58.7435 13.8704 59.5415 13.5409 60.4707 13.5409C61.4 13.5409 62.2118 13.8704 62.8716 14.5261C63.5314 15.1817 63.863 15.9781 63.863 16.9117C63.863 17.8454 63.5314 18.6418 62.8716 19.2974Z" fill="white"/>
<path d="M79.2287 14.5158C79.2287 15.5696 78.8521 16.4689 78.1025 17.2138C77.3529 17.9587 76.4478 18.3328 75.3873 18.3328H70.8343L72.0848 15.4941H75.3873C75.6602 15.4941 75.8916 15.398 76.0851 15.2092C76.2751 15.0204 76.3718 14.7904 76.3718 14.5158C76.3718 14.2412 76.2751 14.0146 76.0851 13.8224C75.8951 13.6302 75.6636 13.5375 75.3873 13.5375H70.4784V23.1179H67.6216V10.7021H75.3873C76.4478 10.7021 77.3494 11.0763 78.1025 11.8212C78.8521 12.5661 79.2287 13.4654 79.2287 14.5192V14.5158Z" fill="white"/>
<path d="M89.8823 20.2826L85.616 10.7021H83.2946L79.0283 20.2826H77.7605V23.1213H91.1501V20.2826H89.8823ZM82.241 20.2826L84.4553 15.3156L86.6696 20.2826H82.241Z" fill="white"/>
<path d="M102.042 23.1213L98.5602 15.3156L95.078 23.1213H91.8654L97.3995 10.7021H99.7209L105.255 23.1213H102.042Z" fill="white"/>
<path d="M118.161 10.7021H121.018V17.7459L126.911 10.7021H129.768V23.1213H126.911V16.0776L121.018 23.1213H118.161V10.7021Z" fill="white"/>
<path d="M127.885 9.38828V7.19141H122.617L121.225 9.38828H127.885Z" fill="white"/>
<path d="M131.25 13.5409V10.7021H136.159C137.219 10.7021 138.121 11.0763 138.874 11.8212C139.624 12.5661 140 13.4654 140 14.5192C140 15.2778 139.655 16.0742 138.964 16.9152C139.655 17.7562 140 18.5525 140 19.3111C140 20.3649 139.624 21.2643 138.874 22.0092C138.124 22.754 137.219 23.1282 136.159 23.1282H131.25V20.2894H136.159C136.432 20.2894 136.663 20.1933 136.857 20.0045C137.047 19.8157 137.143 19.5857 137.143 19.3111C137.143 19.0365 137.047 18.81 136.857 18.6177C136.667 18.429 136.435 18.3328 136.159 18.3328H131.606L132.856 15.4941H136.159C136.432 15.4941 136.663 15.398 136.857 15.2092C137.047 15.0204 137.143 14.7904 137.143 14.5158C137.143 14.2412 137.047 14.0146 136.857 13.8224C136.667 13.6336 136.435 13.5375 136.159 13.5375H131.25V13.5409Z" fill="white"/>
<mask id="mask0_1629_10812" style="mask-type:luminance" maskUnits="userSpaceOnUse" x="0" y="0" width="35" height="34">
<path d="M19.2242 19.1775C21.2313 18.896 34.044 17.571 34.7383 17.2896L19.6629 14.8181C19.4833 14.6258 19.6457 14.8902 19.5386 14.5915L19.1586 11.1898C18.782 7.55467 18.2777 3.54538 17.9944 0.00292969C17.7561 0.0612841 17.3795 0.301567 17.2033 0.459467C16.9235 0.71348 16.9823 0.833621 16.9201 1.33478C16.623 3.68955 15.0857 15.1716 14.8647 15.6316L0 17.6328C0.276359 17.7976 0.583808 17.7941 0.94653 17.8285L7.65514 18.5081C10.1838 18.7621 12.6987 19.0196 15.2343 19.2805L17.8562 33.9961L19.2277 19.1741L19.2242 19.1775Z" fill="white"/>
</mask>
<g mask="url(#mask0_1629_10812)">
<path fill-rule="evenodd" clip-rule="evenodd" d="M-0.883858 18.4492L-0.846173 18.4804L-0.846436 18.4807L-0.597712 18.6867L-0.597011 18.6859L-0.431697 18.8205L-0.431639 18.8204L-0.348877 18.8889L-0.347879 18.8898L-0.185851 19.0258L-0.186523 19.0266L0.0621996 19.2326L0.0624963 19.2322L0.145364 19.3009L0.145203 19.301L0.316095 19.4426L0.556243 19.6442L0.557226 19.643L0.639772 19.7124L0.639099 19.7132L0.887822 19.9191L0.888111 19.9188L0.970986 19.9874L0.970825 19.9876L1.13654 20.1248L1.13732 20.1254L1.29932 20.2615L1.29889 20.262L1.33324 20.29L1.3818 20.3307L1.38242 20.33L1.54761 20.4645L1.54764 20.4645L1.63072 20.5333L1.63055 20.5335L1.87928 20.7394L1.87955 20.7391L1.96235 20.8077L1.96216 20.8079L2.12494 20.9446L2.12451 20.9451L2.19967 21.0073L2.20743 21.0138L2.20747 21.0138L2.37323 21.151L2.37329 21.151L2.45636 21.2198L2.45618 21.22L2.62712 21.3615L2.86722 21.5632L2.86824 21.5619L2.95063 21.6311L2.9502 21.6316L3.02537 21.6939L3.03311 21.7004L3.03316 21.7003L3.19892 21.8376L3.19895 21.8375L3.36469 21.9748L3.36534 21.974L3.47576 22.0639L3.6929 22.2463L3.6942 22.2447L3.77682 22.3141L3.77588 22.3152L4.0246 22.5212L4.02485 22.5209L4.10757 22.5894L4.10736 22.5896L4.2914 22.742L4.43607 22.8635L4.43561 22.864L4.51517 22.9299L4.51858 22.9328L4.5186 22.9328L4.68433 23.07L4.68436 23.07L4.8501 23.2072L4.85012 23.2072L5.01587 23.3444L5.01598 23.3443L5.09912 23.4131L5.09894 23.4134L5.26282 23.5487L5.26123 23.5506L5.50995 23.7531L5.51025 23.7527L5.59329 23.8215L5.59283 23.822L5.76817 23.9672L6.00394 24.1652L6.00497 24.164L6.08731 24.2331L6.08685 24.2337L6.16598 24.2992L6.16983 24.3024L6.16985 24.3024L6.33558 24.4396L6.3356 24.4396L6.50135 24.5768L6.5014 24.5768L6.58451 24.6456L6.58435 24.6458L6.7469 24.7823L6.7467 24.7825L6.78116 24.811L6.82962 24.8517L6.8299 24.8514L6.91262 24.9199L6.91235 24.9202L7.16108 25.1262L7.16178 25.1253L7.24525 25.1933L7.24414 25.1946L7.43804 25.3525L7.5727 25.4656L7.57227 25.4661L7.64737 25.5283L7.65518 25.5348L7.65522 25.5348L7.82099 25.672L7.82102 25.672L7.98676 25.8092L7.98684 25.8091L8.07449 25.8817L8.31497 26.0837L8.31598 26.0825L8.39856 26.1518L8.39789 26.1526L8.64661 26.3586L8.64664 26.3585L8.81238 26.4958L8.81246 26.4957L8.90044 26.5685L9.14059 26.7702L9.14216 26.7683L9.22549 26.8371L9.22339 26.8396L9.47211 27.0422L9.47246 27.0417L9.63807 27.1789L9.6381 27.1788L9.7211 27.2476L9.72089 27.2478L9.88371 27.3845L9.8833 27.385L9.95409 27.4436L9.96616 27.4538L9.96622 27.4537L10.132 27.591L10.1321 27.5909L10.2979 27.7282L10.2979 27.7282L10.4637 27.8654L10.4637 27.8654L10.5636 27.9481L10.7095 28.0706L10.709 28.0711L10.7841 28.1333L10.792 28.1398L10.792 28.1398L10.875 28.2085L10.8748 28.2088L11.0408 28.3463L11.0406 28.3465L11.0643 28.3657L11.1235 28.4147L11.1239 28.4142L11.2729 28.5356L11.4517 28.6857L11.4525 28.6848L11.535 28.7541L11.5346 28.7547L11.6096 28.8168L11.6175 28.8234L11.6176 28.8234L11.7833 28.9606L11.7834 28.9606L11.9491 29.0978L11.9491 29.0978L12.0459 29.1779L12.1948 29.303L12.1944 29.3035L12.2695 29.3657L12.2773 29.3722L12.2774 29.3722L12.4431 29.5094L12.4432 29.5094L12.6089 29.6466L12.6089 29.6466L12.692 29.7154L12.6918 29.7156L12.8672 29.8608L13.0205 29.9895L13.02 29.99L13.0544 30.018L13.1029 30.0588L13.1036 30.058L13.2687 30.1925L13.4345 30.3298L13.4346 30.3297L13.5176 30.3984L13.5174 30.3987L13.7627 30.6047L13.7637 30.6034L13.8464 30.6728L13.8457 30.6736L14.0944 30.8796L14.0947 30.8793L14.1774 30.9478L14.1772 30.948L14.343 31.0852L14.3486 31.0899L14.5883 31.2912L14.5893 31.29L14.6719 31.3594L14.6713 31.3601L14.92 31.5661L14.9209 31.5651L15.0043 31.633L15.0029 31.6346L15.216 31.808L15.3315 31.905L15.3311 31.9055L15.406 31.9676L15.414 31.9743L15.414 31.9742L15.5798 32.1115L15.5798 32.1114L15.6629 32.1802L15.6628 32.1804L15.8711 32.353L16.0738 32.5231L16.0745 32.5222L16.1571 32.5915L16.1567 32.5921L16.2315 32.654L16.2396 32.6608L16.2396 32.6608L16.4054 32.798L16.4055 32.7979L16.4885 32.8667L16.4883 32.867L16.7011 33.0431L16.8994 33.2097L16.9007 33.2081L16.9839 33.2767L16.9823 33.2786L17.231 33.4811L17.2311 33.481L17.3139 33.5496L17.3969 33.6183L17.3969 33.6183L17.4797 33.6868L17.4845 33.6908L17.6425 33.8235L17.642 33.824L17.7172 33.8862L17.7249 33.8927L17.725 33.8927L17.8081 33.9615L17.8079 33.9617L18.0566 34.1676L18.0567 34.1676L18.1395 34.2361L18.2225 34.3049L18.3232 34.3882L18.4685 34.5102L18.4678 34.511L18.6335 34.6482L18.7166 34.717L18.8823 34.8542L18.8829 34.8534L18.9663 34.9213L18.9651 34.9226L19.2104 35.1252L19.2114 35.124L19.2938 35.1931L19.2934 35.1936L19.3762 35.2624L19.5248 35.3858L36.4173 15.2913L36.2687 15.1679L36.0234 14.9619L36.0224 14.9631L35.9401 14.894L35.9406 14.8935L35.8587 14.8257L35.8576 14.8247L35.6919 14.6875L35.6918 14.6876L35.609 14.619L35.526 14.5503L35.443 14.4815L35.4431 14.4813L35.2771 14.3442L35.2772 14.3441L35.0319 14.1416L34.8662 14.0044L34.8661 14.0045L34.783 13.9356L34.7832 13.9354L34.6096 13.7917L34.4546 13.6616L34.4551 13.661L34.3777 13.5969L34.3721 13.5923L34.2063 13.4551L34.0406 13.3179L34.0405 13.3179L33.8747 13.1807L33.8747 13.1807L33.7916 13.1119L33.7918 13.1117L33.6293 12.9752L33.6295 12.975L33.5939 12.9455L33.5466 12.9058L33.5463 12.9061L33.4635 12.8375L33.4637 12.8373L33.4354 12.8142L33.3808 12.769L33.3804 12.7695L33.2968 12.7014L33.2978 12.7001L33.0836 12.5257L32.8868 12.3604L32.886 12.3613L32.8037 12.2922L32.8039 12.2919L32.7641 12.2589L32.7209 12.2227L32.7207 12.223L32.6379 12.1544L32.6381 12.1542L32.3893 11.9482L32.3893 11.9483L32.2984 11.8731L32.1436 11.7431L32.1441 11.7426L32.0661 11.678L32.0611 11.6738L31.9781 11.6051L31.9783 11.6049L31.7295 11.3989L31.7293 11.3992L31.6464 11.3306L31.6465 11.3305L31.4807 11.1932L31.3978 11.1245L31.3977 11.1247L31.2355 10.9907L31.1524 10.922L31.1526 10.9218L30.9039 10.7158L30.9036 10.7161L30.8208 10.6476L30.821 10.6474L30.5757 10.4414L30.5747 10.4426L30.4921 10.3733L30.4928 10.3725L30.2441 10.1665L30.244 10.1666L30.0782 10.0293L30.0782 10.0293L29.9878 9.95445L29.7501 9.75488L29.7491 9.75608L29.6665 9.6867L29.6671 9.68594L29.4184 9.47998L29.4178 9.48069L29.2526 9.34619L29.2526 9.34623L29.1621 9.27134L29.0069 9.141L29.0073 9.14053L28.9385 9.08352L28.9245 9.07178L28.9244 9.07187L28.7586 8.93457L28.7586 8.93461L28.5928 8.79736L28.5928 8.7974L28.427 8.66016L28.427 8.66021L28.3439 8.59143L28.3441 8.59121L28.1816 8.45473L28.1818 8.45449L28.1462 8.42499L28.0989 8.38525L28.0986 8.38558L28.0158 8.31699L28.0159 8.3168L27.85 8.17938L27.8502 8.1791L27.6768 8.0355L27.4391 7.83594L27.4375 7.83785L27.2732 7.70215L27.2731 7.70219L27.1074 7.56494L27.1074 7.56498L26.9416 7.42773L26.9416 7.42783L26.8467 7.34925L26.6956 7.2224L26.6963 7.22158L26.4476 7.01562L26.4475 7.01566L26.2818 6.87842L26.2814 6.87883L26.1984 6.81005L26.1989 6.80947L26.0238 6.66454L25.8703 6.53559L25.8707 6.53506L25.7931 6.47077L25.7878 6.46631L25.7877 6.46634L25.622 6.3291L25.6213 6.32987L25.5379 6.26195L25.5391 6.26063L25.3438 6.10164L25.128 5.92041L25.127 5.92161L25.0446 5.85248L25.0451 5.85195L24.9674 5.78764L24.9621 5.7832L24.9621 5.78324L24.7964 5.646L24.7963 5.64609L24.6305 5.50879L24.6304 5.50883L24.5396 5.43356L24.3023 5.23438L24.3016 5.23525L24.2191 5.16596L24.2195 5.16543L24.1419 5.10117L24.1366 5.09668L24.1366 5.09672L23.9708 4.95947L23.9707 4.95963L23.8876 4.89084L23.8879 4.89053L23.6391 4.68457L23.6388 4.68502L23.5579 4.6182L23.5596 4.6161L23.3109 4.41357L23.3108 4.41364L23.1451 4.27637L23.145 4.2764L23.059 4.20514L22.817 4.00195L22.816 4.00318L22.7336 3.934L22.734 3.9335L22.6608 3.87287L22.6511 3.86475L22.6511 3.86481L22.5678 3.79585L22.5682 3.79531L22.3195 3.58936L22.3192 3.58971L22.2333 3.51861L21.9914 3.31543L21.9906 3.31634L21.9079 3.24692L21.9083 3.24648L21.8439 3.19311L21.8255 3.17773L21.8254 3.17786L21.6596 3.04053L21.659 3.04123L21.5757 2.97338L21.5768 2.97206L21.3645 2.7992L21.2482 2.70151L21.2485 2.70107L21.184 2.64768L21.1658 2.63232L21.1657 2.63245L21.0825 2.56363L21.0828 2.56338L20.834 2.35742L20.8338 2.35772L20.7508 2.28903L20.7513 2.28848L20.5253 2.10132L20.4223 2.01488L20.423 2.01406L20.1743 1.80811L20.1742 1.8082L20.0084 1.6709L20.0084 1.67093L19.9179 1.59605L19.6803 1.39648L19.6787 1.39837L19.5958 1.32989L19.5973 1.32801L19.3759 1.14774L19.1828 0.987793L19.1827 0.987859L19.0922 0.912934L18.8546 0.713379L18.8538 0.714292L18.7715 0.645166L18.7717 0.644922L18.736 0.615323L18.6888 0.575684L18.6885 0.576008L18.6057 0.507419L18.6058 0.507226L18.3571 0.30127L18.3571 0.301305L18.2666 0.226418L18.1115 0.0961659L18.112 0.095605L18.03 0.0276862L18.029 0.0268555L17.9459 -0.0419011L17.9461 -0.0420903L17.6974 -0.248047L17.6965 -0.247021L17.5852 -0.337659L17.3692 -0.519043L17.3682 -0.517871L17.2859 -0.586967L17.2864 -0.5875L17.2083 -0.65212L17.2034 -0.65625L17.2034 -0.656216L17.1203 -0.725003L17.1205 -0.725196L16.8717 -0.931152L16.8715 -0.930799L16.7886 -0.999377L16.7888 -0.99961L16.5436 -1.20557L16.5426 -1.20443L16.4603 -1.27352L16.4607 -1.27402L16.3875 -1.33467L16.3779 -1.34277L16.3778 -1.34271L16.212 -1.47998L16.2119 -1.47983L16.1288 -1.54862L16.1291 -1.54893L15.8804 -1.75488L-1.01208 18.3431L-0.929059 18.4118L-0.929138 18.4119L-0.883858 18.4492Z" fill="url(#paint0_linear_1629_10812)"/>
</g>
<path d="M115.135 12.3847C113.884 11.2622 112.399 10.6924 110.727 10.6924C109.78 10.6924 108.834 10.8983 107.922 11.3034C107.006 11.7119 106.219 12.2988 105.583 13.0506L105.427 13.2325L107.3 15.0003L107.476 14.8115C108.423 13.792 109.528 13.2737 110.761 13.2737C111.652 13.2737 112.44 13.5552 113.11 14.1147C113.684 14.5918 114.046 15.1342 114.198 15.728H109.901V18.1892H114.154C113.874 18.9341 113.445 19.4936 112.882 19.8506C112.229 20.2659 111.504 20.4753 110.727 20.4753C109.566 20.4753 108.471 19.957 107.476 18.9341L107.293 18.7453L105.469 20.6332L105.649 20.8083C106.557 21.6973 107.421 22.3015 108.222 22.5967C109.02 22.8919 109.87 23.0429 110.758 23.0429C112.627 23.0429 114.157 22.4456 115.304 21.2683C116.451 20.0943 117.031 18.6045 117.031 16.8471C117.031 15.0896 116.392 13.5106 115.135 12.3812V12.3847Z" fill="white"/>
</g>
<defs>
<linearGradient id="paint0_linear_1629_10812" x1="8" y1="4.49902" x2="28" y2="33.499" gradientUnits="userSpaceOnUse">
<stop stop-color="#3F2B70"/>
<stop offset="1" stop-color="#3E7DBC"/>
</linearGradient>
<clipPath id="clip0_1629_10812">
<rect width="140" height="34" fill="white"/>
</clipPath>
</defs>
</svg>
