<svg width="85" height="33" viewBox="0 0 85 33" fill="none" xmlns="http://www.w3.org/2000/svg">
<g clip-path="url(#clip0_1629_10998)">
<path d="M35.6965 25.1626H37.1013L43.5032 10.8678C43.6021 10.6658 43.6474 10.3532 44.014 10.3532C44.3807 10.3532 44.426 10.6658 44.5249 10.8678L50.9267 25.1626H52.3315L45.736 10.6429C45.2046 9.45358 44.7185 9.27441 44.014 9.27441C43.3096 9.27441 42.8276 9.45358 42.292 10.6429L35.6965 25.1626Z" fill="white"/>
<path d="M53.6415 25.1626H55.0463L61.4481 10.8678C61.547 10.6658 61.5923 10.3532 61.959 10.3532C62.3256 10.3532 62.3709 10.6658 62.4698 10.8678L68.8717 25.1626H70.2765L63.681 10.6429C63.1495 9.45358 62.6634 9.27441 61.959 9.27441C61.2545 9.27441 60.7684 9.45358 60.237 10.6429L53.6415 25.1626Z" fill="white"/>
<path d="M85 25.163V24.0842H78.4292C75.6155 24.0842 74.2808 22.8949 73.7246 22.1783C72.7071 20.8784 72.6082 19.1707 72.6082 17.5544C72.6082 15.8047 72.7071 13.7386 73.8688 12.3473C75.2777 10.6624 77.5311 10.529 78.7917 10.529H84.7322V9.4502H78.2315C75.2241 9.4502 73.601 10.7958 73.016 11.3562C71.3682 12.9953 71.1993 15.3968 71.1993 17.5277C71.1993 20.177 71.636 22.0372 73.0902 23.3867C73.84 24.0842 75.393 25.1592 78.1573 25.1592H84.9959L85 25.163Z" fill="white"/>
<path fill-rule="evenodd" clip-rule="evenodd" d="M27.2801 4.35324L30.4769 11.6036C30.5387 11.7446 30.7653 11.7141 30.7818 11.5616L31.7004 2.53875L32.0547 10.8945L32.0753 12.3774C32.0753 12.5413 32.3225 12.5794 32.3802 12.4269L37.2454 0L34.8231 0.404066L32.961 0.712834L25.5045 1.95553L18.6207 3.10292C22.2171 6.64803 25.7558 9.83482 29.3729 13.2732C29.4676 13.3647 29.6365 13.2808 29.6036 13.1588L27.2801 4.35705V4.35324Z" fill="#2A5096"/>
<path fill-rule="evenodd" clip-rule="evenodd" d="M25.5128 26.4663L28.8867 19.1855C28.9526 19.0407 28.7755 18.9034 28.6313 18.9911L19.424 24.8425L27.346 18.3317C27.4778 18.2211 27.3666 18.0191 27.1936 18.061L16.223 20.493L26.5427 16.9517C26.7116 16.8946 26.6827 16.6658 26.5015 16.6468L18.6207 15.8081L27.6426 15.4956C27.8115 15.4879 27.8692 15.2821 27.725 15.202L17.2694 9.28972L27.8857 14.0699C28.0546 14.1461 28.2152 13.9517 28.0875 13.8221L24.2934 9.96062L17.7308 3.31641L0 6.02289L12.2064 19.5134L16.5526 24.3164L24.4128 33L28.8002 21.9949L25.5128 26.4663Z" fill="#6AAD4D"/>
<g clip-path="url(#clip1_1629_10998)">
<path d="M35.6965 25.1626H37.1013L43.5032 10.8678C43.6021 10.6658 43.6474 10.3532 44.014 10.3532C44.3807 10.3532 44.426 10.6658 44.5249 10.8678L50.9267 25.1626H52.3315L45.736 10.6429C45.2046 9.45358 44.7185 9.27441 44.014 9.27441C43.3096 9.27441 42.8276 9.45358 42.292 10.6429L35.6965 25.1626Z" fill="white"/>
<path d="M53.6415 25.1626H55.0463L61.4481 10.8678C61.547 10.6658 61.5923 10.3532 61.959 10.3532C62.3256 10.3532 62.3709 10.6658 62.4698 10.8678L68.8717 25.1626H70.2765L63.681 10.6429C63.1495 9.45358 62.6634 9.27441 61.959 9.27441C61.2545 9.27441 60.7684 9.45358 60.237 10.6429L53.6415 25.1626Z" fill="white"/>
<path d="M85 25.163V24.0842H78.4292C75.6155 24.0842 74.2808 22.8949 73.7246 22.1783C72.7071 20.8784 72.6082 19.1707 72.6082 17.5544C72.6082 15.8047 72.7071 13.7386 73.8688 12.3473C75.2777 10.6624 77.5311 10.529 78.7917 10.529H84.7322V9.4502H78.2315C75.2241 9.4502 73.601 10.7958 73.016 11.3562C71.3682 12.9953 71.1993 15.3968 71.1993 17.5277C71.1993 20.177 71.636 22.0372 73.0902 23.3867C73.84 24.0842 75.393 25.1592 78.1573 25.1592H84.9959L85 25.163Z" fill="white"/>
<path fill-rule="evenodd" clip-rule="evenodd" d="M27.2801 4.35324L30.4769 11.6036C30.5387 11.7446 30.7653 11.7141 30.7818 11.5616L31.7004 2.53875L32.0547 10.8945L32.0753 12.3774C32.0753 12.5413 32.3225 12.5794 32.3802 12.4269L37.2454 0L34.8231 0.404066L32.961 0.712834L25.5045 1.95553L18.6207 3.10292C22.2171 6.64803 25.7558 9.83482 29.3729 13.2732C29.4676 13.3647 29.6365 13.2808 29.6036 13.1588L27.2801 4.35705V4.35324Z" fill="#2A5096"/>
<path fill-rule="evenodd" clip-rule="evenodd" d="M25.5128 26.4663L28.8867 19.1855C28.9526 19.0407 28.7755 18.9034 28.6313 18.9911L19.424 24.8425L27.346 18.3317C27.4778 18.2211 27.3666 18.0191 27.1936 18.061L16.223 20.493L26.5427 16.9517C26.7116 16.8946 26.6827 16.6658 26.5015 16.6468L18.6207 15.8081L27.6426 15.4956C27.8115 15.4879 27.8692 15.2821 27.725 15.202L17.2694 9.28972L27.8857 14.0699C28.0546 14.1461 28.2152 13.9517 28.0875 13.8221L24.2934 9.96062L17.7308 3.31641L0 6.02289L12.2064 19.5134L16.5526 24.3164L24.4128 33L28.8002 21.9949L25.5128 26.4663Z" fill="#6AAD4D"/>
</g>
</g>
<defs>
<clipPath id="clip0_1629_10998">
<rect width="85" height="33" fill="white"/>
</clipPath>
<clipPath id="clip1_1629_10998">
<rect width="85" height="33" fill="white"/>
</clipPath>
</defs>
</svg>
