<svg width="133" height="16" viewBox="0 0 133 16" fill="none" xmlns="http://www.w3.org/2000/svg">
<g clip-path="url(#clip0_1629_10982)">
<path d="M29.4917 14.5401V3.81696C29.4917 3.04476 29.7583 2.38574 30.2927 1.8399C30.8265 1.29407 31.4709 1.02148 32.2261 1.02148H40.4278C41.183 1.02148 41.8274 1.29474 42.3612 1.8399C42.895 2.38574 43.1615 3.04476 43.1615 3.81696V9.40859C43.1615 10.1808 42.8943 10.8398 42.3612 11.3857C41.8274 11.9315 41.183 12.2041 40.4278 12.2041H32.6747C32.5444 12.2041 32.437 12.2476 32.3525 12.334C32.2673 12.4211 32.2254 12.5309 32.2254 12.6635V14.5408C32.2254 14.6741 32.1828 14.7839 32.0983 14.8703C32.0132 14.9574 31.9058 15.0002 31.7761 15.0002H29.9403C29.81 15.0002 29.7026 14.9574 29.6181 14.8703C29.5343 14.7832 29.4917 14.6734 29.4917 14.5401ZM39.9785 3.81696H32.6747C32.5444 3.81696 32.437 3.8605 32.3525 3.94689C32.2673 4.03396 32.2254 4.1438 32.2254 4.2764V8.94915C32.2254 9.08243 32.2673 9.19227 32.3525 9.27866C32.437 9.36573 32.5444 9.40859 32.6747 9.40859H39.9779C40.1082 9.40859 40.2156 9.36573 40.3001 9.27866C40.3846 9.19227 40.4272 9.08243 40.4272 8.94915V4.27573C40.4272 4.14313 40.3846 4.03329 40.3001 3.94622C40.2156 3.85983 40.1082 3.81696 39.9785 3.81696Z" fill="white"/>
<path d="M45.1337 1.47995C45.1337 1.34734 45.1756 1.2375 45.2607 1.15044C45.3452 1.06404 45.4526 1.02051 45.583 1.02051H47.4187C47.5484 1.02051 47.6558 1.06404 47.741 1.15044C47.8255 1.2375 47.868 1.34734 47.868 1.47995V6.1527C47.868 6.28598 47.9099 6.39581 47.9951 6.48221C48.0796 6.56927 48.187 6.61214 48.3173 6.61214H55.6205C55.7508 6.61214 55.8583 6.56927 55.9427 6.48221C56.0272 6.39581 56.0698 6.28598 56.0698 6.1527V1.47995C56.0698 1.34734 56.1117 1.2375 56.1969 1.15044C56.2813 1.06404 56.3888 1.02051 56.5191 1.02051H58.3549C58.4846 1.02051 58.592 1.06404 58.6771 1.15044C58.7616 1.2375 58.8042 1.34734 58.8042 1.47995V12.2038C58.8042 12.976 58.537 13.635 58.0038 14.1808C57.4701 14.7267 56.8256 14.9992 56.0705 14.9992H46.9498C46.8195 14.9992 46.7121 14.9564 46.6276 14.8693C46.5424 14.7829 46.5005 14.6731 46.5005 14.5398V12.6625C46.5005 12.5299 46.5424 12.4201 46.6276 12.333C46.7121 12.2466 46.8195 12.2031 46.9498 12.2031H55.6199C55.7502 12.2031 55.8576 12.1602 55.9421 12.0732C56.0266 11.9868 56.0691 11.8769 56.0691 11.7437V9.86639C56.0691 9.73378 56.0266 9.62394 55.9421 9.53687C55.8576 9.45048 55.7502 9.40695 55.6199 9.40695H47.868C47.1129 9.40695 46.4684 9.13436 45.9347 8.58853C45.4009 8.04269 45.1337 7.38367 45.1337 6.61147V1.47995Z" fill="white"/>
<path d="M60.7557 14.5203V1.46042C60.7557 1.32781 60.7977 1.21797 60.8828 1.13091C60.9673 1.04451 61.0747 1.00098 61.205 1.00098H63.0408C63.1705 1.00098 63.2779 1.04451 63.363 1.13091C63.4475 1.21797 63.4901 1.32781 63.4901 1.46042V6.13317C63.4901 6.26644 63.532 6.37628 63.6172 6.46268C63.7016 6.54974 63.8091 6.59261 63.9394 6.59261H71.2426C71.3729 6.59261 71.4803 6.54974 71.5648 6.46268C71.6493 6.37628 71.6919 6.26644 71.6919 6.13317V1.46042C71.6919 1.32781 71.7338 1.21797 71.8189 1.13091C71.9034 1.04451 72.0108 1.00098 72.1412 1.00098H73.977C74.1066 1.00098 74.214 1.04451 74.2992 1.13091C74.3837 1.21797 74.4262 1.32781 74.4262 1.46042V14.5203C74.4262 14.6536 74.3837 14.7634 74.2992 14.8498C74.214 14.9369 74.1066 14.9797 73.977 14.9797H72.1412C72.0108 14.9797 71.9034 14.9369 71.8189 14.8498C71.7338 14.7634 71.6919 14.6536 71.6919 14.5203V9.84752C71.6919 9.71492 71.6493 9.60508 71.5648 9.51801C71.4803 9.43162 71.3729 9.38808 71.2426 9.38808H63.9387C63.8084 9.38808 63.701 9.43162 63.6165 9.51801C63.5314 9.60508 63.4894 9.71492 63.4894 9.84752V14.5203C63.4894 14.6536 63.4469 14.7634 63.3624 14.8498C63.2772 14.9369 63.1698 14.9797 63.0402 14.9797H61.2044C61.074 14.9797 60.9666 14.9369 60.8821 14.8498C60.7983 14.7634 60.7557 14.6536 60.7557 14.5203Z" fill="white"/>
<path d="M76.3976 12.2041V3.81696C76.3976 3.04476 76.6641 2.38574 77.1986 1.8399C77.7323 1.29407 78.3768 1.02148 79.1319 1.02148H88.2513C88.381 1.02148 88.4884 1.06502 88.5735 1.15141C88.658 1.23848 88.7006 1.34832 88.7006 1.48092V3.35819C88.7006 3.49147 88.658 3.60131 88.5735 3.68771C88.4884 3.77477 88.381 3.81763 88.2513 3.81763H79.5806C79.4502 3.81763 79.3428 3.86117 79.2584 3.94756C79.1732 4.03463 79.1313 4.14447 79.1313 4.27707V6.15434C79.1313 6.28762 79.1732 6.39746 79.2584 6.48385C79.3428 6.57092 79.4502 6.61378 79.5806 6.61378H88.2513C88.381 6.61378 88.4884 6.65732 88.5735 6.74371C88.658 6.83078 88.7006 6.94061 88.7006 7.07322V8.95049C88.7006 9.08377 88.658 9.19361 88.5735 9.28C88.4884 9.36707 88.381 9.40993 88.2513 9.40993H79.5806C79.4502 9.40993 79.3428 9.45347 79.2584 9.53986C79.1732 9.62693 79.1313 9.73676 79.1313 9.86937V11.7466C79.1313 11.8799 79.1732 11.9898 79.2584 12.0762C79.3428 12.1632 79.4502 12.2061 79.5806 12.2061H88.2513C88.381 12.2061 88.4884 12.2496 88.5735 12.336C88.658 12.4231 88.7006 12.5329 88.7006 12.6655V14.5428C88.7006 14.6761 88.658 14.7859 88.5735 14.8723C88.4884 14.9594 88.381 15.0022 88.2513 15.0022H79.1319C78.3768 15.0022 77.7323 14.7296 77.1986 14.1838C76.6648 13.6353 76.3976 12.9763 76.3976 12.2041Z" fill="white"/>
<path d="M90.6727 14.5398V1.47995C90.6727 1.34734 90.7146 1.2375 90.7998 1.15044C90.8843 1.06404 90.9917 1.02051 91.122 1.02051H92.9578C93.0875 1.02051 93.1949 1.06404 93.28 1.15044C93.3645 1.2375 93.4071 1.34734 93.4071 1.47995V6.1527C93.4071 6.28598 93.449 6.39581 93.5342 6.48221C93.6186 6.56927 93.7261 6.61214 93.8564 6.61214H95.5553C95.8677 6.61214 96.1146 6.49225 96.2973 6.25249L100.437 1.38016C100.619 1.14039 100.867 1.02051 101.179 1.02051H103.894C103.985 1.02051 104.043 1.06069 104.069 1.14039C104.096 1.20736 104.089 1.28706 104.05 1.38016L98.7383 7.65023C98.53 7.88999 98.53 8.12976 98.7383 8.36885L104.05 14.6389C104.089 14.732 104.095 14.8124 104.069 14.8787C104.043 14.9584 103.984 14.9986 103.894 14.9986H101.179C100.867 14.9986 100.619 14.8787 100.437 14.6389L96.2973 9.76659C96.1146 9.52683 95.8677 9.40695 95.5553 9.40695H93.8564C93.7261 9.40695 93.6186 9.45048 93.5342 9.53687C93.449 9.62394 93.4071 9.73378 93.4071 9.86639V14.5391C93.4071 14.6724 93.3645 14.7822 93.28 14.8686C93.1949 14.9557 93.0875 14.9986 92.9578 14.9986H91.122C90.9917 14.9986 90.8843 14.9557 90.7998 14.8686C90.7146 14.7829 90.6727 14.6731 90.6727 14.5398Z" fill="white"/>
<path d="M105.056 12.2041V3.81696C105.056 3.04476 105.322 2.38574 105.857 1.8399C106.39 1.29407 107.035 1.02148 107.79 1.02148H116.909C117.039 1.02148 117.146 1.06502 117.232 1.15141C117.316 1.23848 117.359 1.34832 117.359 1.48092V3.35819C117.359 3.49147 117.316 3.60131 117.232 3.68771C117.146 3.77477 117.039 3.81763 116.909 3.81763H108.239C108.108 3.81763 108.001 3.86117 107.916 3.94756C107.831 4.03463 107.789 4.14447 107.789 4.27707V11.7453C107.789 11.8786 107.831 11.9884 107.916 12.0748C108.001 12.1619 108.108 12.2047 108.239 12.2047H116.909C117.039 12.2047 117.146 12.2483 117.232 12.3347C117.316 12.4217 117.359 12.5316 117.359 12.6642V14.5415C117.359 14.6747 117.316 14.7846 117.232 14.871C117.146 14.958 117.039 15.0009 116.909 15.0009H107.789C107.034 15.0009 106.39 14.7283 105.856 14.1825C105.322 13.6353 105.056 12.9763 105.056 12.2041Z" fill="white"/>
<path d="M119.33 1.47995C119.33 1.34734 119.372 1.2375 119.457 1.15044C119.542 1.06404 119.649 1.02051 119.779 1.02051H132.551C132.68 1.02051 132.788 1.06404 132.873 1.15044C132.957 1.2375 133 1.34734 133 1.47995V3.35722C133 3.4905 132.957 3.60033 132.873 3.68673C132.788 3.77379 132.68 3.81666 132.551 3.81666H127.981C127.851 3.81666 127.743 3.86019 127.659 3.94659C127.574 4.03365 127.532 4.14349 127.532 4.2761V14.5398C127.532 14.6731 127.489 14.7829 127.405 14.8693C127.32 14.9564 127.212 14.9992 127.082 14.9992H125.247C125.116 14.9992 125.009 14.9564 124.924 14.8693C124.839 14.7829 124.797 14.6731 124.797 14.5398V4.27543C124.797 4.14282 124.755 4.03298 124.67 3.94592C124.585 3.85952 124.478 3.81599 124.348 3.81599H119.779C119.648 3.81599 119.541 3.77312 119.456 3.68606C119.371 3.59966 119.329 3.48983 119.329 3.35655V1.47995H119.33Z" fill="white"/>
<path d="M23.1068 0.371034C22.8638 0.123901 22.5567 0 22.1847 0H1.28564C0.912327 0 0.605162 0.123901 0.36349 0.371034C0.120508 0.619506 0 0.933612 0 1.31469V14.686C0 15.0671 0.120508 15.3818 0.36349 15.629C0.605162 15.8768 0.912327 16 1.28564 16H22.1853C22.5573 16 22.8645 15.8768 23.1075 15.629C23.3492 15.3818 23.471 15.0671 23.471 14.686V1.31469C23.4703 0.933612 23.3492 0.619506 23.1068 0.371034Z" fill="#FF5500"/>
<path d="M20.9076 8.30801L16.9256 12.38C16.8404 12.4671 16.7429 12.5106 16.6335 12.5106C16.5483 12.5106 16.4507 12.4671 16.3414 12.38L15.1356 11.147C14.9405 10.9354 14.9405 10.7298 15.1356 10.5309L17.6015 8.00931L15.1356 5.469C14.9405 5.25736 14.9405 5.05175 15.1356 4.85284L16.3414 3.61986C16.4265 3.53279 16.5241 3.48926 16.6335 3.48926C16.7553 3.48926 16.8529 3.53279 16.9256 3.61986L20.9076 7.69185C21.1021 7.89144 21.1021 8.09704 20.9076 8.30801Z" fill="#215AA8"/>
<path d="M14.8428 8.30801L10.8608 12.38C10.7756 12.4671 10.678 12.5106 10.5687 12.5106C10.4835 12.5106 10.3859 12.4671 10.2766 12.38L9.07082 11.147C8.87565 10.9354 8.87565 10.7298 9.07082 10.5309L11.5367 8.00931L9.07082 5.469C8.87565 5.25736 8.87565 5.05175 9.07082 4.85284L10.2766 3.61986C10.3617 3.53279 10.4593 3.48926 10.5687 3.48926C10.6905 3.48926 10.7881 3.53279 10.8608 3.61986L14.8428 7.69185C15.0373 7.89144 15.0373 8.09704 14.8428 8.30801Z" fill="#215AA8"/>
<path d="M8.75122 8.30801L4.76921 12.38C4.68406 12.4671 4.58648 12.5106 4.4771 12.5106C4.39196 12.5106 4.29438 12.4671 4.185 12.38L2.97926 11.147C2.78409 10.9354 2.78409 10.7298 2.97926 10.5309L5.4451 8.00931L2.97926 5.469C2.78409 5.25736 2.78409 5.05175 2.97926 4.85284L4.185 3.61986C4.27014 3.53279 4.36773 3.48926 4.4771 3.48926C4.59892 3.48926 4.69651 3.53279 4.76921 3.61986L8.75122 7.69185C8.94639 7.89144 8.94639 8.09704 8.75122 8.30801Z" fill="#215AA8"/>
</g>
<defs>
<clipPath id="clip0_1629_10982">
<rect width="133" height="16" fill="white"/>
</clipPath>
</defs>
</svg>
