<svg width="161" height="38" viewBox="0 0 161 38" fill="none" xmlns="http://www.w3.org/2000/svg">
<mask id="mask0_1629_11015" style="mask-type:luminance" maskUnits="userSpaceOnUse" x="5" y="1" width="152" height="36">
<path d="M157 1H5V36.6036H157V1Z" fill="white"/>
</mask>
<g mask="url(#mask0_1629_11015)">
<path d="M102.402 17.43V15.7753C102.402 15.3833 102.727 15.0625 103.123 15.0625H110.177C115.369 15.0625 116.511 21.7118 112.678 23.6465C112.297 23.8399 112.209 24.3389 112.456 24.68L114 26.7776C114.345 27.2511 114.005 27.9079 113.419 27.9079H111.366C111.134 27.9079 110.918 27.7959 110.784 27.6126L108.587 24.6087C108.453 24.4254 108.237 24.3134 108.006 24.3134H106.241C105.845 24.3134 105.52 24.6342 105.52 25.0262V27.1951C105.52 27.5871 105.196 27.9079 104.8 27.9079H103.128C102.732 27.9079 102.407 27.5871 102.407 27.1951V19.6345C102.407 19.2425 102.732 18.9217 103.128 18.9217H104.8C105.196 18.9217 105.52 19.2425 105.52 19.6345V20.5051C105.52 20.8972 105.845 21.2179 106.241 21.2179H110.475C110.599 21.2179 110.722 21.1924 110.825 21.1314C111.453 20.7801 111.772 20.2964 111.772 19.6854C111.772 19.0745 111.463 18.5959 110.841 18.2293C110.733 18.1682 110.604 18.1377 110.475 18.1377H103.128C102.732 18.1377 102.407 17.8169 102.407 17.4249" fill="white"/>
<path d="M70.7632 17.43V15.7753C70.7632 15.3833 71.0873 15.0625 71.4835 15.0625H78.5379C83.7296 15.0625 84.8718 21.7118 81.0385 23.6465C80.6578 23.8399 80.5703 24.3389 80.8173 24.68L82.3609 26.7776C82.7056 27.2511 82.366 27.9079 81.7795 27.9079H79.7265C79.4949 27.9079 79.2788 27.7959 79.145 27.6126L76.9479 24.6087C76.8142 24.4254 76.5981 24.3134 76.3665 24.3134H74.6016C74.2055 24.3134 73.8813 24.6342 73.8813 25.0262V27.1951C73.8813 27.5871 73.5571 27.9079 73.1609 27.9079H71.4887C71.0925 27.9079 70.7683 27.5871 70.7683 27.1951V19.6345C70.7683 19.2425 71.0925 18.9217 71.4887 18.9217H73.1609C73.5571 18.9217 73.8813 19.2425 73.8813 19.6345V20.5051C73.8813 20.8972 74.2055 21.2179 74.6016 21.2179H78.8363C78.9598 21.2179 79.0833 21.1924 79.1862 21.1314C79.8139 20.7801 80.1329 20.2964 80.1329 19.6854C80.1329 19.0745 79.8242 18.5959 79.2016 18.2293C79.0936 18.1682 78.9649 18.1377 78.8363 18.1377H71.4887C71.0925 18.1377 70.7683 17.8169 70.7683 17.4249" fill="white"/>
<path d="M98.8622 23.9819C98.8622 23.9819 98.8725 23.9616 98.8776 23.9514C98.9342 23.8139 98.9857 23.6714 99.032 23.5339C99.0474 23.4932 99.0629 23.4524 99.0732 23.4117C99.2738 22.7906 99.3767 22.1491 99.3767 21.4872C99.3767 21.309 99.3665 21.1359 99.351 20.9577C99.351 20.9475 99.351 20.9373 99.351 20.9271C99.3356 20.7235 99.3047 20.5198 99.2687 20.3162C99.2687 20.3162 99.2687 20.3111 99.2687 20.306C99.2327 20.1278 99.1915 19.9496 99.1401 19.7765C99.1349 19.746 99.1298 19.7205 99.1195 19.69C99.1195 19.69 99.1195 19.6798 99.1143 19.6747C99.0835 19.5678 99.0423 19.4608 99.0063 19.3539C98.9703 19.247 98.9342 19.1401 98.8879 19.0332C98.8879 19.0332 98.8879 19.023 98.8828 19.0179C98.8725 18.9924 98.8571 18.967 98.8468 18.9415C98.6924 18.58 98.5072 18.2389 98.2808 17.908C98.2808 17.908 98.2808 17.908 98.2808 17.9029C98.1779 17.7502 98.0698 17.6025 97.9566 17.46C97.5347 16.9457 97.051 16.5079 96.5056 16.1464C96.4799 16.126 96.449 16.1108 96.4233 16.0955C96.2895 16.0089 96.1557 15.9224 96.0168 15.846C96.0065 15.8409 95.9911 15.8358 95.9808 15.8307C95.8933 15.7849 95.8007 15.7442 95.7081 15.6984C95.6103 15.6525 95.5126 15.6016 95.4148 15.5609C95.4045 15.5609 95.3942 15.5507 95.3788 15.5456C95.2347 15.4845 95.0906 15.4387 94.9414 15.3878C94.9054 15.3776 94.8694 15.3623 94.8334 15.3471C94.2056 15.1485 93.5573 15.0518 92.8884 15.0518C92.7032 15.0518 92.5231 15.0619 92.343 15.0772C92.3378 15.0772 92.3327 15.0772 92.3224 15.0772C91.9262 15.1129 91.5403 15.1841 91.1596 15.286C91.1287 15.291 91.103 15.2961 91.0721 15.3063C91.0721 15.3063 91.0618 15.3063 91.0566 15.3114C90.9486 15.342 90.8405 15.3827 90.7325 15.4234C90.6244 15.4591 90.5164 15.4947 90.4135 15.5354C90.4135 15.5354 90.4032 15.5354 90.398 15.5405C90.3672 15.5507 90.3414 15.5711 90.3106 15.5813C90.1459 15.6525 89.9813 15.7289 89.8218 15.8104C89.8166 15.8104 89.8063 15.8205 89.8012 15.8205C89.6262 15.9173 89.4513 16.014 89.2866 16.126C89.266 16.1413 89.2455 16.1566 89.2249 16.1718C89.0911 16.2635 88.9573 16.3551 88.8235 16.457C88.8081 16.4722 88.7927 16.4875 88.7721 16.4977L88.1495 17.0425C88.1186 17.0679 88.0878 17.0985 88.062 17.129C87.3108 18.0047 86.8168 18.9517 86.5699 19.97C86.4721 20.3824 86.7705 20.7948 87.1976 20.8406L88.7567 21.0086C89.1117 21.0493 89.4358 20.8151 89.5336 20.474C89.6931 19.914 89.9915 19.4252 90.4186 19.0128C90.5524 18.8855 90.6965 18.7684 90.8405 18.6615C91.1698 18.4222 91.5197 18.2491 91.8902 18.1422C91.9159 18.132 91.9468 18.1269 91.9777 18.1218C92.0548 18.1015 92.132 18.0811 92.2144 18.0658C92.2504 18.0607 92.2915 18.0556 92.3276 18.0505C92.4047 18.0404 92.4819 18.0251 92.5591 18.02C92.5694 18.02 92.5797 18.02 92.5848 18.02C92.8061 18.0047 93.0325 18.0098 93.2692 18.0353C93.6191 18.076 93.9432 18.1575 94.2468 18.2797C94.6481 18.4528 95.0186 18.7022 95.3531 19.0332C95.492 19.1706 95.6155 19.3183 95.7235 19.4659C95.7544 19.5067 95.7853 19.5474 95.811 19.583C95.8161 19.5932 95.8213 19.6034 95.8316 19.6136C95.8882 19.7001 95.9448 19.7867 95.9911 19.8783C96.0425 19.9751 96.0888 20.0718 96.1249 20.1685C96.1454 20.2194 96.166 20.2755 96.1815 20.3315C96.1969 20.3773 96.2175 20.4231 96.2278 20.4638C96.2895 20.6675 96.3307 20.8813 96.3513 21.1002C96.3513 21.1053 96.3513 21.1104 96.3513 21.1155C96.3513 21.1664 96.3513 21.2224 96.3564 21.2734C96.3615 21.4566 96.3564 21.6399 96.341 21.8283C96.2895 22.2967 96.1609 22.7193 95.9551 23.1011C95.7956 23.3862 95.5949 23.651 95.3428 23.9005C95.173 24.0685 94.998 24.211 94.8179 24.3332C94.8128 24.3332 94.8025 24.3434 94.7973 24.3485C94.7305 24.3943 94.6636 24.43 94.5967 24.4707C94.5658 24.4911 94.5298 24.5114 94.4989 24.5267C94.4269 24.5623 94.3548 24.598 94.2828 24.6285C94.2571 24.6387 94.2314 24.654 94.2005 24.6642C93.8969 24.7915 93.5727 24.8678 93.2331 24.8984C93.2331 24.8984 93.228 24.8984 93.2229 24.8984C93.1714 24.8984 93.1148 24.8984 93.0582 24.9035C92.873 24.9086 92.6877 24.9035 92.4974 24.8882C92.0446 24.8373 91.6226 24.7151 91.2367 24.5114C91.0669 24.4249 90.9177 24.3231 90.7685 24.211C90.6965 24.155 90.6244 24.0939 90.5524 24.0328C90.4855 23.9768 90.4238 23.9107 90.362 23.8496C90.0636 23.5441 89.8269 23.203 89.6571 22.8262C89.5593 22.6124 89.4873 22.3884 89.441 22.1643C89.369 21.8181 89.0705 21.5636 88.7155 21.5737L87.1564 21.6145C86.7242 21.6247 86.3898 22.0065 86.4567 22.4291C86.539 22.9688 86.6934 23.4932 86.9146 23.9972C87.2439 24.7558 87.6967 25.4228 88.2833 25.9981C88.8853 26.5938 89.5851 27.0571 90.3775 27.3829C91.1698 27.7139 92.0034 27.8768 92.8678 27.8768C93.0376 27.8768 93.2074 27.8666 93.3772 27.8513C93.3978 27.8513 93.4184 27.8513 93.439 27.8513C93.6448 27.8361 93.8454 27.8055 94.0461 27.7699C94.0461 27.7699 94.0564 27.7699 94.0616 27.7699C94.2416 27.7342 94.4217 27.6935 94.5967 27.6426C94.6276 27.6324 94.6533 27.6324 94.679 27.6222C94.679 27.6222 94.6893 27.6222 94.6944 27.6222C94.8025 27.5917 94.9105 27.551 95.0186 27.5102C95.1266 27.4746 95.2399 27.4389 95.3428 27.3931C95.3428 27.3931 95.353 27.3931 95.3582 27.388C95.3839 27.3778 95.4096 27.3626 95.4354 27.3524C95.6052 27.2811 95.775 27.2047 95.9396 27.1182C96.1249 27.0215 96.2998 26.9145 96.4747 26.7974C96.485 26.7923 96.4902 26.7873 96.5005 26.7822C96.6497 26.6854 96.7938 26.5836 96.9327 26.4716C97.4524 26.0592 97.8949 25.5755 98.2602 25.0358C98.2808 25.0053 98.3014 24.9697 98.3219 24.934C98.4043 24.8067 98.4866 24.6794 98.5586 24.5471C98.5638 24.5369 98.5689 24.5267 98.5741 24.5165C98.6255 24.4249 98.6667 24.3332 98.7078 24.2416C98.7542 24.1449 98.8056 24.0532 98.8468 23.9565" fill="white"/>
<path d="M60.2514 25.3569C60.2514 25.0464 60.0404 24.7765 59.742 24.6798C59.3149 24.5423 58.929 24.303 58.5843 23.9568C57.9926 23.3815 57.6941 22.6942 57.6941 21.8847V15.7802C57.6941 15.3881 57.37 15.0674 56.9738 15.0674H55.3015C54.9053 15.0674 54.5812 15.3881 54.5812 15.7802V21.8847C54.5812 22.6789 54.7355 23.4477 55.0443 24.1859C55.353 24.9242 55.7955 25.5759 56.3769 26.1359C56.9429 26.7112 57.6015 27.1491 58.3476 27.4546C58.6821 27.592 59.0217 27.6939 59.3664 27.7702C59.8192 27.867 60.2514 27.5309 60.2514 27.0727V25.3569Z" fill="white"/>
<path d="M64.3983 15.0625C64.0021 15.0625 63.678 15.3833 63.678 15.7753V21.8798C63.678 22.6842 63.3796 23.3766 62.7878 23.9519C62.4431 24.2982 62.0572 24.5374 61.6301 24.6749C61.3317 24.7716 61.1207 25.0415 61.1207 25.3521V27.0678C61.1207 27.5261 61.5529 27.8621 62.0057 27.7653C62.3505 27.6941 62.6901 27.5871 63.0245 27.4497C63.7706 27.1442 64.4344 26.7063 65.0055 26.1412C65.5818 25.571 66.0191 24.9193 66.3279 24.1811C66.6366 23.4428 66.7909 22.674 66.7909 21.8798V15.7753C66.7909 15.3833 66.4668 15.0625 66.0706 15.0625H64.3983Z" fill="white"/>
<path d="M123.498 15.0627H123.478C123.174 15.0627 122.902 15.2409 122.783 15.5158L117.874 26.8695C117.664 27.3633 118.029 27.9081 118.569 27.9081H120.319C120.622 27.9081 120.895 27.7299 121.013 27.455L124.193 20.1082C124.234 20.0166 124.255 19.9147 124.255 19.8129V15.806C124.255 15.3936 123.915 15.0576 123.498 15.0576" fill="white"/>
<path d="M125.876 15.0625C125.459 15.0625 125.119 15.3985 125.119 15.8109V19.8178C125.119 19.9196 125.14 20.0164 125.181 20.1131L126.226 22.5264L127.558 25.6066L128.361 27.465C128.479 27.7399 128.752 27.9181 129.056 27.9181H130.805C131.345 27.9181 131.711 27.3682 131.5 26.8744L126.57 15.5207C126.452 15.2458 126.179 15.0676 125.876 15.0676" fill="white"/>
<path d="M44.6969 15.0627C44.3882 15.0627 44.1155 15.2409 43.992 15.5209L39.0884 26.8542C38.8723 27.3532 39.2428 27.9081 39.7933 27.9081H41.517C41.8206 27.9081 42.0985 27.7299 42.222 27.4499L45.3967 20.1082C45.4378 20.0166 45.4584 19.9147 45.4584 19.8129V15.8162C45.4584 15.3987 45.1137 15.0576 44.6917 15.0576" fill="white"/>
<path d="M47.0843 15.0625C46.6675 15.0625 46.3279 15.3985 46.3279 15.8109V19.8178C46.3279 19.9196 46.3485 20.0164 46.3896 20.1131L47.4341 22.5264L48.7668 25.6066L49.5695 27.465C49.6878 27.7399 49.9605 27.9181 50.2641 27.9181H52.0135C52.5538 27.9181 52.9191 27.3682 52.7082 26.8744L47.7789 15.5207C47.6605 15.2458 47.3878 15.0676 47.0843 15.0676" fill="white"/>
<path d="M139.413 17.7046C139.398 17.6079 139.372 17.5112 139.331 17.4348C139.264 17.3126 139.171 17.2159 139.053 17.1497C138.935 17.0784 138.796 17.0479 138.636 17.0479C138.477 17.0479 138.338 17.0835 138.219 17.1497C138.096 17.2159 138.003 17.3126 137.936 17.4399C137.895 17.5213 137.87 17.6079 137.854 17.7097H139.418L139.413 17.7046Z" fill="white"/>
<path d="M147.563 14.8438H134.612C133.99 14.8438 133.48 15.3427 133.48 15.9638V16.4679H134.782V15.6991H135.708V16.4679H136.506V17.1756H135.708V18.4637C135.708 18.5961 135.744 18.703 135.816 18.7742C135.888 18.8455 135.986 18.8812 136.11 18.8812C136.259 18.8812 136.382 18.8404 136.485 18.7641L136.737 19.4107C136.645 19.4769 136.526 19.5278 136.393 19.5583C136.259 19.594 136.125 19.6092 135.981 19.6092C135.605 19.6092 135.312 19.5125 135.101 19.3241C134.89 19.1357 134.787 18.8506 134.787 18.4739V17.1756H133.516H133.485V19.2477C133.485 19.8638 133.99 20.3678 134.617 20.3678H147.568C148.191 20.3678 148.7 19.8689 148.7 19.2477V15.9638C148.7 15.3478 148.196 14.8438 147.568 14.8438M140.288 18.1124C140.288 18.1582 140.277 18.1989 140.277 18.2397H137.859C137.88 18.3211 137.905 18.4026 137.947 18.4739C138.024 18.6062 138.132 18.7081 138.276 18.7742C138.415 18.8455 138.585 18.8761 138.77 18.8761C138.94 18.8761 139.089 18.8506 139.217 18.7997C139.346 18.7488 139.464 18.6724 139.572 18.5706L140.066 19.1001C139.917 19.263 139.737 19.3903 139.516 19.4819C139.295 19.5685 139.037 19.6143 138.749 19.6143C138.384 19.6143 138.065 19.543 137.787 19.4005C137.509 19.2579 137.298 19.0645 137.149 18.8201C137 18.5757 136.923 18.2957 136.923 17.98C136.923 17.6643 136.995 17.3792 137.144 17.1348C137.293 16.8905 137.494 16.697 137.751 16.5595C138.008 16.4221 138.302 16.3508 138.626 16.3508C138.95 16.3508 139.223 16.417 139.475 16.5493C139.727 16.6817 139.928 16.8701 140.072 17.1145C140.221 17.3589 140.293 17.6542 140.293 17.9953C140.293 18.0309 140.293 18.0716 140.288 18.1175M141.723 18.4484C141.795 18.5757 141.898 18.6775 142.022 18.7488C142.15 18.8201 142.289 18.8557 142.449 18.8557C142.593 18.8557 142.732 18.8201 142.855 18.7539C142.979 18.6877 143.087 18.5757 143.169 18.4229L143.889 18.8099C143.771 19.0645 143.586 19.263 143.334 19.4005C143.087 19.5379 142.788 19.6092 142.454 19.6092C142.119 19.6092 141.8 19.5379 141.533 19.4005C141.265 19.263 141.049 19.0695 140.9 18.8201C140.746 18.5706 140.668 18.2906 140.668 17.98C140.668 17.6694 140.746 17.3792 140.9 17.1348C141.054 16.8905 141.265 16.697 141.533 16.5595C141.8 16.4221 142.109 16.3508 142.454 16.3508C142.799 16.3508 143.087 16.4221 143.334 16.5595C143.586 16.697 143.766 16.9006 143.889 17.1552L143.169 17.5371C143.087 17.3894 142.984 17.2774 142.855 17.2061C142.732 17.1348 142.593 17.0992 142.449 17.0992C142.289 17.0992 142.145 17.1348 142.022 17.2061C141.893 17.2774 141.795 17.3741 141.723 17.5065C141.651 17.6338 141.615 17.7916 141.615 17.9749C141.615 18.1582 141.651 18.316 141.723 18.4433M147.676 19.5634H146.75V17.8935C146.75 17.6389 146.694 17.4505 146.581 17.3283C146.467 17.2061 146.308 17.145 146.102 17.145C145.953 17.145 145.824 17.1756 145.706 17.2367C145.587 17.2978 145.5 17.3894 145.433 17.5167C145.366 17.644 145.335 17.8018 145.335 18.0004V19.5685H144.409V15.2001H145.335V16.7326C145.418 16.6512 145.51 16.5799 145.618 16.5239C145.834 16.4119 146.076 16.3508 146.349 16.3508C146.601 16.3508 146.827 16.4017 147.028 16.5035C147.229 16.6053 147.388 16.7581 147.502 16.9617C147.615 17.1654 147.671 17.4301 147.671 17.7509V19.5634H147.676Z" fill="white"/>
<path d="M29.5847 21.666C30.974 23.5091 30.9843 26.0496 29.5847 27.8927C28.1852 26.0496 28.1955 23.5091 29.5847 21.666Z" fill="white"/>
<path d="M15.2857 21.666C16.6749 23.5091 16.6852 26.0496 15.2857 27.8927C13.8861 26.0496 13.8964 23.5091 15.2857 21.666Z" fill="white"/>
<path d="M31.9671 25.9932C33.3203 26.4259 33.3254 27.3067 31.9671 27.7395C30.6087 27.3067 30.6138 26.4259 31.9671 25.9932Z" fill="white"/>
<path d="M12.9033 25.9932C14.2566 26.4259 14.2617 27.3067 12.9033 27.7395C11.545 27.3067 11.5501 26.4259 12.9033 25.9932Z" fill="white"/>
<path d="M27.2024 14.793C28.0051 16.9008 28.2058 19.0544 28.2315 21.2589C28.2109 23.4635 28.0102 25.6171 27.2024 27.7249C26.3946 25.6171 26.1939 23.4635 26.1733 21.2589C26.1991 19.0595 26.3997 16.9008 27.2024 14.793Z" fill="white"/>
<path d="M17.668 14.793C18.4707 16.9008 18.6713 19.0544 18.6971 21.2589C18.6765 23.4635 18.4758 25.6171 17.668 27.7249C16.8602 25.6171 16.6595 23.4635 16.6389 21.2589C16.6646 19.0595 16.8653 16.9008 17.668 14.793Z" fill="white"/>
<path d="M24.8201 9.81836C25.6279 12.7662 25.8234 15.7548 25.8492 18.774C25.8286 21.7931 25.6331 24.7767 24.8201 27.7296C24.0071 24.7818 23.8116 21.7931 23.791 18.774C23.8167 15.7548 24.0123 12.7713 24.8201 9.81836Z" fill="white"/>
<path d="M20.0503 9.81836C20.8581 12.7662 21.0537 15.7548 21.0794 18.774C21.0588 21.7931 20.8633 24.7767 20.0503 27.7296C19.2373 24.7818 19.0418 21.7931 19.0212 18.774C19.047 15.7548 19.2425 12.7713 20.0503 9.81836Z" fill="white"/>
<path d="M22.4378 8.00586C23.2507 11.2643 23.4411 14.5584 23.4668 17.8779C23.4463 21.1975 23.2507 24.4916 22.4378 27.75C21.6248 24.4916 21.4293 21.2026 21.4087 17.8779C21.4344 14.5584 21.6248 11.2643 22.4378 8.00586Z" fill="white"/>
</g>
</svg>
