<svg width="82" height="44" viewBox="0 0 82 44" fill="none" xmlns="http://www.w3.org/2000/svg">
<g clip-path="url(#clip0_1629_11055)">
<path d="M5.1309 40.2977L6.82062 40.4022C6.73938 41.1677 6.46643 41.7578 6.00176 42.1659C5.53708 42.5739 4.96518 42.7796 4.28279 42.7796C3.46393 42.7796 2.80429 42.4963 2.30063 41.9366C1.79696 41.3734 1.54675 40.6012 1.54675 39.6098C1.54675 38.6184 1.78396 37.8394 2.26163 37.2358C2.7393 36.6322 3.40219 36.332 4.2568 36.332C5.05291 36.332 5.66706 36.5613 6.09599 37.02C6.52492 37.4786 6.76538 38.0856 6.82062 38.8443L5.09516 38.9387C5.09516 38.5206 5.01717 38.2204 4.86445 38.0316C4.70847 37.8461 4.5265 37.7517 4.31854 37.7517C3.73689 37.7517 3.44443 38.3587 3.44443 39.5761C3.44443 40.2572 3.51917 40.7192 3.6719 40.962C3.82137 41.2082 4.03584 41.3296 4.30879 41.3296C4.79621 41.3296 5.07241 40.9856 5.1309 40.2943V40.2977ZM8.63056 42.6852V36.4332H13.612V42.6852H11.815V37.7719H10.4243V42.6852H8.62731H8.63056ZM20.3221 41.1913V42.6852H15.7891V36.4332H20.3221V37.8765H17.6023V38.7836H19.8022V40.1729H17.6023V41.1947H20.3221V41.1913ZM22.1905 42.6852V36.4332H23.9875V41.2116H25.284V36.4332H27.081V41.2116H27.7861V44.0003H26.6228L26.4733 42.6852H22.1938H22.1905ZM29.3231 42.6852V36.4332H34.3078V42.6852H32.5108V37.7719H31.12V42.6852H29.3231ZM39.0877 42.7796C38.2396 42.7796 37.5475 42.4862 37.0146 41.9028C36.4784 41.3195 36.2119 40.5405 36.2119 39.5626C36.2119 38.5846 36.4654 37.8562 36.9788 37.2459C37.489 36.6355 38.1974 36.332 39.104 36.332C39.9423 36.332 40.6247 36.6187 41.1544 37.1919C41.6808 37.7652 41.9472 38.5341 41.9472 39.4918C41.9472 40.4494 41.6808 41.279 41.1479 41.8792C40.6149 42.4795 39.9293 42.7796 39.0877 42.7796ZM39.078 41.3599C39.3899 41.3599 39.6141 41.2183 39.7506 40.935C39.8871 40.6551 39.9553 40.1358 39.9553 39.3838C39.9553 38.2946 39.6759 37.7517 39.1137 37.7517C38.5061 37.7517 38.2038 38.3722 38.2038 39.6098C38.2038 40.7732 38.4963 41.3566 39.078 41.3566V41.3599ZM47.1756 40.2977L48.8686 40.4022C48.7873 41.1677 48.5144 41.7578 48.0497 42.1659C47.585 42.5739 47.0099 42.7796 46.3307 42.7796C45.5119 42.7796 44.8522 42.4963 44.3486 41.9366C43.8449 41.3734 43.5947 40.6012 43.5947 39.6098C43.5947 38.6184 43.8319 37.8394 44.3096 37.2358C44.784 36.6322 45.4501 36.332 46.3047 36.332C47.1009 36.332 47.715 36.5613 48.1439 37.02C48.5729 37.4786 48.8133 38.0856 48.8718 38.8443L47.1464 38.9387C47.1464 38.5206 47.0684 38.2204 46.9156 38.0316C46.7597 37.8461 46.5777 37.7517 46.3697 37.7517C45.7881 37.7517 45.4956 38.3587 45.4956 39.5761C45.4956 40.2572 45.5704 40.7192 45.7231 40.962C45.8726 41.2082 46.087 41.3296 46.36 41.3296C46.8474 41.3296 47.1236 40.9856 47.1821 40.2943L47.1756 40.2977ZM53.2521 37.9304V42.6852H51.5006V37.9304H50.2528V36.4332H54.5031V37.9304H53.2521ZM59.2213 42.6852L58.8801 41.4543H57.2652L56.9045 42.6852H55.4032L57.2652 36.4332H59.2213L61.106 42.6852H59.2213ZM57.5771 40.0853H58.5552L58.0645 38.271L57.5739 40.0853H57.5771ZM62.7925 42.6852V36.4332H65.8502C66.4871 36.4332 66.9485 36.5984 67.241 36.9323C67.5302 37.2661 67.6797 37.6472 67.6797 38.0754C67.6797 38.3857 67.5952 38.6689 67.423 38.9185C67.254 39.1714 67.0038 39.3434 66.6658 39.4378C67.4457 39.6334 67.8356 40.119 67.8356 40.8946C67.8356 41.3599 67.6992 41.7747 67.423 42.1389C67.15 42.5031 66.5618 42.6852 65.6585 42.6852H62.7892H62.7925ZM64.4952 38.8274H65.3498C65.5643 38.8274 65.717 38.7701 65.8047 38.6588C65.8925 38.5475 65.938 38.4228 65.938 38.2946C65.938 37.9473 65.73 37.7719 65.3173 37.7719H64.4919V38.8241L64.4952 38.8274ZM64.4952 41.2891H65.3953C65.6195 41.2891 65.782 41.2318 65.8892 41.1171C65.9932 41.0025 66.0452 40.8743 66.0452 40.7293C66.0452 40.5843 65.9932 40.4528 65.8925 40.3348C65.7917 40.2134 65.6065 40.1527 65.3336 40.1527H64.4952V41.2891ZM75.1632 42.6852H73.1355L72.0924 40.3213L71.4685 41.2419V42.6852H69.7268V36.4332H71.4685V39.0163L73.1322 36.4332H74.7927L73.2687 38.7195L75.1567 42.6886L75.1632 42.6852ZM80.1153 42.6852L79.7741 41.4543H78.1591L77.7985 42.6852H76.2972L78.1591 36.4332H80.1153L82 42.6852H80.1153ZM78.4711 40.0853H79.4492L78.9585 38.271L78.4678 40.0853H78.4711Z" fill="white"/>
<path d="M71.826 0.954102C64.375 0.954102 58.2595 7.15551 58.0223 14.8306H59.5723C59.7965 13.6672 60.7843 12.7938 61.9704 12.7938C63.1564 12.7938 64.1443 13.6705 64.3685 14.8306H65.9997C66.4449 10.6592 69.8763 7.38819 74.0096 7.38819H81.5093V0.954102H71.8292H71.826Z" fill="white"/>
<path d="M65.9509 15.832H64.3685C64.1442 16.9954 63.1564 17.8688 61.9704 17.8688C60.7843 17.8688 59.7965 16.9921 59.5723 15.832H58.0093V16.2502C58.0093 24.1377 64.2255 30.5886 71.826 30.5886H81.5061V24.1174H74.0063C69.6001 24.1174 65.9899 20.3979 65.9477 15.832H65.9509Z" fill="white"/>
<path d="M54.5648 15.8325C54.3406 16.9959 53.3528 17.8693 52.1667 17.8693C50.9807 17.8693 49.9928 16.9925 49.7686 15.8325H35.7992V18.9247H47.6987C46.4867 21.9631 43.5979 24.1145 40.2477 24.1145H32.748V30.5857H42.4281C50.0286 30.5857 56.2448 24.1347 56.2448 16.2473V15.8291H54.5616L54.5648 15.8325Z" fill="white"/>
<path d="M47.2601 11.6478H35.7993V14.8345H49.7687C49.9929 13.6711 50.9807 12.7977 52.1668 12.7977C53.3528 12.7977 54.3407 13.6744 54.5649 14.8345H56.2351C55.9979 7.15942 49.8792 0.958008 42.4314 0.958008H32.7513V7.3921H40.251C43.247 7.3921 45.8758 9.1119 47.2633 11.6478H47.2601Z" fill="white"/>
<path d="M1.51424 14.8342C1.73845 13.6708 2.72628 12.7974 3.91233 12.7974C5.09839 12.7974 6.08622 13.6741 6.31043 14.8342H7.95466C8.36084 10.3087 11.6623 6.75107 15.6396 6.75107H16.5072C20.4846 6.75107 23.786 10.3087 24.1922 14.8342H25.5602C25.7844 13.6708 26.7723 12.7974 27.9583 12.7974C29.1444 12.7974 30.1322 13.6741 30.3564 14.8342H32.0754C31.6009 6.59258 24.9623 0 16.9069 0H15.1977C7.14229 0 0.500407 6.59258 0.0292358 14.8342H1.51749H1.51424Z" fill="white"/>
<path d="M30.3564 15.832C30.1322 16.9954 29.1444 17.8688 27.9583 17.8688C26.7723 17.8688 25.7844 16.9921 25.5602 15.832H24.2312C24.2019 20.7655 20.738 24.7952 16.504 24.7952H15.6364C11.4023 24.7952 7.93842 20.7689 7.90917 15.832H6.30719C6.08298 16.9954 5.09515 17.8688 3.90909 17.8688C2.72304 17.8688 1.73521 16.9921 1.511 15.832H0C0.0324945 24.4783 6.85635 31.5429 15.1977 31.5429H16.9069C25.245 31.5429 32.0721 24.4783 32.1046 15.832H30.3564Z" fill="white"/>
</g>
<defs>
<clipPath id="clip0_1629_11055">
<rect width="82" height="44" fill="white"/>
</clipPath>
</defs>
</svg>
