<svg width="196" height="71" viewBox="0 0 196 71" fill="none" xmlns="http://www.w3.org/2000/svg">
<g clip-path="url(#clip0_1629_10957)">
<path d="M160.048 11.2906H194.861V0H160.048C147.958 0 138.12 9.66714 138.12 21.5543V30.133C138.12 42.017 147.958 51.6872 160.048 51.6872H194.861V40.3966H160.048C154.293 40.3966 149.61 35.7936 149.61 30.133V21.5543C149.61 15.8967 154.293 11.2906 160.048 11.2906Z" fill="white"/>
<path d="M129.927 0.120117H73.9181V11.4108H129.927V0.120117Z" fill="white"/>
<path d="M117.681 20.171H73.8242V51.5308H117.681C126.477 51.5308 133.634 44.4957 133.634 35.8494C133.634 27.2031 126.477 20.168 117.681 20.168V20.171ZM117.681 40.2402H85.3139V31.4617H117.681C120.143 31.4617 122.145 33.4326 122.145 35.8525C122.145 38.2723 120.143 40.2402 117.681 40.2402Z" fill="white"/>
<path d="M52.2557 0L33.2522 16.9698C31.0844 18.913 29.805 21.6773 29.7299 24.5584C29.6642 27.4487 30.8248 30.2682 32.9081 32.2945L52.6968 51.6503H68.9944L41.5481 24.8197L69.3385 0H52.2557Z" fill="white"/>
<path d="M6.10352e-05 11.4106H11.8432V51.6504H23.3329V0.144531H11.8432L6.10352e-05 11.4106Z" fill="white"/>
<path d="M12.3938 70.8816H11.2896V64.7197H15.3843V65.7252H12.3938V70.8847V70.8816Z" fill="white"/>
<path d="M23.968 70.8816H22.8638V64.7197H25.6509C26.2641 64.7197 26.7739 64.9104 27.1744 65.2855C27.5841 65.6606 27.7875 66.1341 27.7875 66.6907C27.7875 67.2472 27.5841 67.7238 27.1744 68.0959C26.7739 68.471 26.2641 68.6616 25.6509 68.6616H23.9711V70.8816H23.968ZM23.968 65.7221V67.6562H25.6478C26.214 67.6562 26.6332 67.2441 26.6332 66.6876C26.6332 66.1311 26.214 65.719 25.6478 65.719H23.968V65.7221Z" fill="white"/>
<path d="M34.6506 64.7189H35.8674L37.8194 68.1688L39.4836 64.7189H40.6629L38.5076 69.1835C37.9601 70.315 37.2063 70.8808 36.2491 70.8808H35.6359V69.8753H36.174C36.5932 69.8753 36.9435 69.6662 37.2501 69.245L34.6506 64.7158V64.7189Z" fill="white"/>
<path d="M49.1214 70.8816H48.0172V64.7197H53.4601V70.8816H52.3465V65.7221H49.1245V70.8816H49.1214Z" fill="white"/>
<path d="M62.3784 70.8816H61.2742V64.7197H66.7171V70.8816H65.6035V65.7221H62.3815V70.8816H62.3784Z" fill="white"/>
<path d="M74.0621 70.8816L76.7554 64.7197H77.6563L80.359 70.8816H79.1985L78.6792 69.6671H75.745L75.2257 70.8816H74.0652H74.0621ZM77.2121 66.2633L76.1704 68.6739H78.2507L77.209 66.2633H77.2121Z" fill="white"/>
<path d="M96.7004 64.7197H97.8047V67.5578L100.285 64.7197H101.696L99.0684 67.733L101.874 70.8816H100.464L97.8078 67.896V70.8816H96.7036V64.7197H96.7004Z" fill="white"/>
<path d="M109.67 65.5211C110.292 64.9092 111.071 64.5986 112.01 64.5986C112.948 64.5986 113.708 64.9092 114.331 65.5211C114.953 66.133 115.269 66.8894 115.269 67.8026C115.269 68.7158 114.953 69.4722 114.331 70.0841C113.708 70.6959 112.939 70.9973 112.01 70.9973C111.08 70.9973 110.292 70.6959 109.67 70.0841C109.047 69.4722 108.741 68.7066 108.741 67.8026C108.741 66.8986 109.047 66.133 109.67 65.5211ZM110.495 69.3369C110.896 69.7489 111.406 69.9488 112.01 69.9488C112.613 69.9488 113.114 69.7489 113.514 69.3369C113.915 68.9249 114.118 68.4052 114.118 67.7933C114.118 67.1815 113.915 66.6803 113.514 66.2682C113.114 65.8562 112.613 65.6471 112.01 65.6471C111.406 65.6471 110.896 65.8562 110.495 66.2682C110.095 66.6803 109.892 67.1815 109.892 67.7933C109.892 68.4052 110.095 68.9249 110.495 69.3369Z" fill="white"/>
<path d="M122.895 70.8816V64.7197H124L126.302 68.7293L128.604 64.7197H129.718V70.8816H128.604V66.7921L126.671 70.1713H125.936L123.993 66.7921V70.8816H122.889H122.895Z" fill="white"/>
<path d="M138.643 70.8816H137.538V64.7197H142.981V70.8816H141.868V65.7221H138.646V70.8816H138.643Z" fill="white"/>
<path d="M150.326 70.8816L153.019 64.7197H153.92L156.623 70.8816H155.463L154.943 69.6671H152.009L151.49 70.8816H150.329H150.326ZM153.476 66.2633L152.434 68.6739H154.515L153.473 66.2633H153.476Z" fill="white"/>
<path d="M163.971 70.8816V64.7197H165.075V67.2657H168.297V64.7197H169.402V70.8816H168.297V68.2711H165.075V70.8816H163.971Z" fill="white"/>
<path d="M178.332 69.0552L181.686 64.7197H182.709V70.8816H181.604V66.5646L178.251 70.8816H177.228V64.7197H178.332V69.0552Z" fill="white"/>
<path d="M191.627 69.0547L194.98 64.7192H196.003V70.8811H194.899V66.5641L191.546 70.8811H190.523V64.7192H191.627V69.0547ZM192.509 62.7021C192.509 63.1142 192.853 63.434 193.297 63.434C193.742 63.434 194.058 63.1142 194.058 62.7021H194.958C194.958 63.1511 194.802 63.5231 194.477 63.8244C194.161 64.1258 193.77 64.2734 193.307 64.2734C192.844 64.2734 192.425 64.1258 192.099 63.8244C191.774 63.5231 191.618 63.148 191.618 62.7021H192.509Z" fill="white"/>
</g>
<defs>
<clipPath id="clip0_1629_10957">
<rect width="196" height="71" fill="white"/>
</clipPath>
</defs>
</svg>
