<svg width="96" height="20" viewBox="0 0 96 20" fill="none" xmlns="http://www.w3.org/2000/svg">
<g clip-path="url(#clip0_1609_745)">
<path d="M8.89134 1.16455V14.7503H0V10.1666C0 5.19845 3.98428 1.16455 8.89134 1.16455Z" fill="#D33021"/>
<path d="M19.3937 1.16455V14.7503H10.5024V10.1666C10.5049 5.19845 14.4867 1.16455 19.3937 1.16455Z" fill="#D33021"/>
<path d="M29.8987 1.16455V14.7503H21.0073V10.1666C21.0073 5.19845 24.9916 1.16455 29.8987 1.16455Z" fill="#D33021"/>
<path d="M67.1873 5.54199C64.6611 5.54199 62.6575 7.57056 62.6575 10.216C62.6575 12.8613 64.6611 14.8899 67.1873 14.8899C70.6719 14.8899 71.6278 11.9813 71.6278 11.9813H69.7109C69.7109 11.9813 69.015 13.2149 67.1847 13.2149C65.8796 13.2149 64.7452 12.3323 64.4852 10.8354H71.7145V10.2185C71.7145 7.57314 69.7109 5.54457 67.1847 5.54457L67.1873 5.54199ZM64.5744 9.33329C64.837 8.01189 65.9688 7.21698 67.1873 7.21698C68.755 7.21698 69.6268 8.27514 69.8001 9.33329H64.5744Z" fill="black"/>
<path d="M88.2506 5.86914V7.54413H91.2101V14.8635H93.0404V7.54413H95.9999V5.86914H88.2506Z" fill="black"/>
<path d="M45.8792 3.34277H40.8345C37.6888 3.34277 35.1295 5.93397 35.1295 9.11877C35.1295 12.3036 37.6888 14.8948 40.8345 14.8948H45.8792C49.0248 14.8948 51.5841 12.3036 51.5841 9.11877C51.5841 5.93397 49.0248 3.34277 45.8792 3.34277ZM42.318 12.9281H40.837C38.762 12.9281 37.0745 11.2196 37.0745 9.11877C37.0745 7.01794 38.762 5.3094 40.837 5.3094H42.318V12.9281ZM45.8792 12.9281H44.3981V5.3094H45.8792C47.9542 5.3094 49.6417 7.01794 49.6417 9.11877C49.6417 11.2196 47.9542 12.9281 45.8792 12.9281Z" fill="black"/>
<path d="M57.1973 5.87465H54.8164V5.87207H52.9886V9.63756V7.61932V14.5593V17.4705H54.8164V14.5593H57.3018C59.7209 14.5593 61.6786 12.5204 61.5868 10.0505C61.5002 7.70191 59.5195 5.87723 57.1973 5.87723V5.87465ZM57.3018 12.6856H54.8342V7.7432H57.3018C58.6477 7.7432 59.7413 8.8504 59.7413 10.2131C59.7413 11.5758 58.6477 12.683 57.3018 12.683V12.6856Z" fill="black"/>
<path d="M72.9024 9.2814V14.8638H74.7505V9.2814C74.7505 8.43488 75.4311 7.7432 76.2673 7.7432H78.8954V5.87207H76.2673C74.4115 5.87207 72.9024 7.39995 72.9024 9.27882V9.2814Z" fill="black"/>
<path d="M83.7082 5.42529C81.1514 5.42529 79.0739 7.53128 79.0739 10.1173C79.0739 12.7034 81.1539 14.8093 83.7082 14.8093H87.8352V9.60373C87.8352 7.29901 85.9845 5.42529 83.7082 5.42529ZM85.9871 12.9382H83.7056C82.1685 12.9382 80.9169 11.671 80.9169 10.1147C80.9169 8.55847 82.1685 7.29126 83.7056 7.29126C84.9623 7.29126 85.9871 8.32619 85.9871 9.60114V12.9356V12.9382Z" fill="black"/>
</g>
<defs>
<clipPath id="clip0_1609_745">
<rect width="96" height="19.7938" fill="white"/>
</clipPath>
</defs>
</svg>
