<svg width="84" height="21" viewBox="0 0 84 21" fill="none" xmlns="http://www.w3.org/2000/svg">
<g clip-path="url(#clip0_1609_757)">
<path d="M31.992 13.8734H30.2779V10.9982H26.9575L27.7078 9.29497H30.2779V6.42188H31.992V13.8734Z" fill="black"/>
<path d="M26.7419 13.8734H25.0278V6.42188H26.7419V13.8734Z" fill="black"/>
<path d="M38.9334 7.51344C38.2018 6.78642 37.3167 6.42188 36.2825 6.42188C35.2482 6.42188 34.3631 6.78642 33.6315 7.51344C32.8998 8.24047 32.533 9.11991 32.533 10.1476C32.533 11.1754 32.8998 12.0548 33.6315 12.7818C34.3631 13.5088 35.2482 13.8734 36.2825 13.8734C37.3167 13.8734 38.2018 13.5088 38.9334 12.7818C39.6651 12.0548 40.032 11.1754 40.032 10.1476C40.032 9.11991 39.6651 8.24047 38.9334 7.51344ZM37.723 11.579C37.3271 11.9724 36.8462 12.1701 36.2825 12.1701C35.7187 12.1701 35.2461 11.9724 34.8461 11.579C34.4461 11.1857 34.2471 10.7078 34.2471 10.1476C34.2471 9.58743 34.4461 9.10961 34.8461 8.71623C35.2461 8.32285 35.7249 8.12514 36.2825 8.12514C36.84 8.12514 37.3271 8.32285 37.723 8.71623C38.1189 9.10961 38.3178 9.58743 38.3178 10.1476C38.3178 10.7078 38.1189 11.1857 37.723 11.579Z" fill="black"/>
<path d="M47.5372 8.71005C47.5372 9.34234 47.3113 9.88195 46.8615 10.3289C46.4117 10.7758 45.8687 11.0003 45.2323 11.0003H42.5005L43.2509 9.29703H45.2323C45.3961 9.29703 45.535 9.23936 45.651 9.12609C45.765 9.01281 45.8231 8.87482 45.8231 8.71005C45.8231 8.54529 45.765 8.40936 45.651 8.29402C45.537 8.17868 45.3982 8.12308 45.2323 8.12308H42.2871V13.8713H40.5729V6.42188H45.2323C45.8687 6.42188 46.4096 6.64637 46.8615 7.09329C47.3113 7.54022 47.5372 8.07983 47.5372 8.71211V8.71005Z" fill="black"/>
<path d="M53.9294 12.1701L51.3696 6.42188H49.9768L47.417 12.1701H46.6563V13.8734H54.6901V12.1701H53.9294ZM49.3446 12.1701L50.6732 9.18993L52.0018 12.1701H49.3446Z" fill="black"/>
<path d="M61.2253 13.8734L59.136 9.18993L57.0467 13.8734H55.1191L58.4396 6.42188H59.8324L63.1529 13.8734H61.2253Z" fill="black"/>
<path d="M70.8965 6.42188H72.6106V10.6481L76.1466 6.42188H77.8607V13.8734H76.1466V9.64716L72.6106 13.8734H70.8965V6.42188Z" fill="black"/>
<path d="M76.731 5.63306V4.31494H73.5702L72.7349 5.63306H76.731Z" fill="black"/>
<path d="M78.75 8.12514V6.42188H81.6953C82.3316 6.42188 82.8726 6.64637 83.3244 7.09329C83.7742 7.54022 84.0001 8.07983 84.0001 8.71211C84.0001 9.16728 83.7929 9.6451 83.3783 10.1497C83.7929 10.6543 84.0001 11.1321 84.0001 11.5873C84.0001 12.2196 83.7742 12.7592 83.3244 13.2061C82.8747 13.653 82.3316 13.8775 81.6953 13.8775H78.75V12.1742H81.6953C81.859 12.1742 81.9979 12.1166 82.114 12.0033C82.228 11.89 82.286 11.752 82.286 11.5873C82.286 11.4225 82.228 11.2866 82.114 11.1712C82 11.058 81.8611 11.0003 81.6953 11.0003H78.9635L79.7138 9.29703H81.6953C81.859 9.29703 81.9979 9.23936 82.114 9.12609C82.228 9.01281 82.286 8.87482 82.286 8.71005C82.286 8.54529 82.228 8.40936 82.114 8.29402C82 8.18074 81.8611 8.12308 81.6953 8.12308H78.75V8.12514Z" fill="black"/>
<mask id="mask0_1609_757" style="mask-type:luminance" maskUnits="userSpaceOnUse" x="0" y="0" width="21" height="21">
<path d="M11.5345 11.5072C12.7388 11.3383 20.4264 10.5433 20.843 10.3744L11.7978 8.89153C11.69 8.77619 11.7874 8.93478 11.7231 8.7556L11.4952 6.71457C11.2692 4.53349 10.9666 2.12791 10.7967 0.00244141C10.6536 0.037454 10.4277 0.181624 10.322 0.276364C10.1541 0.428772 10.1894 0.500856 10.152 0.801553C9.9738 2.21442 9.05145 9.10366 8.9188 9.37965L0 10.5804C0.165815 10.6792 0.350285 10.6772 0.567918 10.6978L4.59309 11.1056C6.1103 11.258 7.61922 11.4124 9.14057 11.569L10.7137 20.3983L11.5366 11.5051L11.5345 11.5072Z" fill="white"/>
</mask>
<g mask="url(#mask0_1609_757)">
<path fill-rule="evenodd" clip-rule="evenodd" d="M11.7149 21.2321L11.576 21.1168L21.7115 9.06006L21.8504 9.17539L11.7149 21.2321Z" fill="#4690D0"/>
<path fill-rule="evenodd" clip-rule="evenodd" d="M11.6257 21.1583L11.4786 21.0347L21.614 8.97803L21.7612 9.1016L11.6257 21.1583Z" fill="#4690D0"/>
<path fill-rule="evenodd" clip-rule="evenodd" d="M11.5263 21.0758L11.3791 20.9543L21.5146 8.89551L21.6617 9.01908L11.5263 21.0758Z" fill="#4690D0"/>
<path fill-rule="evenodd" clip-rule="evenodd" d="M11.4289 20.9938L11.2797 20.8722L21.4151 8.81348L21.5644 8.93705L11.4289 20.9938Z" fill="#4690D0"/>
<path fill-rule="evenodd" clip-rule="evenodd" d="M11.3293 20.9133L11.1801 20.7897L21.3156 8.73096L21.4648 8.85453L11.3293 20.9133Z" fill="#458FD0"/>
<path fill-rule="evenodd" clip-rule="evenodd" d="M11.2299 20.8308L11.0807 20.7072L21.2162 8.64844L21.3654 8.77201L11.2299 20.8308Z" fill="#458FD0"/>
<path fill-rule="evenodd" clip-rule="evenodd" d="M11.1304 20.7481L10.9833 20.6246L21.1187 8.56787L21.2659 8.68939L11.1304 20.7481Z" fill="#458FD0"/>
<path fill-rule="evenodd" clip-rule="evenodd" d="M11.0329 20.6661L10.8837 20.5425L21.0191 8.48584L21.1663 8.60735L11.0329 20.6661Z" fill="#458ECF"/>
<path fill-rule="evenodd" clip-rule="evenodd" d="M10.9335 20.5836L10.7842 20.46L20.9197 8.40332L21.0689 8.52689L10.9335 20.5836Z" fill="#458ECF"/>
<path fill-rule="evenodd" clip-rule="evenodd" d="M10.834 20.5016L10.6848 20.378L20.8202 8.32129L20.9695 8.44486L10.834 20.5016Z" fill="#458ECF"/>
<path fill-rule="evenodd" clip-rule="evenodd" d="M10.7344 20.4186L10.5852 20.295L20.7207 8.23828L20.8699 8.36185L10.7344 20.4186Z" fill="#458ECF"/>
<path fill-rule="evenodd" clip-rule="evenodd" d="M10.635 20.3365L10.4878 20.2129L20.6233 8.15625L20.7704 8.27982L10.635 20.3365Z" fill="#448DCE"/>
<path fill-rule="evenodd" clip-rule="evenodd" d="M10.5376 20.254L10.3884 20.1304L20.5238 8.07373L20.6731 8.1973L10.5376 20.254Z" fill="#448CCD"/>
<path fill-rule="evenodd" clip-rule="evenodd" d="M10.4381 20.172L10.2889 20.0484L20.4243 7.9917L20.5736 8.11527L10.4381 20.172Z" fill="#448CCD"/>
<path fill-rule="evenodd" clip-rule="evenodd" d="M10.3386 20.0895L10.1894 19.9679L20.3249 7.90918L20.4741 8.03275L10.3386 20.0895Z" fill="#438BCB"/>
<path fill-rule="evenodd" clip-rule="evenodd" d="M10.2391 20.0069L10.092 19.8854L20.2254 7.82666L20.3746 7.95023L10.2391 20.0069Z" fill="#438ACB"/>
<path fill-rule="evenodd" clip-rule="evenodd" d="M10.1397 19.9265L9.99249 19.8029L20.128 7.74414L20.2751 7.86772L10.1397 19.9265Z" fill="#438ACA"/>
<path fill-rule="evenodd" clip-rule="evenodd" d="M10.0422 19.8444L9.89301 19.7209L20.0285 7.66211L20.1777 7.78568L10.0422 19.8444Z" fill="#4289C9"/>
<path fill-rule="evenodd" clip-rule="evenodd" d="M9.94275 19.7618L9.79352 19.6382L19.929 7.58154L20.0782 7.70306L9.94275 19.7618Z" fill="#4288C9"/>
<path fill-rule="evenodd" clip-rule="evenodd" d="M9.84326 19.6798L9.69403 19.5562L19.8295 7.49951L19.9787 7.62103L9.84326 19.6798Z" fill="#4288C8"/>
<path fill-rule="evenodd" clip-rule="evenodd" d="M9.74378 19.5973L9.59662 19.4737L19.7321 7.41699L19.8792 7.54057L9.74378 19.5973Z" fill="#4187C7"/>
<path fill-rule="evenodd" clip-rule="evenodd" d="M9.64423 19.5147L9.49707 19.3912L19.6325 7.33447L19.7797 7.45805L9.64423 19.5147Z" fill="#4187C7"/>
<path fill-rule="evenodd" clip-rule="evenodd" d="M9.54688 19.4327L9.39764 19.3091L19.5331 7.25244L19.6823 7.37602L9.54688 19.4327Z" fill="#4085C5"/>
<path fill-rule="evenodd" clip-rule="evenodd" d="M9.44739 19.3502L9.29816 19.2266L19.4336 7.16992L19.5829 7.2935L9.44739 19.3502Z" fill="#4085C5"/>
<path fill-rule="evenodd" clip-rule="evenodd" d="M9.34784 19.2677L9.19861 19.1441L19.3341 7.0874L19.4833 7.21098L9.34784 19.2677Z" fill="#4084C4"/>
<path fill-rule="evenodd" clip-rule="evenodd" d="M9.24836 19.1852L9.1012 19.0616L19.2367 7.00488L19.3838 7.12846L9.24836 19.1852Z" fill="#3F83C3"/>
<path fill-rule="evenodd" clip-rule="evenodd" d="M9.151 19.1031L9.00177 18.9816L19.1372 6.92285L19.2865 7.04643L9.151 19.1031Z" fill="#3F83C2"/>
<path fill-rule="evenodd" clip-rule="evenodd" d="M9.05152 19.0206L8.90228 18.8991L19.0377 6.84033L19.187 6.96391L9.05152 19.0206Z" fill="#3E81C1"/>
<path fill-rule="evenodd" clip-rule="evenodd" d="M8.95203 18.9406L8.8028 18.8171L18.9383 6.7583L19.0875 6.88187L8.95203 18.9406Z" fill="#3E81C0"/>
<path fill-rule="evenodd" clip-rule="evenodd" d="M8.85242 18.8576L8.70526 18.7341L18.8387 6.67529L18.9879 6.79887L8.85242 18.8576Z" fill="#3E80BF"/>
<path fill-rule="evenodd" clip-rule="evenodd" d="M8.753 18.7755L8.60583 18.6519L18.7413 6.59521L18.8885 6.71673L8.753 18.7755Z" fill="#3D80BE"/>
<path fill-rule="evenodd" clip-rule="evenodd" d="M8.65558 18.693L8.50635 18.5694L18.6418 6.5127L18.791 6.63627L8.65558 18.693Z" fill="#3C80BC"/>
<path fill-rule="evenodd" clip-rule="evenodd" d="M8.55609 18.6104L8.40686 18.4869L18.5423 6.43018L18.6916 6.55375L8.55609 18.6104Z" fill="#3C80BC"/>
<path fill-rule="evenodd" clip-rule="evenodd" d="M8.45667 18.5284L8.30743 18.4048L18.4429 6.34814L18.5921 6.47172L8.45667 18.5284Z" fill="#3C80BB"/>
<path fill-rule="evenodd" clip-rule="evenodd" d="M8.35712 18.4459L8.20996 18.3223L18.3454 6.26562L18.4926 6.3892L8.35712 18.4459Z" fill="#3B80BA"/>
<path fill-rule="evenodd" clip-rule="evenodd" d="M8.25757 18.3634L8.11041 18.2398L18.2459 6.18311L18.393 6.30668L8.25757 18.3634Z" fill="#3B80B9"/>
<path fill-rule="evenodd" clip-rule="evenodd" d="M8.16022 18.2809L8.01099 18.1573L18.1465 6.10059L18.2957 6.22416L8.16022 18.2809Z" fill="#3A80B7"/>
<path fill-rule="evenodd" clip-rule="evenodd" d="M8.06073 18.1988L7.9115 18.0753L18.047 6.01855L18.1962 6.14213L8.06073 18.1988Z" fill="#3A80B6"/>
<path fill-rule="evenodd" clip-rule="evenodd" d="M7.96125 18.1163L7.81201 17.9948L17.9475 5.93604L18.0967 6.05961L7.96125 18.1163Z" fill="#3980B4"/>
<path fill-rule="evenodd" clip-rule="evenodd" d="M7.86176 18.0358L7.7146 17.9123L17.8501 5.85352L17.9972 5.97709L7.86176 18.0358Z" fill="#3980B3"/>
<path fill-rule="evenodd" clip-rule="evenodd" d="M7.76435 17.9538L7.61511 17.8302L17.7506 5.77148L17.8977 5.89506L7.76435 17.9538Z" fill="#387FB2"/>
<path fill-rule="evenodd" clip-rule="evenodd" d="M7.6648 17.8713L7.51556 17.7477L17.651 5.68896L17.8003 5.81254L7.6648 17.8713Z" fill="#377EB1"/>
<path fill-rule="evenodd" clip-rule="evenodd" d="M7.56531 17.7887L7.41608 17.6651L17.5515 5.6084L17.7008 5.72991L7.56531 17.7887Z" fill="#377EB0"/>
<path fill-rule="evenodd" clip-rule="evenodd" d="M7.46588 17.7066L7.31665 17.5831L17.4521 5.52637L17.6013 5.64994L7.46588 17.7066Z" fill="#377DAE"/>
<path fill-rule="evenodd" clip-rule="evenodd" d="M7.3664 17.6241L7.21924 17.5005L17.3547 5.44385L17.5019 5.56742L7.3664 17.6241Z" fill="#367BAC"/>
<path fill-rule="evenodd" clip-rule="evenodd" d="M7.26892 17.5416L7.11969 17.418L17.2552 5.36133L17.4044 5.4849L7.26892 17.5416Z" fill="#357AAB"/>
<path fill-rule="evenodd" clip-rule="evenodd" d="M7.16944 17.4596L7.0202 17.336L17.1557 5.2793L17.3049 5.40287L7.16944 17.4596Z" fill="#3478AA"/>
<path fill-rule="evenodd" clip-rule="evenodd" d="M7.07001 17.3771L6.92078 17.2535L17.0562 5.19678L17.2055 5.32035L7.07001 17.3771Z" fill="#3477A8"/>
<path fill-rule="evenodd" clip-rule="evenodd" d="M6.97053 17.295L6.82336 17.1714L16.9568 5.11475L17.106 5.23832L6.97053 17.295Z" fill="#3376A7"/>
<path fill-rule="evenodd" clip-rule="evenodd" d="M6.87104 17.212L6.72388 17.0884L16.8593 5.03174L17.0065 5.15531L6.87104 17.212Z" fill="#3274A6"/>
<path fill-rule="evenodd" clip-rule="evenodd" d="M6.77362 17.13L6.62439 17.0085L16.7599 4.94971L16.9091 5.07328L6.77362 17.13Z" fill="#3273A4"/>
<path fill-rule="evenodd" clip-rule="evenodd" d="M6.67408 17.0495L6.52484 16.9259L16.6603 4.86719L16.8095 4.99076L6.67408 17.0495Z" fill="#3172A3"/>
<path fill-rule="evenodd" clip-rule="evenodd" d="M6.57465 16.967L6.42542 16.8434L16.5609 4.78467L16.7101 4.90824L6.57465 16.967Z" fill="#3070A1"/>
<path fill-rule="evenodd" clip-rule="evenodd" d="M6.47516 16.8845L6.328 16.7609L16.4635 4.70215L16.6106 4.82572L6.47516 16.8845Z" fill="#306F9F"/>
<path fill-rule="evenodd" clip-rule="evenodd" d="M6.37769 16.8023L6.22845 16.6788L16.3639 4.62207L16.5111 4.74358L6.37769 16.8023Z" fill="#2F6D9E"/>
<path fill-rule="evenodd" clip-rule="evenodd" d="M6.2782 16.7198L6.12897 16.5963L16.2644 4.53955L16.4137 4.66312L6.2782 16.7198Z" fill="#2E6C9D"/>
<path fill-rule="evenodd" clip-rule="evenodd" d="M6.17877 16.6378L6.02954 16.5142L16.165 4.45752L16.3142 4.58109L6.17877 16.6378Z" fill="#2D6A9B"/>
<path fill-rule="evenodd" clip-rule="evenodd" d="M6.07923 16.5553L5.92999 16.4317L16.0655 4.375L16.2147 4.49857L6.07923 16.5553Z" fill="#2D699A"/>
<path fill-rule="evenodd" clip-rule="evenodd" d="M5.97968 16.4732L5.83252 16.3497L15.968 4.29297L16.1151 4.41654L5.97968 16.4732Z" fill="#2C6798"/>
<path fill-rule="evenodd" clip-rule="evenodd" d="M5.88233 16.3902L5.73309 16.2667L15.8686 4.20996L16.0178 4.33353L5.88233 16.3902Z" fill="#2B6596"/>
<path fill-rule="evenodd" clip-rule="evenodd" d="M5.78284 16.3082L5.63361 16.1846L15.7691 4.12793L15.9183 4.2515L5.78284 16.3082Z" fill="#2A6495"/>
<path fill-rule="evenodd" clip-rule="evenodd" d="M5.68329 16.2262L5.53406 16.1047L15.6695 4.0459L15.8188 4.16947L5.68329 16.2262Z" fill="#296293"/>
<path fill-rule="evenodd" clip-rule="evenodd" d="M5.58387 16.1432L5.43671 16.0217L15.5701 3.96289L15.7193 4.08646L5.58387 16.1432Z" fill="#296192"/>
<path fill-rule="evenodd" clip-rule="evenodd" d="M5.48438 16.0627L5.33722 15.9391L15.4727 3.88037L15.6198 4.00395L5.48438 16.0627Z" fill="#285F90"/>
<path fill-rule="evenodd" clip-rule="evenodd" d="M5.38697 15.9807L5.23773 15.8571L15.3732 3.79834L15.5224 3.92191L5.38697 15.9807Z" fill="#285E8F"/>
<path fill-rule="evenodd" clip-rule="evenodd" d="M5.28742 15.898L5.13818 15.7745L15.2736 3.71777L15.4229 3.83929L5.28742 15.898Z" fill="#275C8D"/>
<path fill-rule="evenodd" clip-rule="evenodd" d="M5.18799 15.816L5.03876 15.6924L15.1742 3.63574L15.3235 3.75726L5.18799 15.816Z" fill="#265B8B"/>
<path fill-rule="evenodd" clip-rule="evenodd" d="M5.08851 15.7335L4.94135 15.6099L15.0768 3.55322L15.224 3.6768L5.08851 15.7335Z" fill="#255A8A"/>
<path fill-rule="evenodd" clip-rule="evenodd" d="M4.98896 15.651L4.8418 15.5274L14.9773 3.4707L15.1244 3.59428L4.98896 15.651Z" fill="#255888"/>
<path fill-rule="evenodd" clip-rule="evenodd" d="M4.8916 15.5685L4.74237 15.4449L14.8778 3.38818L15.0271 3.51176L4.8916 15.5685Z" fill="#275787"/>
<path fill-rule="evenodd" clip-rule="evenodd" d="M4.79206 15.4864L4.64282 15.3629L14.7783 3.30615L14.9275 3.42973L4.79206 15.4864Z" fill="#285686"/>
<path fill-rule="evenodd" clip-rule="evenodd" d="M4.69257 15.4039L4.54333 15.2803L14.6788 3.22363L14.828 3.34721L4.69257 15.4039Z" fill="#2A5484"/>
<path fill-rule="evenodd" clip-rule="evenodd" d="M4.59308 15.3219L4.44592 15.1983L14.5814 3.1416L14.7285 3.26518L4.59308 15.3219Z" fill="#2B5283"/>
<path fill-rule="evenodd" clip-rule="evenodd" d="M4.49573 15.2389L4.3465 15.1174L14.482 3.05859L14.6291 3.18217L4.49573 15.2389Z" fill="#2C5181"/>
<path fill-rule="evenodd" clip-rule="evenodd" d="M4.39624 15.1568L4.24701 15.0353L14.3825 2.97656L14.5317 3.10014L4.39624 15.1568Z" fill="#2E4F80"/>
<path fill-rule="evenodd" clip-rule="evenodd" d="M4.29663 15.0764L4.1474 14.9528L14.2829 2.89404L14.4321 3.01762L4.29663 15.0764Z" fill="#2F4D80"/>
<path fill-rule="evenodd" clip-rule="evenodd" d="M4.19727 14.9939L4.04803 14.8703L14.1835 2.81152L14.3327 2.9351L4.19727 14.9939Z" fill="#304C80"/>
<path fill-rule="evenodd" clip-rule="evenodd" d="M4.09778 14.9117L3.95062 14.7881L14.0861 2.73145L14.2332 2.85296L4.09778 14.9117Z" fill="#314B80"/>
<path fill-rule="evenodd" clip-rule="evenodd" d="M4.00031 14.8292L3.85107 14.7056L13.9865 2.64893L14.1358 2.77044L4.00031 14.8292Z" fill="#324980"/>
<path fill-rule="evenodd" clip-rule="evenodd" d="M3.90082 14.7467L3.75159 14.6231L13.8871 2.56641L14.0363 2.68998L3.90082 14.7467Z" fill="#334880"/>
<path fill-rule="evenodd" clip-rule="evenodd" d="M3.80133 14.6646L3.6521 14.5411L13.7876 2.48438L13.9368 2.60795L3.80133 14.6646Z" fill="#334680"/>
<path fill-rule="evenodd" clip-rule="evenodd" d="M3.70191 14.5821L3.55475 14.4586L13.6902 2.40186L13.8374 2.52543L3.70191 14.5821Z" fill="#354580"/>
<path fill-rule="evenodd" clip-rule="evenodd" d="M3.60236 14.5001L3.4552 14.3765L13.5907 2.31982L13.7378 2.4434L3.60236 14.5001Z" fill="#354380"/>
<path fill-rule="evenodd" clip-rule="evenodd" d="M3.50495 14.4176L3.35571 14.294L13.4912 2.2373L13.6404 2.36088L3.50495 14.4176Z" fill="#364380"/>
<path fill-rule="evenodd" clip-rule="evenodd" d="M3.40546 14.3346L3.25623 14.211L13.3917 2.1543L13.5409 2.27787L3.40546 14.3346Z" fill="#37417F"/>
<path fill-rule="evenodd" clip-rule="evenodd" d="M3.30597 14.2525L3.15674 14.131L13.2922 2.07227L13.4414 2.19584L3.30597 14.2525Z" fill="#37407E"/>
<path fill-rule="evenodd" clip-rule="evenodd" d="M3.20655 14.1705L3.05939 14.049L13.1949 1.99023L13.342 2.11381L3.20655 14.1705Z" fill="#383E7D"/>
<path fill-rule="evenodd" clip-rule="evenodd" d="M3.10907 14.0896L2.95984 13.966L13.0953 1.90723L13.2425 2.0308L3.10907 14.0896Z" fill="#383D7C"/>
<path fill-rule="evenodd" clip-rule="evenodd" d="M3.00952 14.0075L2.86029 13.884L12.9958 1.8252L13.145 1.94877L3.00952 14.0075Z" fill="#393B7B"/>
<path fill-rule="evenodd" clip-rule="evenodd" d="M2.91004 13.9249L2.7608 13.8013L12.8963 1.74463L13.0455 1.86614L2.91004 13.9249Z" fill="#393A7A"/>
<path fill-rule="evenodd" clip-rule="evenodd" d="M2.81061 13.8429L2.66138 13.7193L12.7968 1.6626L12.9461 1.78411L2.81061 13.8429Z" fill="#3A3879"/>
<path fill-rule="evenodd" clip-rule="evenodd" d="M2.71113 13.7604L2.56396 13.6368L12.6994 1.58008L12.8466 1.70365L2.71113 13.7604Z" fill="#393778"/>
<path fill-rule="evenodd" clip-rule="evenodd" d="M2.61365 13.6783L2.46442 13.5547L12.5999 1.49805L12.7491 1.62162L2.61365 13.6783Z" fill="#3B3677"/>
<path fill-rule="evenodd" clip-rule="evenodd" d="M2.51416 13.5953L2.36493 13.4717L12.5004 1.41504L12.6496 1.53861L2.51416 13.5953Z" fill="#3B3476"/>
<path fill-rule="evenodd" clip-rule="evenodd" d="M2.41474 13.5133L2.2655 13.3897L12.401 1.33301L12.5502 1.45658L2.41474 13.5133Z" fill="#3B3375"/>
<path fill-rule="evenodd" clip-rule="evenodd" d="M2.31531 13.4308L2.16815 13.3072L12.3015 1.25049L12.4508 1.37406L2.31531 13.4308Z" fill="#3C3274"/>
<path fill-rule="evenodd" clip-rule="evenodd" d="M2.21576 13.3487L2.0686 13.2252L12.2041 1.16846L12.3512 1.29203L2.21576 13.3487Z" fill="#3C3273"/>
<path fill-rule="evenodd" clip-rule="evenodd" d="M2.11835 13.2657L1.96912 13.1442L12.1046 1.08545L12.2538 1.20902L2.11835 13.2657Z" fill="#3C3172"/>
<path fill-rule="evenodd" clip-rule="evenodd" d="M2.0188 13.1858L1.86957 13.0622L12.005 1.00342L12.1543 1.12699L2.0188 13.1858Z" fill="#3D3072"/>
<path fill-rule="evenodd" clip-rule="evenodd" d="M1.91938 13.1032L1.77014 12.9797L11.9056 0.920898L12.0548 1.04447L1.91938 13.1032Z" fill="#3C2F71"/>
<path fill-rule="evenodd" clip-rule="evenodd" d="M1.81989 13.0212L1.67273 12.8976L11.8082 0.838867L11.9554 0.962441L1.81989 13.0212Z" fill="#3D2E70"/>
<path fill-rule="evenodd" clip-rule="evenodd" d="M1.72034 12.9386L1.57318 12.815L11.7086 0.758301L11.8558 0.879815L1.72034 12.9386Z" fill="#3E2D70"/>
<path fill-rule="evenodd" clip-rule="evenodd" d="M1.62293 12.8565L1.47369 12.733L11.6092 0.67627L11.7584 0.797784L1.62293 12.8565Z" fill="#3E2C6F"/>
<path fill-rule="evenodd" clip-rule="evenodd" d="M1.52344 12.7735L1.37421 12.65L11.5097 0.593262L11.6589 0.716836L1.52344 12.7735Z" fill="#3E2B6E"/>
<path fill-rule="evenodd" clip-rule="evenodd" d="M1.42395 12.6915L1.27472 12.5679L11.4102 0.51123L11.5594 0.634804L1.42395 12.6915Z" fill="#3E2A6D"/>
<path fill-rule="evenodd" clip-rule="evenodd" d="M1.32447 12.609L1.17731 12.4854L11.3128 0.428711L11.4599 0.552285L1.32447 12.609Z" fill="#3E296D"/>
<path fill-rule="evenodd" clip-rule="evenodd" d="M1.22705 12.5265L1.07782 12.4029L11.2133 0.346191L11.3604 0.469765L1.22705 12.5265Z" fill="#3F286C"/>
<path fill-rule="evenodd" clip-rule="evenodd" d="M1.12757 12.4444L0.978333 12.3209L11.1138 0.26416L11.263 0.387734L1.12757 12.4444Z" fill="#3E286C"/>
<path fill-rule="evenodd" clip-rule="evenodd" d="M1.02802 12.3619L0.878784 12.2383L11.0142 0.181641L11.1635 0.305215L1.02802 12.3619Z" fill="#3F276B"/>
<path fill-rule="evenodd" clip-rule="evenodd" d="M0.928592 12.2794L0.779358 12.1579L10.9148 0.0991211L11.0641 0.222695L0.928592 12.2794Z" fill="#3F266B"/>
<path fill-rule="evenodd" clip-rule="evenodd" d="M0.829107 12.1994L0.681946 12.0758L10.8174 0.0170898L10.9646 0.140664L0.829107 12.1994Z" fill="#3F266A"/>
<path fill-rule="evenodd" clip-rule="evenodd" d="M0.731753 12.1169L0.58252 11.9933L10.718 -0.0654297L10.8672 0.0581443L0.731753 12.1169Z" fill="#40266A"/>
<path fill-rule="evenodd" clip-rule="evenodd" d="M0.632205 12.0344L0.482971 11.9108L10.6184 -0.147949L10.7677 -0.0243753L0.632205 12.0344Z" fill="#402569"/>
<path fill-rule="evenodd" clip-rule="evenodd" d="M0.532718 11.9522L0.383484 11.8287L10.5189 -0.228027L10.6682 -0.106513L0.532718 11.9522Z" fill="#3F2469"/>
<path fill-rule="evenodd" clip-rule="evenodd" d="M0.433233 11.8697L0.286072 11.7462L10.4215 -0.310547L10.5687 -0.186973L0.433233 11.8697Z" fill="#3F2468"/>
<path fill-rule="evenodd" clip-rule="evenodd" d="M0.333746 11.7872L0.186584 11.6636L10.322 -0.393066L10.4692 -0.269492L0.333746 11.7872Z" fill="#3F2368"/>
<path fill-rule="evenodd" clip-rule="evenodd" d="M0.236331 11.7052L0.0870972 11.5816L10.2226 -0.475098L10.3718 -0.351524L0.236331 11.7052Z" fill="#3F2368"/>
<path fill-rule="evenodd" clip-rule="evenodd" d="M0.136844 11.6222L-0.0123901 11.4986L10.1231 -0.558105L10.2723 -0.434531L0.136844 11.6222Z" fill="#402368"/>
<path fill-rule="evenodd" clip-rule="evenodd" d="M0.0372954 11.5401L-0.111938 11.4166L10.0235 -0.640137L10.1728 -0.516563L0.0372954 11.5401Z" fill="#402167"/>
<path fill-rule="evenodd" clip-rule="evenodd" d="M-0.0621895 11.4576L-0.209351 11.334L9.92611 -0.722656L10.0733 -0.599082L-0.0621895 11.4576Z" fill="#402167"/>
<path fill-rule="evenodd" clip-rule="evenodd" d="M-0.159543 11.3756L-0.308777 11.252L9.82669 -0.804688L9.97385 -0.681114L-0.159543 11.3756Z" fill="#402167"/>
<path fill-rule="evenodd" clip-rule="evenodd" d="M-0.25903 11.2931L-0.408264 11.1716L9.7272 -0.887207L9.87643 -0.763633L-0.25903 11.2931Z" fill="#402167"/>
<path fill-rule="evenodd" clip-rule="evenodd" d="M-0.35864 11.2126L-0.507874 11.089L9.62759 -0.969727L9.77682 -0.846153L-0.35864 11.2126Z" fill="#402167"/>
<path fill-rule="evenodd" clip-rule="evenodd" d="M-0.458005 11.1301L-0.607239 11.0065L9.52823 -1.05225L9.67746 -0.928672L-0.458005 11.1301Z" fill="#402167"/>
<path fill-rule="evenodd" clip-rule="evenodd" d="M-0.557495 11.048L-0.460079 11.1283L9.67539 -0.92836L9.57797 -1.01074L-0.557495 11.048Z" fill="#402167"/>
</g>
<path d="M69.0809 7.43138C68.3305 6.7579 67.4393 6.41602 66.4361 6.41602C65.8682 6.41602 65.3003 6.53959 64.7531 6.78262C64.2038 7.02771 63.7312 7.37989 63.3499 7.83094L63.2566 7.94009L64.38 9.00077L64.4857 8.8875C65.0536 8.2758 65.7169 7.96481 66.4568 7.96481C66.9916 7.96481 67.4642 8.13369 67.8663 8.4694C68.2103 8.75568 68.428 9.08109 68.5192 9.4374H65.9407V10.9141H68.4922C68.3243 11.361 68.0673 11.6967 67.7295 11.9109C67.3377 12.1601 66.9025 12.2858 66.4361 12.2858C65.7397 12.2858 65.0826 11.9748 64.4857 11.361L64.3758 11.2478L63.2815 12.3805L63.3892 12.4856C63.9344 13.019 64.4525 13.3815 64.9334 13.5586C65.4122 13.7357 65.9221 13.8263 66.4548 13.8263C67.5761 13.8263 68.4943 13.468 69.1824 12.7615C69.8706 12.0572 70.2188 11.1633 70.2188 10.1088C70.2188 9.05432 69.8353 8.10692 69.0809 7.42932V7.43138Z" fill="black"/>
</g>
<defs>
<clipPath id="clip0_1609_757">
<rect width="84" height="20.4" fill="white"/>
</clipPath>
</defs>
</svg>
