<svg width="50" height="20" viewBox="0 0 50 20" fill="none" xmlns="http://www.w3.org/2000/svg">
<g clip-path="url(#clip0_1609_729)">
<path d="M20.998 14.9778H21.8243L25.5901 6.46896C25.6483 6.3487 25.6749 6.16264 25.8906 6.16264C26.1063 6.16264 26.1329 6.3487 26.1911 6.46896L29.9569 14.9778H30.7832L26.9035 6.33508C26.5909 5.62715 26.305 5.52051 25.8906 5.52051C25.4762 5.52051 25.1927 5.62715 24.8777 6.33508L20.998 14.9778Z" fill="black"/>
<path d="M31.5538 14.9778H32.3801L36.146 6.46896C36.2041 6.3487 36.2308 6.16264 36.4464 6.16264C36.6621 6.16264 36.6888 6.3487 36.7469 6.46896L40.5127 14.9778H41.3391L37.4594 6.33508C37.1468 5.62715 36.8608 5.52051 36.4464 5.52051C36.0321 5.52051 35.7461 5.62715 35.4335 6.33508L31.5538 14.9778Z" fill="black"/>
<path d="M50 14.9774V14.3353H46.1348C44.4797 14.3353 43.6946 13.6273 43.3674 13.2007C42.7689 12.427 42.7107 11.4105 42.7107 10.4484C42.7107 9.40696 42.7689 8.17715 43.4522 7.34896C44.281 6.34606 45.6065 6.26664 46.3481 6.26664H49.8425V5.62451H46.0185C44.2495 5.62451 43.2947 6.42547 42.9506 6.75902C41.9813 7.73469 41.8819 9.16417 41.8819 10.4326C41.8819 12.0095 42.1388 13.1168 42.9942 13.92C43.4353 14.3353 44.3488 14.9751 45.9749 14.9751H49.9976L50 14.9774Z" fill="black"/>
<path fill-rule="evenodd" clip-rule="evenodd" d="M16.0471 2.59121L17.9276 6.90688C17.9639 6.99083 18.0972 6.97268 18.1069 6.88192L18.6473 1.51116L18.8557 6.48484L18.8678 7.36749C18.8678 7.46506 19.0132 7.48775 19.0471 7.39699L21.9091 0L20.4842 0.240516L19.3888 0.424306L15.0026 1.164L10.9533 1.84698C13.0689 3.95716 15.1505 5.85406 17.2781 7.90071C17.3339 7.95516 17.4332 7.90525 17.4138 7.83264L16.0471 2.59348V2.59121Z" fill="#2A5096"/>
<path fill-rule="evenodd" clip-rule="evenodd" d="M15.0075 15.7538L16.9922 11.42C17.031 11.3338 16.9268 11.2521 16.842 11.3043L11.4259 14.7872L16.0859 10.9118C16.1634 10.846 16.098 10.7257 15.9962 10.7507L9.54297 12.1983L15.6133 10.0904C15.7127 10.0563 15.6957 9.92021 15.5891 9.90886L10.9533 9.40968L16.2604 9.22362C16.3597 9.21908 16.3936 9.09656 16.3088 9.04891L10.1585 5.52967L16.4033 8.37501C16.5027 8.42039 16.5972 8.30467 16.5221 8.22752L14.2902 5.92901L10.4299 1.97412L0 3.58512L7.18025 11.6152L9.73683 14.4741L14.3605 19.6429L16.9413 13.0923L15.0075 15.7538Z" fill="#6AAD4D"/>
<g clip-path="url(#clip1_1609_729)">
<path d="M20.998 14.9778H21.8243L25.5901 6.46896C25.6483 6.3487 25.6749 6.16264 25.8906 6.16264C26.1063 6.16264 26.1329 6.3487 26.1911 6.46896L29.9569 14.9778H30.7832L26.9035 6.33508C26.5909 5.62715 26.305 5.52051 25.8906 5.52051C25.4762 5.52051 25.1927 5.62715 24.8777 6.33508L20.998 14.9778Z" fill="black"/>
<path d="M31.5538 14.9778H32.3801L36.146 6.46896C36.2041 6.3487 36.2308 6.16264 36.4464 6.16264C36.6621 6.16264 36.6888 6.3487 36.7469 6.46896L40.5127 14.9778H41.3391L37.4594 6.33508C37.1468 5.62715 36.8608 5.52051 36.4464 5.52051C36.0321 5.52051 35.7461 5.62715 35.4335 6.33508L31.5538 14.9778Z" fill="black"/>
<path d="M50 14.9774V14.3353H46.1348C44.4797 14.3353 43.6946 13.6273 43.3674 13.2007C42.7689 12.427 42.7107 11.4105 42.7107 10.4484C42.7107 9.40696 42.7689 8.17715 43.4522 7.34896C44.281 6.34606 45.6065 6.26664 46.3481 6.26664H49.8425V5.62451H46.0185C44.2495 5.62451 43.2947 6.42547 42.9506 6.75902C41.9813 7.73469 41.8819 9.16417 41.8819 10.4326C41.8819 12.0095 42.1388 13.1168 42.9942 13.92C43.4353 14.3353 44.3488 14.9751 45.9749 14.9751H49.9976L50 14.9774Z" fill="black"/>
<path fill-rule="evenodd" clip-rule="evenodd" d="M16.0471 2.59121L17.9276 6.90688C17.9639 6.99083 18.0972 6.97268 18.1069 6.88192L18.6473 1.51116L18.8557 6.48484L18.8678 7.36749C18.8678 7.46506 19.0132 7.48775 19.0471 7.39699L21.9091 0L20.4842 0.240516L19.3888 0.424306L15.0026 1.164L10.9533 1.84698C13.0689 3.95716 15.1505 5.85406 17.2781 7.90071C17.3339 7.95516 17.4332 7.90525 17.4138 7.83264L16.0471 2.59348V2.59121Z" fill="#2A5096"/>
<path fill-rule="evenodd" clip-rule="evenodd" d="M15.0075 15.7538L16.9922 11.42C17.031 11.3338 16.9268 11.2521 16.842 11.3043L11.4259 14.7872L16.0859 10.9118C16.1634 10.846 16.098 10.7257 15.9962 10.7507L9.54297 12.1983L15.6133 10.0904C15.7127 10.0563 15.6957 9.92021 15.5891 9.90886L10.9533 9.40968L16.2604 9.22362C16.3597 9.21908 16.3936 9.09656 16.3088 9.04891L10.1585 5.52967L16.4033 8.37501C16.5027 8.42039 16.5972 8.30467 16.5221 8.22752L14.2902 5.92901L10.4299 1.97412L0 3.58512L7.18025 11.6152L9.73683 14.4741L14.3605 19.6429L16.9413 13.0923L15.0075 15.7538Z" fill="#6AAD4D"/>
</g>
</g>
<defs>
<clipPath id="clip0_1609_729">
<rect width="50" height="19.6429" fill="white"/>
</clipPath>
<clipPath id="clip1_1609_729">
<rect width="50" height="19.6429" fill="white"/>
</clipPath>
</defs>
</svg>
