<svg width="94" height="12" viewBox="0 0 94 12" fill="none" xmlns="http://www.w3.org/2000/svg">
<g clip-path="url(#clip0_1609_899)">
<path d="M20.8437 10.2767V2.69792C20.8437 2.15215 21.0321 1.68638 21.4098 1.3006C21.7871 0.91482 22.2425 0.722168 22.7762 0.722168H28.573C29.1067 0.722168 29.5622 0.915294 29.9394 1.3006C30.3167 1.68638 30.5051 2.15215 30.5051 2.69792V6.6499C30.5051 7.19567 30.3162 7.66144 29.9394 8.04722C29.5622 8.433 29.1067 8.62565 28.573 8.62565H23.0933C23.0012 8.62565 22.9253 8.65642 22.8656 8.71748C22.8054 8.77902 22.7758 8.85664 22.7758 8.95037V10.2772C22.7758 10.3714 22.7457 10.449 22.686 10.51C22.6258 10.5716 22.5499 10.6019 22.4582 10.6019H21.1608C21.0687 10.6019 20.9927 10.5716 20.933 10.51C20.8738 10.4485 20.8437 10.3709 20.8437 10.2767ZM28.2554 2.69792H23.0933C23.0012 2.69792 22.9253 2.72869 22.8656 2.78975C22.8054 2.85128 22.7758 2.92891 22.7758 3.02264V6.32518C22.7758 6.41938 22.8054 6.49701 22.8656 6.55807C22.9253 6.6196 23.0012 6.6499 23.0933 6.6499H28.255C28.3471 6.6499 28.423 6.6196 28.4827 6.55807C28.5424 6.49701 28.5725 6.41938 28.5725 6.32518V3.02216C28.5725 2.92844 28.5424 2.85081 28.4827 2.78928C28.423 2.72821 28.3471 2.69792 28.2554 2.69792Z" fill="black"/>
<path d="M31.8989 1.0464C31.8989 0.952673 31.9286 0.875044 31.9887 0.813509C32.0484 0.752447 32.1244 0.72168 32.2165 0.72168H33.5139C33.6056 0.72168 33.6815 0.752447 33.7417 0.813509C33.8014 0.875044 33.8315 0.952673 33.8315 1.0464V4.34894C33.8315 4.44314 33.8611 4.52077 33.9213 4.58183C33.981 4.64336 34.0569 4.67366 34.149 4.67366H39.3107C39.4028 4.67366 39.4787 4.64336 39.5384 4.58183C39.5981 4.52077 39.6282 4.44314 39.6282 4.34894V1.0464C39.6282 0.952673 39.6578 0.875044 39.718 0.813509C39.7777 0.752447 39.8537 0.72168 39.9458 0.72168H41.2432C41.3349 0.72168 41.4108 0.752447 41.471 0.813509C41.5307 0.875044 41.5608 0.952673 41.5608 1.0464V8.62564C41.5608 9.17141 41.3719 9.63718 40.9951 10.023C40.6179 10.4087 40.1624 10.6014 39.6287 10.6014H33.1825C33.0904 10.6014 33.0145 10.5711 32.9548 10.5096C32.8946 10.4485 32.865 10.3709 32.865 10.2767V8.94988C32.865 8.85616 32.8946 8.77853 32.9548 8.71699C33.0145 8.65593 33.0904 8.62516 33.1825 8.62516H39.3102C39.4023 8.62516 39.4782 8.59487 39.538 8.53333C39.5977 8.47227 39.6278 8.39464 39.6278 8.30045V6.97365C39.6278 6.87993 39.5977 6.8023 39.538 6.74077C39.4782 6.6797 39.4023 6.64894 39.3102 6.64894H33.8315C33.2978 6.64894 32.8423 6.45628 32.465 6.07051C32.0878 5.68473 31.8989 5.21895 31.8989 4.67318V1.0464Z" fill="black"/>
<path d="M42.9401 10.2625V1.03224C42.9401 0.938513 42.9697 0.860884 43.0299 0.799349C43.0896 0.738287 43.1656 0.70752 43.2577 0.70752H44.5551C44.6468 0.70752 44.7227 0.738287 44.7829 0.799349C44.8426 0.860884 44.8727 0.938513 44.8727 1.03224V4.33478C44.8727 4.42898 44.9023 4.50661 44.9625 4.56767C45.0222 4.6292 45.0981 4.6595 45.1902 4.6595H50.3519C50.444 4.6595 50.5199 4.6292 50.5796 4.56767C50.6393 4.50661 50.6694 4.42898 50.6694 4.33478V1.03224C50.6694 0.938513 50.699 0.860884 50.7592 0.799349C50.8189 0.738287 50.8949 0.70752 50.987 0.70752H52.2844C52.3761 0.70752 52.452 0.738287 52.5122 0.799349C52.5719 0.860884 52.602 0.938513 52.602 1.03224V10.2625C52.602 10.3567 52.5719 10.4343 52.5122 10.4954C52.452 10.5569 52.3761 10.5872 52.2844 10.5872H50.987C50.8949 10.5872 50.8189 10.5569 50.7592 10.4954C50.699 10.4343 50.6694 10.3567 50.6694 10.2625V6.95997C50.6694 6.86624 50.6393 6.78861 50.5796 6.72708C50.5199 6.66602 50.444 6.63525 50.3519 6.63525H45.1898C45.0976 6.63525 45.0217 6.66602 44.962 6.72708C44.9018 6.78861 44.8722 6.86624 44.8722 6.95997V10.2625C44.8722 10.3567 44.8421 10.4343 44.7824 10.4954C44.7222 10.5569 44.6463 10.5872 44.5547 10.5872H43.2572C43.1651 10.5872 43.0892 10.5569 43.0295 10.4954C42.9702 10.4343 42.9401 10.3567 42.9401 10.2625Z" fill="black"/>
<path d="M53.9953 8.62565V2.69792C53.9953 2.15215 54.1837 1.68638 54.5614 1.3006C54.9387 0.91482 55.3941 0.722168 55.9279 0.722168H62.3731C62.4648 0.722168 62.5407 0.752936 62.6009 0.813997C62.6606 0.875533 62.6906 0.953162 62.6906 1.04688V2.37368C62.6906 2.46787 62.6606 2.5455 62.6009 2.60656C62.5407 2.6681 62.4648 2.69839 62.3731 2.69839H56.2449C56.1528 2.69839 56.0769 2.72916 56.0172 2.79022C55.957 2.85176 55.9274 2.92939 55.9274 3.02311V4.3499C55.9274 4.4441 55.957 4.52173 56.0172 4.58279C56.0769 4.64433 56.1528 4.67462 56.2449 4.67462H62.3731C62.4648 4.67462 62.5407 4.70539 62.6009 4.76645C62.6606 4.82798 62.6906 4.90561 62.6906 4.99934V6.32613C62.6906 6.42033 62.6606 6.49795 62.6009 6.55902C62.5407 6.62055 62.4648 6.65085 62.3731 6.65085H56.2449C56.1528 6.65085 56.0769 6.68161 56.0172 6.74267C55.957 6.80421 55.9274 6.88184 55.9274 6.97556V8.30235C55.9274 8.39655 55.957 8.47418 56.0172 8.53524C56.0769 8.59678 56.1528 8.62707 56.2449 8.62707H62.3731C62.4648 8.62707 62.5407 8.65784 62.6009 8.7189C62.6606 8.78044 62.6906 8.85806 62.6906 8.95179V10.2786C62.6906 10.3728 62.6606 10.4504 62.6009 10.5115C62.5407 10.573 62.4648 10.6033 62.3731 10.6033H55.9279C55.3941 10.6033 54.9387 10.4106 54.5614 10.0249C54.1842 9.63719 53.9953 9.17142 53.9953 8.62565Z" fill="black"/>
<path d="M64.0845 10.2767V1.0464C64.0845 0.952673 64.1141 0.875044 64.1743 0.813509C64.234 0.752447 64.3099 0.72168 64.402 0.72168H65.6995C65.7911 0.72168 65.8671 0.752447 65.9272 0.813509C65.9869 0.875044 66.017 0.952673 66.017 1.0464V4.34894C66.017 4.44314 66.0467 4.52077 66.1068 4.58183C66.1665 4.64336 66.2425 4.67366 66.3346 4.67366H67.5353C67.7561 4.67366 67.9306 4.58893 68.0598 4.41947L70.9857 0.975867C71.1144 0.806409 71.2893 0.72168 71.5101 0.72168H73.4288C73.4931 0.72168 73.5343 0.750081 73.5528 0.806409C73.5714 0.853744 73.5667 0.910072 73.539 0.975867L69.7849 5.40735C69.6377 5.57681 69.6377 5.74626 69.7849 5.91525L73.539 10.3467C73.5667 10.4125 73.5709 10.4693 73.5528 10.5162C73.5343 10.5725 73.4927 10.6009 73.4288 10.6009H71.5101C71.2893 10.6009 71.1144 10.5162 70.9857 10.3467L68.0598 6.90312C67.9306 6.73367 67.7561 6.64894 67.5353 6.64894H66.3346C66.2425 6.64894 66.1665 6.6797 66.1068 6.74077C66.0467 6.8023 66.017 6.87993 66.017 6.97365V10.2762C66.017 10.3704 65.9869 10.448 65.9272 10.5091C65.8671 10.5706 65.7911 10.6009 65.6995 10.6009H64.402C64.3099 10.6009 64.234 10.5706 64.1743 10.5091C64.1141 10.4485 64.0845 10.3709 64.0845 10.2767Z" fill="black"/>
<path d="M74.2498 8.62565V2.69792C74.2498 2.15215 74.4382 1.68638 74.8159 1.3006C75.1931 0.91482 75.6486 0.722168 76.1823 0.722168H82.6276C82.7192 0.722168 82.7951 0.752936 82.8553 0.813997C82.915 0.875533 82.9451 0.953162 82.9451 1.04688V2.37368C82.9451 2.46787 82.915 2.5455 82.8553 2.60656C82.7951 2.6681 82.7192 2.69839 82.6276 2.69839H76.4994C76.4073 2.69839 76.3314 2.72916 76.2716 2.79022C76.2115 2.85176 76.1818 2.92939 76.1818 3.02311V8.30141C76.1818 8.3956 76.2115 8.47323 76.2716 8.53429C76.3314 8.59583 76.4073 8.62612 76.4994 8.62612H82.6276C82.7192 8.62612 82.7951 8.65689 82.8553 8.71795C82.915 8.77949 82.9451 8.85712 82.9451 8.95084V10.2776C82.9451 10.3718 82.915 10.4495 82.8553 10.5105C82.7951 10.5721 82.7192 10.6024 82.6276 10.6024H76.1818C75.6481 10.6024 75.1927 10.4097 74.8154 10.0239C74.4381 9.63719 74.2498 9.17142 74.2498 8.62565Z" fill="black"/>
<path d="M84.3384 1.0464C84.3384 0.952673 84.368 0.875044 84.4282 0.813509C84.4879 0.752447 84.5638 0.72168 84.6559 0.72168H93.6822C93.7739 0.72168 93.8498 0.752447 93.9099 0.813509C93.9697 0.875044 93.9997 0.952673 93.9997 1.0464V2.37319C93.9997 2.46739 93.9697 2.54501 93.9099 2.60608C93.8498 2.66761 93.7739 2.69791 93.6822 2.69791H90.4526C90.3605 2.69791 90.2846 2.72867 90.2249 2.78974C90.1652 2.85127 90.1351 2.9289 90.1351 3.02262V10.2767C90.1351 10.3709 90.105 10.4485 90.0453 10.5096C89.9851 10.5711 89.9092 10.6014 89.8176 10.6014H88.5201C88.428 10.6014 88.3521 10.5711 88.2923 10.5096C88.2322 10.4485 88.2025 10.3709 88.2025 10.2767V3.02215C88.2025 2.92843 88.1725 2.8508 88.1127 2.78926C88.0526 2.7282 87.9771 2.69743 87.885 2.69743H84.6554C84.5633 2.69743 84.4874 2.66714 84.4277 2.6056C84.3675 2.54454 84.3379 2.46691 84.3379 2.37272V1.0464H84.3384Z" fill="black"/>
<path d="M16.3311 0.262234C16.1594 0.0875693 15.9423 0 15.6794 0H0.908649C0.644803 0 0.427708 0.0875693 0.256903 0.262234C0.0851714 0.437846 0 0.659846 0 0.929181V10.3796C0 10.6489 0.0851714 10.8714 0.256903 11.046C0.427708 11.2212 0.644803 11.3083 0.908649 11.3083H15.6799C15.9428 11.3083 16.1599 11.2212 16.3316 11.046C16.5024 10.8714 16.5885 10.6489 16.5885 10.3796V0.929181C16.588 0.659846 16.5024 0.437846 16.3311 0.262234Z" fill="#FF5500"/>
<path d="M14.7768 5.87204L11.9625 8.75C11.9023 8.81153 11.8333 8.8423 11.756 8.8423C11.6958 8.8423 11.6269 8.81153 11.5496 8.75L10.6974 7.87856C10.5594 7.72899 10.5594 7.58367 10.6974 7.44308L12.4402 5.66093L10.6974 3.86552C10.5594 3.71595 10.5594 3.57063 10.6974 3.43004L11.5496 2.55861C11.6097 2.49708 11.6787 2.46631 11.756 2.46631C11.8421 2.46631 11.9111 2.49708 11.9625 2.55861L14.7768 5.43656C14.9143 5.57762 14.9143 5.72294 14.7768 5.87204Z" fill="#215AA8"/>
<path d="M10.4904 5.87204L7.67608 8.75C7.61591 8.81153 7.54694 8.8423 7.46964 8.8423C7.40946 8.8423 7.34049 8.81153 7.26319 8.75L6.41101 7.87856C6.27307 7.72899 6.27307 7.58367 6.41101 7.44308L8.15378 5.66093L6.41101 3.86552C6.27307 3.71595 6.27307 3.57063 6.41101 3.43004L7.26319 2.55861C7.32336 2.49708 7.39233 2.46631 7.46964 2.46631C7.55573 2.46631 7.6247 2.49708 7.67608 2.55861L10.4904 5.43656C10.6279 5.57762 10.6279 5.72294 10.4904 5.87204Z" fill="#215AA8"/>
<path d="M6.18514 5.87204L3.37079 8.75C3.31061 8.81153 3.24164 8.8423 3.16434 8.8423C3.10416 8.8423 3.03519 8.81153 2.95789 8.75L2.10571 7.87856C1.96777 7.72899 1.96777 7.58367 2.10571 7.44308L3.84849 5.66093L2.10571 3.86552C1.96777 3.71595 1.96777 3.57063 2.10571 3.43004L2.95789 2.55861C3.01807 2.49708 3.08704 2.46631 3.16434 2.46631C3.25043 2.46631 3.31941 2.49708 3.37079 2.55861L6.18514 5.43656C6.32308 5.57762 6.32308 5.72294 6.18514 5.87204Z" fill="#215AA8"/>
</g>
<defs>
<clipPath id="clip0_1609_899">
<rect width="94" height="11.3083" fill="white"/>
</clipPath>
</defs>
</svg>
