<svg width="88" height="23" viewBox="0 0 88 23" fill="none" xmlns="http://www.w3.org/2000/svg">
<g clip-path="url(#clip0_1609_703)">
<mask id="mask0_1609_703" style="mask-type:luminance" maskUnits="userSpaceOnUse" x="-5" y="0" width="99" height="23">
<path d="M93.28 0H-4.40002V22.88H93.28V0Z" fill="white"/>
</mask>
<g mask="url(#mask0_1609_703)">
<path d="M58.1937 10.558V9.49468C58.1937 9.24275 58.402 9.03662 58.6566 9.03662H63.19C66.5263 9.03662 67.2604 13.3096 64.797 14.5529C64.5523 14.6773 64.4961 14.9979 64.6548 15.2171L65.6468 16.5651C65.8683 16.8694 65.6501 17.2915 65.2731 17.2915H63.9538C63.805 17.2915 63.6661 17.2195 63.5802 17.1017L62.1682 15.1713C62.0823 15.0535 61.9434 14.9816 61.7946 14.9816H60.6604C60.4058 14.9816 60.1975 15.1877 60.1975 15.4396V16.8334C60.1975 17.0854 59.9892 17.2915 59.7346 17.2915H58.66C58.4053 17.2915 58.197 17.0854 58.197 16.8334V11.9747C58.197 11.7228 58.4053 11.5167 58.66 11.5167H59.7346C59.9892 11.5167 60.1975 11.7228 60.1975 11.9747V12.5342C60.1975 12.7862 60.4058 12.9923 60.6604 12.9923H63.3818C63.4611 12.9923 63.5405 12.9759 63.6066 12.9367C64.01 12.7109 64.215 12.4001 64.215 12.0075C64.215 11.6148 64.0166 11.3073 63.6165 11.0717C63.5471 11.0324 63.4644 11.0128 63.3818 11.0128H58.66C58.4053 11.0128 58.197 10.8067 58.197 10.5548" fill="#00246B"/>
<path d="M37.8615 10.558V9.49468C37.8615 9.24275 38.0698 9.03662 38.3244 9.03662H42.8577C46.1941 9.03662 46.9281 13.3096 44.4647 14.5529C44.22 14.6773 44.1638 14.9979 44.3225 15.2171L45.3145 16.5651C45.536 16.8694 45.3178 17.2915 44.9409 17.2915H43.6215C43.4727 17.2915 43.3339 17.2195 43.2479 17.1017L41.836 15.1713C41.75 15.0535 41.6111 14.9816 41.4623 14.9816H40.3282C40.0736 14.9816 39.8652 15.1877 39.8652 15.4396V16.8334C39.8652 17.0854 39.6569 17.2915 39.4023 17.2915H38.3277C38.0731 17.2915 37.8648 17.0854 37.8648 16.8334V11.9747C37.8648 11.7228 38.0731 11.5167 38.3277 11.5167H39.4023C39.6569 11.5167 39.8652 11.7228 39.8652 11.9747V12.5342C39.8652 12.7862 40.0736 12.9923 40.3282 12.9923H43.0495C43.1288 12.9923 43.2082 12.9759 43.2743 12.9367C43.6777 12.7109 43.8828 12.4001 43.8828 12.0075C43.8828 11.6148 43.6844 11.3073 43.2843 11.0717C43.2148 11.0324 43.1322 11.0128 43.0495 11.0128H38.3277C38.0731 11.0128 37.8648 10.8067 37.8648 10.5548" fill="#00246B"/>
<path d="M55.9188 14.7691C55.9188 14.7691 55.9255 14.756 55.9288 14.7495C55.9651 14.6611 55.9982 14.5695 56.028 14.4812C56.0379 14.455 56.0478 14.4288 56.0544 14.4026C56.1834 14.0035 56.2495 13.5912 56.2495 13.1659C56.2495 13.0514 56.2429 12.9401 56.233 12.8256C56.233 12.8191 56.233 12.8125 56.233 12.806C56.2231 12.6751 56.2032 12.5442 56.1801 12.4134C56.1801 12.4134 56.1801 12.4101 56.1801 12.4068C56.1569 12.2923 56.1305 12.1778 56.0974 12.0665C56.0941 12.0469 56.0908 12.0306 56.0842 12.0109C56.0842 12.0109 56.0842 12.0044 56.0809 12.0011C56.061 11.9324 56.0346 11.8637 56.0114 11.795C55.9883 11.7263 55.9651 11.6576 55.9354 11.5889C55.9354 11.5889 55.9354 11.5823 55.9321 11.579C55.9255 11.5627 55.9155 11.5463 55.9089 11.53C55.8097 11.2977 55.6907 11.0784 55.5452 10.8658C55.5452 10.8658 55.5452 10.8658 55.5452 10.8625C55.4791 10.7644 55.4096 10.6695 55.3369 10.5779C55.0657 10.2474 54.7549 9.96602 54.4044 9.73372C54.3879 9.72063 54.3681 9.71082 54.3515 9.701C54.2655 9.64538 54.1796 9.58976 54.0903 9.54068C54.0837 9.53741 54.0738 9.53414 54.0672 9.53087C54.0109 9.50142 53.9514 9.47524 53.8919 9.4458C53.8291 9.41635 53.7663 9.38363 53.7034 9.35746C53.6968 9.35746 53.6902 9.35091 53.6803 9.34764C53.5877 9.30838 53.4951 9.27893 53.3992 9.24622C53.3761 9.23967 53.3529 9.22986 53.3298 9.22004C52.9264 9.09244 52.5097 9.03027 52.0799 9.03027C51.9609 9.03027 51.8451 9.03682 51.7294 9.04663C51.7261 9.04663 51.7228 9.04663 51.7162 9.04663C51.4616 9.06954 51.2136 9.11534 50.9689 9.18078C50.949 9.18405 50.9325 9.18732 50.9127 9.19387C50.9127 9.19387 50.9061 9.19387 50.9027 9.19714C50.8333 9.21677 50.7639 9.24294 50.6944 9.26912C50.625 9.29202 50.5556 9.31492 50.4894 9.3411C50.4894 9.3411 50.4828 9.3411 50.4795 9.34437C50.4597 9.35091 50.4431 9.364 50.4233 9.37054C50.3175 9.41635 50.2117 9.46543 50.1092 9.51778C50.1059 9.51778 50.0992 9.52432 50.0959 9.52432C49.9835 9.58649 49.8711 9.64865 49.7653 9.72063C49.7521 9.73045 49.7388 9.74026 49.7256 9.75008C49.6396 9.80897 49.5537 9.86787 49.4677 9.9333C49.4578 9.94312 49.4478 9.95293 49.4346 9.95948L49.0345 10.3096C49.0147 10.3259 48.9948 10.3456 48.9783 10.3652C48.4955 10.9279 48.1781 11.5365 48.0194 12.1909C47.9566 12.4559 48.1484 12.7209 48.4228 12.7504L49.4247 12.8583C49.6529 12.8845 49.8612 12.734 49.924 12.5148C50.0265 12.1549 50.2183 11.8408 50.4927 11.5758C50.5787 11.494 50.6713 11.4187 50.7639 11.35C50.9755 11.1962 51.2003 11.085 51.4384 11.0163C51.4549 11.0097 51.4748 11.0065 51.4946 11.0032C51.5442 10.9901 51.5938 10.977 51.6467 10.9672C51.6699 10.9639 51.6963 10.9607 51.7195 10.9574C51.7691 10.9508 51.8187 10.941 51.8683 10.9378C51.8749 10.9378 51.8815 10.9378 51.8848 10.9378C52.027 10.9279 52.1725 10.9312 52.3246 10.9476C52.5494 10.9737 52.7577 11.0261 52.9528 11.1046C53.2107 11.2159 53.4488 11.3762 53.6638 11.5889C53.753 11.6772 53.8324 11.7721 53.9018 11.867C53.9217 11.8931 53.9415 11.9193 53.958 11.9422C53.9613 11.9488 53.9647 11.9553 53.9713 11.9618C54.0076 12.0175 54.044 12.0731 54.0738 12.132C54.1068 12.1941 54.1366 12.2563 54.1597 12.3185C54.173 12.3512 54.1862 12.3872 54.1961 12.4232C54.206 12.4526 54.2193 12.4821 54.2259 12.5082C54.2656 12.6391 54.292 12.7765 54.3052 12.9172C54.3052 12.9205 54.3052 12.9238 54.3052 12.927C54.3052 12.9598 54.3052 12.9957 54.3085 13.0285C54.3118 13.1463 54.3085 13.264 54.2986 13.3851C54.2656 13.6861 54.1829 13.9577 54.0506 14.2031C53.9481 14.3863 53.8192 14.5564 53.6571 14.7167C53.548 14.8247 53.4356 14.9163 53.3199 14.9948C53.3166 14.9948 53.3099 15.0014 53.3066 15.0047C53.2637 15.0341 53.2207 15.057 53.1777 15.0832C53.1578 15.0963 53.1347 15.1094 53.1149 15.1192C53.0686 15.1421 53.0223 15.165 52.976 15.1846C52.9594 15.1912 52.9429 15.201 52.9231 15.2075C52.728 15.2893 52.5197 15.3384 52.3014 15.358C52.3014 15.358 52.2981 15.358 52.2948 15.358C52.2618 15.358 52.2254 15.358 52.189 15.3613C52.07 15.3646 51.9509 15.3613 51.8286 15.3515C51.5376 15.3188 51.2665 15.2402 51.0185 15.1094C50.9094 15.0537 50.8135 14.9883 50.7176 14.9163C50.6713 14.8803 50.625 14.8411 50.5787 14.8018C50.5357 14.7658 50.496 14.7233 50.4564 14.684C50.2646 14.4877 50.1125 14.2685 50.0034 14.0264C49.9405 13.889 49.8942 13.745 49.8645 13.601C49.8182 13.3786 49.6264 13.215 49.3982 13.2215L48.3964 13.2477C48.1186 13.2542 47.9037 13.4996 47.9467 13.7712C47.9996 14.118 48.0988 14.455 48.2409 14.7789C48.4526 15.2664 48.7435 15.695 49.1205 16.0647C49.5074 16.4475 49.9571 16.7453 50.4663 16.9547C50.9755 17.1673 51.5112 17.272 52.0667 17.272C52.1758 17.272 52.2849 17.2655 52.394 17.2557C52.4072 17.2557 52.4205 17.2557 52.4337 17.2557C52.566 17.2459 52.6949 17.2262 52.8239 17.2033C52.8239 17.2033 52.8305 17.2033 52.8338 17.2033C52.9495 17.1804 53.0653 17.1543 53.1777 17.1215C53.1975 17.115 53.2141 17.115 53.2306 17.1085C53.2306 17.1085 53.2372 17.1085 53.2405 17.1085C53.3099 17.0888 53.3794 17.0626 53.4488 17.0365C53.5183 17.0136 53.591 16.9907 53.6571 16.9612C53.6571 16.9612 53.6638 16.9612 53.6671 16.958C53.6836 16.9514 53.7001 16.9416 53.7167 16.935C53.8258 16.8892 53.9349 16.8402 54.0407 16.7845C54.1597 16.7224 54.2722 16.6537 54.3846 16.5784C54.3912 16.5751 54.3945 16.5719 54.4011 16.5686C54.497 16.5064 54.5896 16.441 54.6789 16.369C55.0128 16.104 55.2972 15.7932 55.532 15.4464C55.5452 15.4267 55.5584 15.4038 55.5717 15.3809C55.6246 15.2991 55.6775 15.2173 55.7238 15.1323C55.7271 15.1257 55.7304 15.1192 55.7337 15.1126C55.7667 15.0537 55.7932 14.9948 55.8196 14.936C55.8494 14.8738 55.8825 14.8149 55.9089 14.7527" fill="#00246B"/>
<path d="M31.1061 15.6524C31.1061 15.4529 30.9705 15.2794 30.7787 15.2173C30.5043 15.1289 30.2563 14.9752 30.0347 14.7527C29.6545 14.383 29.4627 13.9413 29.4627 13.421V9.4981C29.4627 9.24617 29.2544 9.04004 28.9998 9.04004H27.9251C27.6705 9.04004 27.4622 9.24617 27.4622 9.4981V13.421C27.4622 13.9314 27.5614 14.4255 27.7598 14.8999C27.9582 15.3743 28.2426 15.7931 28.6162 16.153C28.9799 16.5227 29.4032 16.8041 29.8826 17.0004C30.0976 17.0888 30.3158 17.1542 30.5373 17.2033C30.8283 17.2655 31.1061 17.0495 31.1061 16.755V15.6524Z" fill="#00246B"/>
<path d="M33.7712 9.03662C33.5166 9.03662 33.3083 9.24275 33.3083 9.49468V13.4176C33.3083 13.9346 33.1165 14.3795 32.7363 14.7493C32.5147 14.9717 32.2667 15.1255 31.9923 15.2139C31.8005 15.276 31.6649 15.4494 31.6649 15.649V16.7516C31.6649 17.0461 31.9427 17.262 32.2337 17.1999C32.4552 17.1541 32.6734 17.0854 32.8884 16.997C33.3678 16.8007 33.7944 16.5193 34.1614 16.1562C34.5317 15.7897 34.8128 15.3709 35.0112 14.8965C35.2096 14.4221 35.3088 13.928 35.3088 13.4176V9.49468C35.3088 9.24275 35.1005 9.03662 34.8459 9.03662H33.7712Z" fill="#00246B"/>
<path d="M71.7507 9.03696H71.7375C71.5424 9.03696 71.3672 9.15148 71.2911 9.32816L68.1366 16.6244C68.0011 16.9417 68.2358 17.2918 68.583 17.2918H69.7073C69.9024 17.2918 70.0776 17.1773 70.1537 17.0006L72.1971 12.2794C72.2236 12.2205 72.2368 12.155 72.2368 12.0896V9.51465C72.2368 9.24963 72.0186 9.03369 71.7507 9.03369" fill="#00246B"/>
<path d="M73.2784 9.03662C73.0106 9.03662 72.7924 9.25256 72.7924 9.51758V12.0925C72.7924 12.158 72.8056 12.2201 72.832 12.2823L73.5033 13.8331L74.3597 15.8126L74.8755 17.0068C74.9516 17.1835 75.1268 17.298 75.3219 17.298H76.4461C76.7933 17.298 77.0281 16.9447 76.8925 16.6273L73.7248 9.33109C73.6488 9.15441 73.4735 9.03989 73.2784 9.03989" fill="#00246B"/>
<path d="M21.1103 9.03696C20.9119 9.03696 20.7366 9.15148 20.6572 9.33143L17.5061 16.6146C17.3672 16.9352 17.6053 17.2918 17.9591 17.2918H19.0668C19.2619 17.2918 19.4404 17.1773 19.5198 16.9974L21.5599 12.2794C21.5864 12.2205 21.5996 12.155 21.5996 12.0896V9.5212C21.5996 9.2529 21.3781 9.03369 21.1069 9.03369" fill="#00246B"/>
<path d="M22.6446 9.03662C22.3767 9.03662 22.1585 9.25256 22.1585 9.51758V12.0925C22.1585 12.158 22.1717 12.2201 22.1982 12.2823L22.8694 13.8331L23.7258 15.8126L24.2417 17.0068C24.3177 17.1835 24.493 17.298 24.6881 17.298H25.8123C26.1595 17.298 26.3943 16.9447 26.2587 16.6273L23.091 9.33109C23.0149 9.15441 22.8397 9.03989 22.6446 9.03989" fill="#00246B"/>
<path d="M81.978 10.7351C81.9681 10.6729 81.9516 10.6107 81.9251 10.5616C81.8821 10.4831 81.8226 10.421 81.7466 10.3784C81.6705 10.3326 81.5812 10.313 81.4787 10.313C81.3762 10.313 81.287 10.3359 81.2109 10.3784C81.1315 10.421 81.072 10.4831 81.029 10.5649C81.0026 10.6173 80.9861 10.6729 80.9761 10.7383H81.9813L81.978 10.7351Z" fill="#00246B"/>
<path d="M87.2156 8.896H78.8929C78.4928 8.896 78.1655 9.21664 78.1655 9.6158V9.93971H79.002V9.44567H79.5972V9.93971H80.1097V10.3945H79.5972V11.2223C79.5972 11.3073 79.6204 11.3761 79.6667 11.4219C79.713 11.4677 79.7758 11.4906 79.8551 11.4906C79.951 11.4906 80.0304 11.4644 80.0965 11.4153L80.2585 11.8308C80.199 11.8734 80.123 11.9061 80.037 11.9257C79.951 11.9486 79.8651 11.9584 79.7725 11.9584C79.5311 11.9584 79.3426 11.8963 79.207 11.7752C79.0715 11.6542 79.0053 11.4709 79.0053 11.2288V10.3945H78.1886H78.1688V11.7261C78.1688 12.122 78.4928 12.4459 78.8962 12.4459H87.2189C87.619 12.4459 87.9464 12.1253 87.9464 11.7261V9.6158C87.9464 9.21991 87.6223 8.896 87.2189 8.896M82.5401 10.9965C82.5401 11.026 82.5335 11.0521 82.5335 11.0783H80.9794C80.9926 11.1307 81.0091 11.183 81.0356 11.2288C81.0852 11.3139 81.1546 11.3793 81.2472 11.4219C81.3365 11.4677 81.4456 11.4873 81.5646 11.4873C81.6738 11.4873 81.7697 11.4709 81.8523 11.4382C81.935 11.4055 82.011 11.3564 82.0805 11.291L82.3979 11.6313C82.302 11.736 82.1863 11.8178 82.0441 11.8766C81.9019 11.9323 81.7366 11.9617 81.5514 11.9617C81.3166 11.9617 81.1116 11.9159 80.9331 11.8243C80.7545 11.7327 80.619 11.6084 80.5231 11.4513C80.4272 11.2943 80.3776 11.1143 80.3776 10.9115C80.3776 10.7086 80.4239 10.5254 80.5198 10.3683C80.6157 10.2113 80.7446 10.0869 80.9099 9.99861C81.0753 9.91027 81.2637 9.86446 81.4721 9.86446C81.6804 9.86446 81.8556 9.907 82.0176 9.99206C82.1797 10.0771 82.3086 10.1982 82.4012 10.3552C82.4971 10.5123 82.5434 10.7021 82.5434 10.9213C82.5434 10.9442 82.5434 10.9703 82.5401 10.9998M83.4626 11.2125C83.5089 11.2943 83.575 11.3597 83.6544 11.4055C83.7371 11.4513 83.8264 11.4742 83.9289 11.4742C84.0214 11.4742 84.1107 11.4513 84.1901 11.4088C84.2694 11.3662 84.3389 11.2943 84.3918 11.1961L84.8547 11.4448C84.7786 11.6084 84.6596 11.736 84.4976 11.8243C84.3389 11.9126 84.1471 11.9584 83.9322 11.9584C83.7172 11.9584 83.5122 11.9126 83.3403 11.8243C83.1683 11.736 83.0295 11.6116 82.9336 11.4513C82.8344 11.291 82.7848 11.111 82.7848 10.9115C82.7848 10.7119 82.8344 10.5254 82.9336 10.3683C83.0328 10.2113 83.1683 10.0869 83.3403 9.99861C83.5122 9.91027 83.7106 9.86446 83.9322 9.86446C84.1537 9.86446 84.3389 9.91027 84.4976 9.99861C84.6596 10.0869 84.7753 10.2178 84.8547 10.3814L84.3918 10.6268C84.3389 10.5319 84.2727 10.4599 84.1901 10.4141C84.1107 10.3683 84.0214 10.3454 83.9289 10.3454C83.8264 10.3454 83.7338 10.3683 83.6544 10.4141C83.5717 10.4599 83.5089 10.5221 83.4626 10.6072C83.4163 10.689 83.3932 10.7904 83.3932 10.9082C83.3932 11.026 83.4163 11.1274 83.4626 11.2092M87.2884 11.929H86.6932V10.8558C86.6932 10.6922 86.6568 10.5712 86.584 10.4927C86.5113 10.4141 86.4088 10.3749 86.2765 10.3749C86.1806 10.3749 86.098 10.3945 86.0219 10.4338C85.9459 10.473 85.8897 10.5319 85.8467 10.6137C85.8037 10.6955 85.7838 10.7969 85.7838 10.9245V11.9323H85.1887V9.12502H85.7838V10.1098C85.8368 10.0575 85.8963 10.0117 85.9657 9.9757C86.1046 9.90372 86.26 9.86446 86.4352 9.86446C86.5973 9.86446 86.7428 9.89718 86.8717 9.96262C87.0007 10.0281 87.1032 10.1262 87.1759 10.2571C87.2487 10.388 87.285 10.5581 87.285 10.7642V11.929H87.2884Z" fill="#00246B"/>
<path d="M11.3988 13.2803C12.2916 14.4647 12.2982 16.0973 11.3988 17.2817C10.4994 16.0973 10.506 14.4647 11.3988 13.2803Z" fill="#00246B"/>
<path d="M2.20985 13.2803C3.10263 14.4647 3.10924 16.0973 2.20985 17.2817C1.31045 16.0973 1.31707 14.4647 2.20985 13.2803Z" fill="#00246B"/>
<path d="M12.9298 16.0615C13.7994 16.3396 13.8027 16.9057 12.9298 17.1838C12.0568 16.9057 12.0601 16.3396 12.9298 16.0615Z" fill="#00246B"/>
<path d="M0.678856 16.0615C1.54849 16.3396 1.5518 16.9057 0.678856 17.1838C-0.194084 16.9057 -0.190777 16.3396 0.678856 16.0615Z" fill="#00246B"/>
<path d="M9.86786 8.86328C10.3837 10.2178 10.5126 11.6018 10.5292 13.0185C10.516 14.4352 10.387 15.8192 9.86786 17.1738C9.34873 15.8192 9.21977 14.4352 9.20654 13.0185C9.22308 11.6051 9.35203 10.2178 9.86786 8.86328Z" fill="#00246B"/>
<path d="M3.74072 8.86328C4.25655 10.2178 4.38551 11.6018 4.40204 13.0185C4.38882 14.4352 4.25986 15.8192 3.74072 17.1738C3.22159 15.8192 3.09263 14.4352 3.07941 13.0185C3.09594 11.6051 3.2249 10.2178 3.74072 8.86328Z" fill="#00246B"/>
<path d="M8.33698 5.66699C8.85611 7.56139 8.98176 9.48196 8.9983 11.4222C8.98507 13.3624 8.85942 15.2797 8.33698 17.1773C7.81454 15.2829 7.68889 13.3624 7.67566 11.4222C7.69219 9.48196 7.81784 7.56466 8.33698 5.66699Z" fill="#00246B"/>
<path d="M5.27167 5.66699C5.7908 7.56139 5.91645 9.48196 5.93299 11.4222C5.91976 13.3624 5.79411 15.2797 5.27167 17.1773C4.74923 15.2829 4.62358 13.3624 4.61035 11.4222C4.62688 9.48196 4.75253 7.56466 5.27167 5.66699Z" fill="#00246B"/>
<path d="M6.80603 4.50195C7.32847 6.59593 7.45082 8.71282 7.46735 10.8461C7.45412 12.9793 7.32847 15.0962 6.80603 17.1902C6.28359 15.0962 6.15794 12.9826 6.14471 10.8461C6.16125 8.71282 6.28359 6.59593 6.80603 4.50195Z" fill="#00246B"/>
</g>
</g>
<defs>
<clipPath id="clip0_1609_703">
<rect width="88" height="22.88" fill="white"/>
</clipPath>
</defs>
</svg>
