<svg width="42" height="22" viewBox="0 0 42 22" fill="none" xmlns="http://www.w3.org/2000/svg">
<g clip-path="url(#clip0_1609_914)">
<path d="M2.62802 20.1488L3.49348 20.2011C3.45188 20.5839 3.31207 20.8789 3.07407 21.0829C2.83606 21.287 2.54314 21.3898 2.19362 21.3898C1.77421 21.3898 1.43634 21.2482 1.17837 20.9683C0.920392 20.6867 0.792236 20.3006 0.792236 19.8049C0.792236 19.3092 0.913734 18.9197 1.15839 18.6179C1.40305 18.3161 1.74258 18.166 2.18031 18.166C2.58808 18.166 2.90264 18.2807 3.12233 18.51C3.34203 18.7393 3.46519 19.0428 3.49348 19.4221L2.60971 19.4694C2.60971 19.2603 2.56977 19.1102 2.49154 19.0158C2.41165 18.9231 2.31845 18.8759 2.21193 18.8759C1.91401 18.8759 1.76422 19.1794 1.76422 19.788C1.76422 20.1286 1.8025 20.3596 1.88072 20.481C1.95728 20.6041 2.06713 20.6648 2.20694 20.6648C2.45659 20.6648 2.59806 20.4928 2.62802 20.1472V20.1488ZM4.42053 21.3426V18.2166H6.97199V21.3426H6.0516V18.886H5.33925V21.3426H4.41887H4.42053ZM10.4089 20.5957V21.3426H8.0871V18.2166H10.4089V18.9382H9.01581V19.3918H10.1426V20.0865H9.01581V20.5973H10.4089V20.5957ZM11.3659 21.3426V18.2166H12.2863V20.6058H12.9503V18.2166H13.8707V20.6058H14.2319V22.0002H13.6361L13.5595 21.3426H11.3675H11.3659ZM15.0191 21.3426V18.2166H17.5723V21.3426H16.6519V18.886H15.9395V21.3426H15.0191ZM20.0205 21.3898C19.5861 21.3898 19.2316 21.2431 18.9587 20.9514C18.6841 20.6597 18.5476 20.2702 18.5476 19.7813C18.5476 19.2923 18.6774 18.9281 18.9404 18.6229C19.2017 18.3178 19.5645 18.166 20.0289 18.166C20.4583 18.166 20.8078 18.3093 21.0791 18.596C21.3487 18.8826 21.4852 19.267 21.4852 19.7459C21.4852 20.2247 21.3487 20.6395 21.0757 20.9396C20.8028 21.2397 20.4516 21.3898 20.0205 21.3898ZM20.0155 20.68C20.1753 20.68 20.2902 20.6091 20.3601 20.4675C20.43 20.3276 20.4649 20.0679 20.4649 19.6919C20.4649 19.1473 20.3218 18.8759 20.0338 18.8759C19.7226 18.8759 19.5678 19.1861 19.5678 19.8049C19.5678 20.3866 19.7176 20.6783 20.0155 20.6783V20.68ZM24.1631 20.1488L25.0302 20.2011C24.9886 20.5839 24.8488 20.8789 24.6108 21.0829C24.3728 21.287 24.0782 21.3898 23.7304 21.3898C23.311 21.3898 22.9731 21.2482 22.7151 20.9683C22.4571 20.6867 22.329 20.3006 22.329 19.8049C22.329 19.3092 22.4505 18.9197 22.6951 18.6179C22.9381 18.3161 23.2793 18.166 23.7171 18.166C24.1248 18.166 24.4394 18.2807 24.6591 18.51C24.8788 18.7393 25.0019 19.0428 25.0319 19.4221L24.1481 19.4694C24.1481 19.2603 24.1082 19.1102 24.03 19.0158C23.9501 18.9231 23.8569 18.8759 23.7503 18.8759C23.4524 18.8759 23.3026 19.1794 23.3026 19.788C23.3026 20.1286 23.3409 20.3596 23.4191 20.481C23.4957 20.6041 23.6056 20.6648 23.7454 20.6648C23.995 20.6648 24.1365 20.4928 24.1664 20.1472L24.1631 20.1488ZM27.2755 18.9652V21.3426H26.3784V18.9652H25.7393V18.2166H27.9162V18.9652H27.2755ZM30.3329 21.3426L30.1581 20.7272H29.3309L29.1462 21.3426H28.3773L29.3309 18.2166H30.3329L31.2982 21.3426H30.3329ZM29.4907 20.0426H29.9917L29.7404 19.1355L29.489 20.0426H29.4907ZM32.162 21.3426V18.2166H33.7282C34.0544 18.2166 34.2907 18.2992 34.4405 18.4661C34.5886 18.6331 34.6652 18.8236 34.6652 19.0377C34.6652 19.1928 34.6219 19.3345 34.5337 19.4592C34.4472 19.5857 34.319 19.6717 34.1459 19.7189C34.5454 19.8167 34.7451 20.0595 34.7451 20.4473C34.7451 20.68 34.6752 20.8874 34.5337 21.0694C34.3939 21.2515 34.0927 21.3426 33.63 21.3426H32.1603H32.162ZM33.0341 19.4137H33.4718C33.5817 19.4137 33.6599 19.3851 33.7049 19.3294C33.7498 19.2738 33.7731 19.2114 33.7731 19.1473C33.7731 18.9736 33.6666 18.886 33.4552 18.886H33.0325V19.412L33.0341 19.4137ZM33.0341 20.6446H33.4951C33.61 20.6446 33.6932 20.6159 33.7481 20.5586C33.8014 20.5012 33.828 20.4372 33.828 20.3647C33.828 20.2922 33.8014 20.2264 33.7498 20.1674C33.6982 20.1067 33.6033 20.0763 33.4635 20.0763H33.0341V20.6446ZM38.4982 21.3426H37.4596L36.9254 20.1607L36.6058 20.621V21.3426H35.7137V18.2166H36.6058V19.5081L37.458 18.2166H38.3085L37.5279 19.3598L38.4949 21.3443L38.4982 21.3426ZM41.0347 21.3426L40.8599 20.7272H40.0327L39.848 21.3426H39.0791L40.0327 18.2166H41.0347L42 21.3426H41.0347ZM40.1925 20.0426H40.6935L40.4422 19.1355L40.1908 20.0426H40.1925Z" fill="#1D2362"/>
<path d="M36.7889 0.477051C32.9725 0.477051 29.8402 3.57776 29.7187 7.41528H30.5126C30.6275 6.83358 31.1334 6.39688 31.7409 6.39688C32.3484 6.39688 32.8544 6.83527 32.9692 7.41528H33.8047C34.0327 5.3296 35.7903 3.6941 37.9073 3.6941H41.7487V0.477051H36.7906H36.7889Z" fill="#006DB1"/>
<path d="M33.7798 7.91602H32.9692C32.8544 8.49771 32.3484 8.93441 31.7409 8.93441C31.1334 8.93441 30.6275 8.49603 30.5126 7.91602H29.7121V8.12509C29.7121 12.0688 32.896 15.2943 36.7889 15.2943H41.747V12.0587H37.9057C35.6488 12.0587 33.7997 10.199 33.7781 7.91602H33.7798Z" fill="#1D2362"/>
<path d="M27.9479 7.91624C27.833 8.49794 27.3271 8.93463 26.7196 8.93463C26.1121 8.93463 25.6061 8.49625 25.4913 7.91624H18.3362V9.46237H24.4311C23.8103 10.9815 22.3307 12.0573 20.6147 12.0573H16.7734V15.2928H21.7315C25.6244 15.2928 28.8083 12.0674 28.8083 8.12363V7.91455H27.9462L27.9479 7.91624Z" fill="#1D2362"/>
<path d="M24.2065 5.82388H18.3363V7.41723H25.4913C25.6062 6.83553 26.1121 6.39884 26.7196 6.39884C27.3271 6.39884 27.8331 6.83722 27.9479 7.41723H28.8034C28.6819 3.57971 25.5479 0.479004 21.7332 0.479004H16.7751V3.69605H20.6164C22.151 3.69605 23.4974 4.55595 24.2081 5.82388H24.2065Z" fill="#006DB1"/>
<path d="M0.775594 7.41708C0.890435 6.83538 1.3964 6.39868 2.00389 6.39868C2.61138 6.39868 3.11734 6.83706 3.23218 7.41708H4.07435C4.28239 5.15435 5.97338 3.37554 8.01055 3.37554H8.45493C10.4921 3.37554 12.1831 5.15435 12.3911 7.41708H13.0918C13.2067 6.83538 13.7126 6.39868 14.3201 6.39868C14.9276 6.39868 15.4336 6.83706 15.5484 7.41708H16.4289C16.1859 3.29629 12.7856 0 8.65964 0H7.78419C3.65826 0 0.256316 3.29629 0.0149841 7.41708H0.777259H0.775594Z" fill="#006DB1"/>
<path d="M15.5484 7.91602C15.4336 8.49771 14.9276 8.93441 14.3201 8.93441C13.7126 8.93441 13.2067 8.49603 13.0918 7.91602H12.4111C12.3961 10.3828 10.6219 12.3976 8.45326 12.3976H8.00887C5.84022 12.3976 4.06602 10.3844 4.05104 7.91602H3.23051C3.11567 8.49771 2.60971 8.93441 2.00222 8.93441C1.39473 8.93441 0.888765 8.49603 0.773925 7.91602H0C0.0166435 12.2391 3.51179 15.7715 7.78419 15.7715H8.65964C12.9304 15.7715 16.4272 12.2391 16.4438 7.91602H15.5484Z" fill="#1D2362"/>
</g>
<defs>
<clipPath id="clip0_1609_914">
<rect width="42" height="22" fill="white"/>
</clipPath>
</defs>
</svg>
