<svg width="374" height="78" viewBox="0 0 374 78" fill="none" xmlns="http://www.w3.org/2000/svg">
<g clip-path="url(#clip0_1629_10618)">
<path d="M34.6392 4.58887V58.1251H-3.05176e-05V40.0627C-3.05176e-05 20.485 15.5221 4.58887 34.6392 4.58887Z" fill="#D33021"/>
<path d="M75.5546 4.58887V58.1251H40.9154V40.0627C40.9253 20.485 56.4375 4.58887 75.5546 4.58887Z" fill="#D33021"/>
<path d="M116.48 4.58887V58.1251H81.8411V40.0627C81.8411 20.485 97.3632 4.58887 116.48 4.58887Z" fill="#D33021"/>
<path d="M261.75 21.8379C251.909 21.8379 244.103 29.8317 244.103 40.2562C244.103 50.6807 251.909 58.6745 261.75 58.6745C275.326 58.6745 279.05 47.2127 279.05 47.2127H271.582C271.582 47.2127 268.871 52.074 261.74 52.074C256.656 52.074 252.236 48.5958 251.223 42.6971H279.388V40.2664C279.388 29.8419 271.582 21.8481 261.74 21.8481L261.75 21.8379ZM251.571 36.778C252.594 31.5708 257.003 28.4384 261.75 28.4384C267.858 28.4384 271.254 32.6082 271.929 36.778H251.571Z" fill="white"/>
<path d="M343.81 23.1279V29.7284H355.34V58.5713H362.47V29.7284H374V23.1279H343.81Z" fill="white"/>
<path d="M178.738 13.1729H159.084C146.829 13.1729 136.859 23.3838 136.859 35.9339C136.859 48.484 146.829 58.6949 159.084 58.6949H178.738C190.992 58.6949 200.963 48.484 200.963 35.9339C200.963 23.3838 190.992 13.1729 178.738 13.1729ZM164.864 50.9452H159.094C151.01 50.9452 144.436 44.2125 144.436 35.9339C144.436 27.6553 151.01 20.9226 159.094 20.9226H164.864V50.9452ZM178.738 50.9452H172.968V20.9226H178.738C186.821 20.9226 193.396 27.6553 193.396 35.9339C193.396 44.2125 186.821 50.9452 178.738 50.9452Z" fill="white"/>
<path d="M222.831 23.1488H213.555V23.1387H206.435V37.9771V30.0239V57.3717V68.8438H213.555V57.3717H223.238C232.662 57.3717 240.289 49.3372 239.932 39.6043C239.594 30.3494 231.878 23.159 222.831 23.159V23.1488ZM223.238 49.9881H213.625V30.5121H223.238C228.482 30.5121 232.742 34.8751 232.742 40.245C232.742 45.6149 228.482 49.978 223.238 49.978V49.9881Z" fill="white"/>
<path d="M284.015 36.5736V58.5718H291.215V36.5736C291.215 33.2377 293.867 30.5121 297.124 30.5121H307.363V23.1387H297.124C289.894 23.1387 284.015 29.1595 284.015 36.5634V36.5736Z" fill="white"/>
<path d="M326.113 21.3789C316.152 21.3789 308.058 29.6778 308.058 39.8684C308.058 50.059 316.162 58.3579 326.113 58.3579H342.191V37.8445C342.191 28.7625 334.981 21.3789 326.113 21.3789ZM334.991 50.9845H326.103C320.115 50.9845 315.238 45.9909 315.238 39.8583C315.238 33.7256 320.115 28.732 326.103 28.732C330.999 28.732 334.991 32.8103 334.991 37.8344V50.9743V50.9845Z" fill="white"/>
</g>
<defs>
<clipPath id="clip0_1629_10618">
<rect width="374" height="78" fill="white"/>
</clipPath>
</defs>
</svg>
