<svg width="135" height="28" viewBox="0 0 135 28" fill="none" xmlns="http://www.w3.org/2000/svg">
<g clip-path="url(#clip0_1453_1028)">
<path d="M12.7441 1.62561V20.589H0.333252V14.191C0.333252 7.25627 5.89464 1.62561 12.7441 1.62561Z" fill="#D33021"/>
<path d="M27.4036 1.62561V20.589H14.9928V14.191C14.9964 7.25627 20.5542 1.62561 27.4036 1.62561Z" fill="#D33021"/>
<path d="M42.0668 1.62561V20.589H29.656V14.191C29.656 7.25627 35.2174 1.62561 42.0668 1.62561Z" fill="#D33021"/>
<path d="M94.1154 7.73541C90.5893 7.73541 87.7926 10.567 87.7926 14.2595C87.7926 17.952 90.5893 20.7836 94.1154 20.7836C98.9794 20.7836 100.314 16.7236 100.314 16.7236H97.638C97.638 16.7236 96.6666 18.4455 94.1119 18.4455C92.2901 18.4455 90.7067 17.2135 90.3438 15.1241H100.435V14.2631C100.435 10.5706 97.638 7.73902 94.1119 7.73902L94.1154 7.73541ZM90.4683 13.0274C90.8348 11.183 92.4146 10.0734 94.1154 10.0734C96.3037 10.0734 97.5206 11.5504 97.7625 13.0274H90.4683Z" fill="black"/>
<path d="M123.516 8.19263V10.5306H127.647V20.7472H130.202V10.5306H134.333V8.19263H123.516Z" fill="black"/>
<path d="M64.3729 4.66602H57.3313C52.9406 4.66602 49.3682 8.28289 49.3682 12.7283C49.3682 17.1738 52.9406 20.7907 57.3313 20.7907H64.3729C68.7636 20.7907 72.336 17.1738 72.336 12.7283C72.336 8.28289 68.7636 4.66602 64.3729 4.66602ZM59.4022 18.0456H57.3349C54.4385 18.0456 52.083 15.6607 52.083 12.7283C52.083 9.79593 54.4385 7.4111 57.3349 7.4111H59.4022V18.0456ZM64.3729 18.0456H62.3056V7.4111H64.3729C67.2692 7.4111 69.6247 9.79593 69.6247 12.7283C69.6247 15.6607 67.2692 18.0456 64.3729 18.0456Z" fill="black"/>
<path d="M80.171 8.19995H76.8477V8.19635H74.2965V13.4524V10.6352V20.3223V24.3858H76.8477V20.3223H80.3169C83.6936 20.3223 86.4263 17.4763 86.2982 14.0287C86.1772 10.7505 83.4125 8.20356 80.171 8.20356V8.19995ZM80.3169 17.7069H76.8726V10.8081H80.3169C82.1956 10.8081 83.7221 12.3536 83.7221 14.2557C83.7221 16.1578 82.1956 17.7033 80.3169 17.7033V17.7069Z" fill="black"/>
<path d="M102.093 12.9552V20.7473H104.672V12.9552C104.672 11.7736 105.622 10.8081 106.79 10.8081H110.458V8.19635H106.79C104.199 8.19635 102.093 10.329 102.093 12.9516V12.9552Z" fill="black"/>
<path d="M117.176 7.57312C113.607 7.57312 110.707 10.5127 110.707 14.1224C110.707 17.7321 113.611 20.6717 117.176 20.6717H122.937V13.4055C122.937 10.1885 120.353 7.57312 117.176 7.57312ZM120.357 18.0599H117.172C115.027 18.0599 113.28 16.2911 113.28 14.1188C113.28 11.9465 115.027 10.1777 117.172 10.1777C118.926 10.1777 120.357 11.6223 120.357 13.4019V18.0563V18.0599Z" fill="black"/>
</g>
<defs>
<clipPath id="clip0_1453_1028">
<rect width="134" height="27.6289" fill="white" transform="translate(0.333252 0.00012207)"/>
</clipPath>
</defs>
</svg>
