<svg width="134" height="28" viewBox="0 0 134 28" fill="none" xmlns="http://www.w3.org/2000/svg">
<path d="M12.4108 1.62549V20.5889H0V14.1909C0 7.25615 5.56139 1.62549 12.4108 1.62549Z" fill="white"/>
<path d="M27.0704 1.62549V20.5889H14.6596V14.1909C14.6631 7.25615 20.221 1.62549 27.0704 1.62549Z" fill="white"/>
<path d="M41.7336 1.62549V20.5889H29.3228V14.1909C29.3228 7.25615 34.8841 1.62549 41.7336 1.62549Z" fill="white"/>
<path d="M93.7822 7.73535C90.2561 7.73535 87.4594 10.5669 87.4594 14.2594C87.4594 17.9519 90.2561 20.7835 93.7822 20.7835C98.6462 20.7835 99.9805 16.7235 99.9805 16.7235H97.3048C97.3048 16.7235 96.3334 18.4455 93.7786 18.4455C91.9569 18.4455 90.3735 17.2134 90.0105 15.124H100.101V14.263C100.101 10.5705 97.3048 7.73895 93.7786 7.73895L93.7822 7.73535ZM90.1351 13.0274C90.5016 11.1829 92.0814 10.0734 93.7822 10.0734C95.9705 10.0734 97.1873 11.5504 97.4293 13.0274H90.1351Z" fill="white"/>
<path d="M123.183 8.1925V10.5305H127.314V20.7471H129.869V10.5305H134V8.1925H123.183Z" fill="white"/>
<path d="M64.0396 4.66589H56.998C52.6073 4.66589 49.0349 8.28277 49.0349 12.7282C49.0349 17.1737 52.6073 20.7905 56.998 20.7905H64.0396C68.4304 20.7905 72.0028 17.1737 72.0028 12.7282C72.0028 8.28277 68.4304 4.66589 64.0396 4.66589ZM59.0689 18.0455H57.0016C54.1052 18.0455 51.7498 15.6606 51.7498 12.7282C51.7498 9.79581 54.1052 7.41097 57.0016 7.41097H59.0689V18.0455ZM64.0396 18.0455H61.9723V7.41097H64.0396C66.9359 7.41097 69.2914 9.79581 69.2914 12.7282C69.2914 15.6606 66.9359 18.0455 64.0396 18.0455Z" fill="white"/>
<path d="M79.8378 8.19977H76.5145V8.19617H73.9633V13.4522V10.635V20.3221V24.3857H76.5145V20.3221H79.9837C83.3604 20.3221 86.093 17.4761 85.9649 14.0286C85.844 10.7503 83.0793 8.20337 79.8378 8.20337V8.19977ZM79.9837 17.7067H76.5394V10.808H79.9837C81.8624 10.808 83.3888 12.3534 83.3888 14.2555C83.3888 16.1576 81.8624 17.7031 79.9837 17.7031V17.7067Z" fill="white"/>
<path d="M101.76 12.955V20.7472H104.339V12.955C104.339 11.7734 105.289 10.808 106.456 10.808H110.125V8.19617H106.456C103.866 8.19617 101.76 10.3288 101.76 12.9514V12.955Z" fill="white"/>
<path d="M116.843 7.573C113.274 7.573 110.374 10.5126 110.374 14.1223C110.374 17.732 113.277 20.6716 116.843 20.6716H122.603V13.4054C122.603 10.1884 120.02 7.573 116.843 7.573ZM120.024 18.0598H116.839C114.693 18.0598 112.946 16.291 112.946 14.1187C112.946 11.9464 114.693 10.1776 116.839 10.1776C118.593 10.1776 120.024 11.6222 120.024 13.4018V18.0562V18.0598Z" fill="white"/>
</svg>
