<svg width="140" height="34" viewBox="0 0 140 34" fill="none" xmlns="http://www.w3.org/2000/svg">
<g clip-path="url(#clip0_1453_2457)">
<path d="M53.32 23.122H50.4632V18.3301H44.9291L46.1796 15.4913H50.4632V10.7028H53.32V23.122Z" fill="black"/>
<path d="M44.5698 23.122H41.7129V10.7028H44.5698V23.122Z" fill="black"/>
<path d="M64.889 12.5221C63.6696 11.3104 62.1945 10.7028 60.4707 10.7028C58.7469 10.7028 57.2719 11.3104 56.0524 12.5221C54.833 13.7338 54.2216 15.1995 54.2216 16.9124C54.2216 18.6253 54.833 20.091 56.0524 21.3027C57.2719 22.5144 58.7469 23.122 60.4707 23.122C62.1945 23.122 63.6696 22.5144 64.889 21.3027C66.1084 20.091 66.7199 18.6253 66.7199 16.9124C66.7199 15.1995 66.1084 13.7338 64.889 12.5221ZM62.8716 19.2981C62.2118 19.9537 61.4103 20.2832 60.4707 20.2832C59.5311 20.2832 58.7435 19.9537 58.0768 19.2981C57.41 18.6424 57.0784 17.8461 57.0784 16.9124C57.0784 15.9787 57.41 15.1824 58.0768 14.5267C58.7435 13.8711 59.5415 13.5416 60.4707 13.5416C61.4 13.5416 62.2118 13.8711 62.8716 14.5267C63.5314 15.1824 63.863 15.9787 63.863 16.9124C63.863 17.8461 63.5314 18.6424 62.8716 19.2981Z" fill="black"/>
<path d="M79.2287 14.5164C79.2287 15.5703 78.8521 16.4696 78.1025 17.2145C77.3529 17.9594 76.4478 18.3335 75.3873 18.3335H70.8343L72.0848 15.4947H75.3873C75.6602 15.4947 75.8916 15.3986 76.0851 15.2098C76.2751 15.021 76.3718 14.7911 76.3718 14.5164C76.3718 14.2418 76.2751 14.0153 76.0851 13.8231C75.8951 13.6308 75.6636 13.5382 75.3873 13.5382H70.4784V23.1186H67.6216V10.7028H75.3873C76.4478 10.7028 77.3494 11.077 78.1025 11.8219C78.8521 12.5667 79.2287 13.4661 79.2287 14.5199V14.5164Z" fill="black"/>
<path d="M89.8823 20.2832L85.616 10.7028H83.2946L79.0283 20.2832H77.7605V23.122H91.1501V20.2832H89.8823ZM82.241 20.2832L84.4553 15.3162L86.6696 20.2832H82.241Z" fill="black"/>
<path d="M102.042 23.122L98.5602 15.3162L95.078 23.122H91.8654L97.3995 10.7028H99.7209L105.255 23.122H102.042Z" fill="black"/>
<path d="M118.161 10.7028H121.018V17.7465L126.911 10.7028H129.768V23.122H126.911V16.0783L121.018 23.122H118.161V10.7028Z" fill="black"/>
<path d="M127.885 9.38834V7.19147H122.617L121.225 9.38834H127.885Z" fill="black"/>
<path d="M131.25 13.5416V10.7028H136.159C137.219 10.7028 138.121 11.077 138.874 11.8219C139.624 12.5667 140 13.4661 140 14.5199C140 15.2785 139.655 16.0749 138.964 16.9158C139.655 17.7568 140 18.5532 140 19.3118C140 20.3656 139.624 21.265 138.874 22.0098C138.124 22.7547 137.219 23.1289 136.159 23.1289H131.25V20.2901H136.159C136.432 20.2901 136.663 20.194 136.857 20.0052C137.047 19.8164 137.143 19.5864 137.143 19.3118C137.143 19.0372 137.047 18.8106 136.857 18.6184C136.667 18.4296 136.435 18.3335 136.159 18.3335H131.606L132.856 15.4947H136.159C136.432 15.4947 136.663 15.3986 136.857 15.2098C137.047 15.021 137.143 14.7911 137.143 14.5164C137.143 14.2418 137.047 14.0153 136.857 13.8231C136.667 13.6343 136.435 13.5382 136.159 13.5382H131.25V13.5416Z" fill="black"/>
<mask id="mask0_1453_2457" style="mask-type:luminance" maskUnits="userSpaceOnUse" x="0" y="0" width="35" height="34">
<path d="M19.2242 19.1779C21.2313 18.8964 34.044 17.5714 34.7383 17.2899L19.6629 14.8184C19.4833 14.6262 19.6457 14.8905 19.5386 14.5919L19.1586 11.1902C18.782 7.55504 18.2777 3.54575 17.9944 0.0032959C17.7561 0.0616503 17.3795 0.301933 17.2033 0.459833C16.9235 0.713846 16.9823 0.833987 16.9201 1.33515C16.623 3.68992 15.0857 15.172 14.8647 15.632L0 17.6332C0.276359 17.7979 0.583808 17.7945 0.94653 17.8288L7.65514 18.5085C10.1838 18.7625 12.6987 19.02 15.2343 19.2808L17.8562 33.9964L19.2277 19.1744L19.2242 19.1779Z" fill="white"/>
</mask>
<g mask="url(#mask0_1453_2457)">
<path fill-rule="evenodd" clip-rule="evenodd" d="M-0.883858 18.45L-0.846173 18.4812L-0.846436 18.4815L-0.597712 18.6874L-0.597011 18.6866L-0.431697 18.8212L-0.431639 18.8211L-0.348877 18.8897L-0.347879 18.8905L-0.185851 19.0266L-0.186523 19.0274L0.0621996 19.2333L0.0624963 19.233L0.145364 19.3016L0.145203 19.3018L0.316095 19.4433L0.556243 19.6449L0.557226 19.6438L0.639772 19.7131L0.639099 19.7139L0.887822 19.9198L0.888111 19.9195L0.970986 19.9881L0.970825 19.9883L1.13654 20.1255L1.13732 20.1262L1.29932 20.2622L1.29889 20.2627L1.33324 20.2907L1.3818 20.3315L1.38242 20.3307L1.54761 20.4653L1.54764 20.4652L1.63072 20.534L1.63055 20.5342L1.87928 20.7402L1.87955 20.7398L1.96235 20.8084L1.96216 20.8086L2.12494 20.9453L2.12451 20.9458L2.19967 21.0081L2.20743 21.0146L2.20747 21.0145L2.37323 21.1518L2.37329 21.1517L2.45636 21.2205L2.45618 21.2207L2.62712 21.3623L2.86722 21.5639L2.86824 21.5627L2.95063 21.6318L2.9502 21.6324L3.02537 21.6946L3.03311 21.7011L3.03316 21.7011L3.19892 21.8383L3.19895 21.8383L3.36469 21.9755L3.36534 21.9747L3.47576 22.0647L3.6929 22.247L3.6942 22.2454L3.77682 22.3148L3.77588 22.3159L4.0246 22.5219L4.02485 22.5216L4.10757 22.5901L4.10736 22.5903L4.2914 22.7427L4.43607 22.8642L4.43561 22.8648L4.51517 22.9306L4.51858 22.9335L4.5186 22.9335L4.68433 23.0707L4.68436 23.0707L4.8501 23.2079L4.85012 23.2079L5.01587 23.3451L5.01598 23.345L5.09912 23.4139L5.09894 23.4141L5.26282 23.5494L5.26123 23.5513L5.50995 23.7538L5.51025 23.7535L5.59329 23.8222L5.59283 23.8228L5.76817 23.968L6.00394 24.1659L6.00497 24.1647L6.08731 24.2338L6.08685 24.2344L6.16598 24.2999L6.16983 24.3031L6.16985 24.3031L6.33558 24.4403L6.3356 24.4403L6.50135 24.5776L6.5014 24.5775L6.58451 24.6463L6.58435 24.6465L6.7469 24.783L6.7467 24.7832L6.78116 24.8118L6.82962 24.8525L6.8299 24.8521L6.91262 24.9206L6.91235 24.9209L7.16108 25.1269L7.16178 25.1261L7.24525 25.194L7.24414 25.1953L7.43804 25.3532L7.5727 25.4663L7.57227 25.4668L7.64737 25.529L7.65518 25.5356L7.65522 25.5355L7.82099 25.6728L7.82102 25.6727L7.98676 25.81L7.98684 25.8099L8.07449 25.8825L8.31497 26.0844L8.31598 26.0832L8.39856 26.1525L8.39789 26.1533L8.64661 26.3593L8.64664 26.3593L8.81238 26.4965L8.81246 26.4964L8.90044 26.5693L9.14059 26.7709L9.14216 26.7691L9.22549 26.8379L9.22339 26.8404L9.47211 27.0429L9.47246 27.0425L9.63807 27.1796L9.6381 27.1796L9.7211 27.2483L9.72089 27.2486L9.88371 27.3853L9.8833 27.3858L9.95409 27.4444L9.96616 27.4545L9.96622 27.4544L10.132 27.5917L10.1321 27.5916L10.2979 27.7289L10.2979 27.7289L10.4637 27.8661L10.4637 27.8661L10.5636 27.9488L10.7095 28.0713L10.709 28.0718L10.7841 28.134L10.792 28.1406L10.792 28.1405L10.875 28.2092L10.8748 28.2095L11.0408 28.347L11.0406 28.3472L11.0643 28.3665L11.1235 28.4155L11.1239 28.415L11.2729 28.5363L11.4517 28.6864L11.4525 28.6855L11.535 28.7549L11.5346 28.7554L11.6096 28.8175L11.6175 28.8241L11.6176 28.8241L11.7833 28.9613L11.7834 28.9613L11.9491 29.0986L11.9491 29.0985L12.0459 29.1786L12.1948 29.3037L12.1944 29.3042L12.2695 29.3664L12.2773 29.373L12.2774 29.3729L12.4431 29.5102L12.4432 29.5101L12.6089 29.6474L12.6089 29.6474L12.692 29.7162L12.6918 29.7163L12.8672 29.8616L13.0205 29.9902L13.02 29.9908L13.0544 30.0188L13.1029 30.0595L13.1036 30.0588L13.2687 30.1933L13.4345 30.3305L13.4346 30.3304L13.5176 30.3992L13.5174 30.3994L13.7627 30.6054L13.7637 30.6042L13.8464 30.6736L13.8457 30.6743L14.0944 30.8803L14.0947 30.88L14.1774 30.9485L14.1772 30.9487L14.343 31.086L14.3486 31.0906L14.5883 31.2919L14.5893 31.2908L14.6719 31.3602L14.6713 31.3609L14.92 31.5668L14.9209 31.5658L15.0043 31.6337L15.0029 31.6353L15.216 31.8088L15.3315 31.9058L15.3311 31.9063L15.406 31.9683L15.414 31.975L15.414 31.975L15.5798 32.1122L15.5798 32.1122L15.6629 32.181L15.6628 32.1812L15.8711 32.3537L16.0738 32.5238L16.0745 32.5229L16.1571 32.5923L16.1567 32.5928L16.2315 32.6548L16.2396 32.6615L16.2396 32.6615L16.4054 32.7987L16.4055 32.7987L16.4885 32.8675L16.4883 32.8677L16.7011 33.0439L16.8994 33.2104L16.9007 33.2088L16.9839 33.2775L16.9823 33.2793L17.231 33.4819L17.2311 33.4818L17.3139 33.5503L17.3969 33.6191L17.3969 33.619L17.4797 33.6875L17.4845 33.6916L17.6425 33.8242L17.642 33.8247L17.7172 33.887L17.7249 33.8935L17.725 33.8934L17.8081 33.9622L17.8079 33.9624L18.0566 34.1684L18.0567 34.1683L18.1395 34.2368L18.2225 34.3056L18.3232 34.389L18.4685 34.511L18.4678 34.5118L18.6335 34.649L18.7166 34.7177L18.8823 34.8549L18.8829 34.8541L18.9663 34.922L18.9651 34.9234L19.2104 35.1259L19.2114 35.1247L19.2938 35.1939L19.2934 35.1944L19.3762 35.2631L19.5248 35.3866L36.4173 15.2921L36.2687 15.1686L36.0234 14.9626L36.0224 14.9638L35.9401 14.8947L35.9406 14.8942L35.8587 14.8264L35.8576 14.8254L35.6919 14.6882L35.6918 14.6883L35.609 14.6198L35.526 14.551L35.443 14.4823L35.4431 14.4821L35.2771 14.345L35.2772 14.3449L35.0319 14.1423L34.8662 14.0051L34.8661 14.0052L34.783 13.9364L34.7832 13.9362L34.6096 13.7924L34.4546 13.6623L34.4551 13.6618L34.3777 13.5977L34.3721 13.593L34.2063 13.4558L34.0406 13.3186L34.0405 13.3187L33.8747 13.1814L33.8747 13.1814L33.7916 13.1127L33.7918 13.1125L33.6293 12.976L33.6295 12.9757L33.5939 12.9463L33.5466 12.9065L33.5463 12.9068L33.4635 12.8383L33.4637 12.838L33.4354 12.815L33.3808 12.7698L33.3804 12.7702L33.2968 12.7021L33.2978 12.7008L33.0836 12.5264L32.8868 12.3611L32.886 12.362L32.8037 12.2929L32.8039 12.2926L32.7641 12.2596L32.7209 12.2234L32.7207 12.2237L32.6379 12.1551L32.6381 12.1549L32.3893 11.949L32.3893 11.949L32.2984 11.8738L32.1436 11.7438L32.1441 11.7433L32.0661 11.6788L32.0611 11.6746L31.9781 11.6058L31.9783 11.6056L31.7295 11.3997L31.7293 11.4L31.6464 11.3313L31.6465 11.3312L31.4807 11.194L31.3978 11.1252L31.3977 11.1254L31.2355 10.9915L31.1524 10.9227L31.1526 10.9225L30.9039 10.7166L30.9036 10.7168L30.8208 10.6483L30.821 10.6481L30.5757 10.4421L30.5747 10.4434L30.4921 10.374L30.4928 10.3732L30.2441 10.1672L30.244 10.1673L30.0782 10.03L30.0782 10.0301L29.9878 9.95518L29.7501 9.75562L29.7491 9.75682L29.6665 9.68743L29.6671 9.68667L29.4184 9.48071L29.4178 9.48142L29.2526 9.34692L29.2526 9.34696L29.1621 9.27207L29.0069 9.14173L29.0073 9.14126L28.9385 9.08425L28.9245 9.07251L28.9244 9.07261L28.7586 8.9353L28.7586 8.93534L28.5928 8.7981L28.5928 8.79813L28.427 8.66089L28.427 8.66094L28.3439 8.59217L28.3441 8.59194L28.1816 8.45547L28.1818 8.45522L28.1462 8.42572L28.0989 8.38599L28.0986 8.38631L28.0158 8.31772L28.0159 8.31753L27.85 8.18012L27.8502 8.17983L27.6768 8.03623L27.4391 7.83667L27.4375 7.83858L27.2732 7.70288L27.2731 7.70292L27.1074 7.56567L27.1074 7.56571L26.9416 7.42847L26.9416 7.42856L26.8467 7.34998L26.6956 7.22313L26.6963 7.22231L26.4476 7.01636L26.4475 7.01639L26.2818 6.87915L26.2814 6.87956L26.1984 6.81078L26.1989 6.8102L26.0238 6.66527L25.8703 6.53632L25.8707 6.53579L25.7931 6.4715L25.7878 6.46704L25.7877 6.46708L25.622 6.32983L25.6213 6.3306L25.5379 6.26268L25.5391 6.26136L25.3438 6.10237L25.128 5.92114L25.127 5.92234L25.0446 5.85322L25.0451 5.85268L24.9674 5.78838L24.9621 5.78394L24.9621 5.78397L24.7964 5.64673L24.7963 5.64682L24.6305 5.50952L24.6304 5.50956L24.5396 5.43429L24.3023 5.23511L24.3016 5.23599L24.2191 5.16669L24.2195 5.16616L24.1419 5.1019L24.1366 5.09741L24.1366 5.09745L23.9708 4.96021L23.9707 4.96036L23.8876 4.89157L23.8879 4.89126L23.6391 4.6853L23.6388 4.68575L23.5579 4.61894L23.5596 4.61683L23.3109 4.41431L23.3108 4.41437L23.1451 4.2771L23.145 4.27714L23.059 4.20587L22.817 4.00269L22.816 4.00391L22.7336 3.93473L22.734 3.93423L22.6608 3.8736L22.6511 3.86548L22.6511 3.86555L22.5678 3.79658L22.5682 3.79604L22.3195 3.59009L22.3192 3.59044L22.2333 3.51934L21.9914 3.31616L21.9906 3.31707L21.9079 3.24766L21.9083 3.24722L21.8439 3.19385L21.8255 3.17847L21.8254 3.17859L21.6596 3.04126L21.659 3.04197L21.5757 2.97411L21.5768 2.97279L21.3645 2.79993L21.2482 2.70225L21.2485 2.70181L21.184 2.64841L21.1658 2.63306L21.1657 2.63318L21.0825 2.56436L21.0828 2.56411L20.834 2.35815L20.8338 2.35845L20.7508 2.28976L20.7513 2.28921L20.5253 2.10205L20.4223 2.01561L20.423 2.01479L20.1743 1.80884L20.1742 1.80893L20.0084 1.67163L20.0084 1.67167L19.9179 1.59678L19.6803 1.39722L19.6787 1.3991L19.5958 1.33062L19.5973 1.32874L19.3759 1.14847L19.1828 0.988525L19.1827 0.988591L19.0922 0.913667L18.8546 0.714111L18.8538 0.715024L18.7715 0.645898L18.7717 0.645654L18.736 0.616055L18.6888 0.576416L18.6885 0.576741L18.6057 0.508151L18.6058 0.507959L18.3571 0.302002L18.3571 0.302038L18.2666 0.22715L18.1115 0.0968983L18.112 0.0963374L18.03 0.0284187L18.029 0.0275879L17.9459 -0.0411687L17.9461 -0.0413579L17.6974 -0.247314L17.6965 -0.246288L17.5852 -0.336927L17.3692 -0.518311L17.3682 -0.517139L17.2859 -0.586235L17.2864 -0.586768L17.2083 -0.651387L17.2034 -0.655518L17.2034 -0.655484L17.1203 -0.724271L17.1205 -0.724463L16.8717 -0.93042L16.8715 -0.930067L16.7886 -0.998645L16.7888 -0.998877L16.5436 -1.20483L16.5426 -1.2037L16.4603 -1.27279L16.4607 -1.27329L16.3875 -1.33393L16.3779 -1.34204L16.3778 -1.34197L16.212 -1.47925L16.2119 -1.47909L16.1288 -1.54788L16.1291 -1.54819L15.8804 -1.75415L-1.01208 18.3438L-0.929059 18.4125L-0.929138 18.4126L-0.883858 18.45Z" fill="url(#paint0_linear_1453_2457)"/>
</g>
<path d="M115.135 12.3848C113.884 11.2624 112.399 10.6926 110.727 10.6926C109.78 10.6926 108.834 10.8985 107.922 11.3036C107.006 11.7121 106.219 12.299 105.583 13.0508L105.427 13.2327L107.3 15.0005L107.476 14.8117C108.423 13.7922 109.528 13.2739 110.761 13.2739C111.652 13.2739 112.44 13.5554 113.11 14.1149C113.684 14.592 114.046 15.1344 114.198 15.7282H109.901V18.1894H114.154C113.874 18.9343 113.445 19.4938 112.882 19.8508C112.229 20.2661 111.504 20.4755 110.727 20.4755C109.566 20.4755 108.471 19.9572 107.476 18.9343L107.293 18.7455L105.469 20.6334L105.649 20.8085C106.557 21.6975 107.421 22.3017 108.222 22.5969C109.02 22.8921 109.87 23.0431 110.758 23.0431C112.627 23.0431 114.157 22.4458 115.304 21.2684C116.451 20.0945 117.031 18.6047 117.031 16.8472C117.031 15.0897 116.392 13.5107 115.135 12.3814V12.3848Z" fill="black"/>
</g>
<defs>
<linearGradient id="paint0_linear_1453_2457" x1="8" y1="4.49976" x2="28" y2="33.4998" gradientUnits="userSpaceOnUse">
<stop stop-color="#3F2B70"/>
<stop offset="1" stop-color="#3E7DBC"/>
</linearGradient>
<clipPath id="clip0_1453_2457">
<rect width="140" height="34" fill="white"/>
</clipPath>
</defs>
</svg>
