<svg width="140" height="34" viewBox="0 0 140 34" fill="none" xmlns="http://www.w3.org/2000/svg">
<g clip-path="url(#clip0_1561_5657)">
<path d="M53.32 23.1221H50.4632V18.3301H44.9291L46.1796 15.4914H50.4632V10.7029H53.32V23.1221Z" fill="white"/>
<path d="M44.5698 23.1221H41.713V10.7029H44.5698V23.1221Z" fill="white"/>
<path d="M64.8891 12.5222C63.6696 11.3105 62.1946 10.7029 60.4708 10.7029C58.747 10.7029 57.2719 11.3105 56.0525 12.5222C54.8331 13.7339 54.2216 15.1996 54.2216 16.9125C54.2216 18.6253 54.8331 20.0911 56.0525 21.3028C57.2719 22.5145 58.747 23.1221 60.4708 23.1221C62.1946 23.1221 63.6696 22.5145 64.8891 21.3028C66.1085 20.0911 66.7199 18.6253 66.7199 16.9125C66.7199 15.1996 66.1085 13.7339 64.8891 12.5222ZM62.8717 19.2981C62.2118 19.9538 61.4104 20.2833 60.4708 20.2833C59.5312 20.2833 58.7435 19.9538 58.0768 19.2981C57.4101 18.6425 57.0785 17.8461 57.0785 16.9125C57.0785 15.9788 57.4101 15.1824 58.0768 14.5268C58.7435 13.8712 59.5415 13.5416 60.4708 13.5416C61.4 13.5416 62.2118 13.8712 62.8717 14.5268C63.5315 15.1824 63.8631 15.9788 63.8631 16.9125C63.8631 17.8461 63.5315 18.6425 62.8717 19.2981Z" fill="white"/>
<path d="M79.2287 14.5165C79.2287 15.5703 78.8521 16.4697 78.1025 17.2145C77.3529 17.9594 76.4478 18.3336 75.3873 18.3336H70.8343L72.0848 15.4948H75.3873C75.6602 15.4948 75.8916 15.3987 76.0851 15.2099C76.2751 15.0211 76.3718 14.7911 76.3718 14.5165C76.3718 14.2419 76.2751 14.0153 76.0851 13.8231C75.8951 13.6309 75.6636 13.5382 75.3873 13.5382H70.4784V23.1186H67.6216V10.7029H75.3873C76.4478 10.7029 77.3494 11.077 78.1025 11.8219C78.8521 12.5668 79.2287 13.4661 79.2287 14.5199V14.5165Z" fill="white"/>
<path d="M89.8823 20.2833L85.616 10.7029H83.2946L79.0283 20.2833H77.7605V23.1221H91.1501V20.2833H89.8823ZM82.241 20.2833L84.4553 15.3163L86.6696 20.2833H82.241Z" fill="white"/>
<path d="M102.042 23.1221L98.5602 15.3163L95.078 23.1221H91.8654L97.3995 10.7029H99.7209L105.255 23.1221H102.042Z" fill="white"/>
<path d="M118.161 10.7029H121.018V17.7466L126.911 10.7029H129.768V23.1221H126.911V16.0783L121.018 23.1221H118.161V10.7029Z" fill="white"/>
<path d="M127.885 9.3884V7.19153H122.617L121.225 9.3884H127.885Z" fill="white"/>
<path d="M131.25 13.5416V10.7029H136.159C137.219 10.7029 138.121 11.077 138.874 11.8219C139.624 12.5668 140 13.4661 140 14.5199C140 15.2785 139.655 16.0749 138.964 16.9159C139.655 17.7569 140 18.5533 140 19.3119C140 20.3657 139.624 21.265 138.874 22.0099C138.124 22.7548 137.219 23.1289 136.159 23.1289H131.25V20.2902H136.159C136.432 20.2902 136.663 20.194 136.857 20.0053C137.047 19.8165 137.143 19.5865 137.143 19.3119C137.143 19.0373 137.047 18.8107 136.857 18.6185C136.667 18.4297 136.435 18.3336 136.159 18.3336H131.606L132.856 15.4948H136.159C136.432 15.4948 136.663 15.3987 136.857 15.2099C137.047 15.0211 137.143 14.7911 137.143 14.5165C137.143 14.2419 137.047 14.0153 136.857 13.8231C136.667 13.6343 136.435 13.5382 136.159 13.5382H131.25V13.5416Z" fill="white"/>
<mask id="mask0_1561_5657" style="mask-type:luminance" maskUnits="userSpaceOnUse" x="0" y="0" width="35" height="34">
<path d="M19.2242 19.178C21.2313 18.8965 34.044 17.5715 34.7383 17.29L19.6629 14.8186C19.4833 14.6263 19.6457 14.8906 19.5386 14.592L19.1586 11.1903C18.782 7.55516 18.2777 3.54587 17.9944 0.00341797C17.7561 0.0617723 17.3795 0.302055 17.2033 0.459955C16.9235 0.713968 16.9823 0.83411 16.9201 1.33527C16.623 3.69004 15.0857 15.1721 14.8647 15.6321L0 17.6333C0.276359 17.7981 0.583808 17.7946 0.94653 17.829L7.65514 18.5086C10.1838 18.7626 12.6987 19.0201 15.2343 19.281L17.8562 33.9966L19.2277 19.1745L19.2242 19.178Z" fill="white"/>
</mask>
<g mask="url(#mask0_1561_5657)">
<path fill-rule="evenodd" clip-rule="evenodd" d="M-0.883858 18.4501L-0.846173 18.4813L-0.846436 18.4816L-0.597712 18.6876L-0.597011 18.6867L-0.431697 18.8213L-0.431639 18.8213L-0.348877 18.8898L-0.347879 18.8906L-0.185851 19.0267L-0.186523 19.0275L0.0621996 19.2334L0.0624963 19.2331L0.145364 19.3017L0.145203 19.3019L0.316095 19.4434L0.556243 19.6451L0.557226 19.6439L0.639772 19.7132L0.639099 19.714L0.887822 19.92L0.888111 19.9196L0.970986 19.9882L0.970825 19.9884L1.13654 20.1256L1.13732 20.1263L1.29932 20.2623L1.29889 20.2628L1.33324 20.2908L1.3818 20.3316L1.38242 20.3309L1.54761 20.4654L1.54764 20.4653L1.63072 20.5341L1.63055 20.5343L1.87928 20.7403L1.87955 20.74L1.96235 20.8085L1.96216 20.8087L2.12494 20.9454L2.12451 20.9459L2.19967 21.0082L2.20743 21.0147L2.20747 21.0146L2.37323 21.1519L2.37329 21.1518L2.45636 21.2206L2.45618 21.2208L2.62712 21.3624L2.86722 21.564L2.86824 21.5628L2.95063 21.632L2.9502 21.6325L3.02537 21.6947L3.03311 21.7012L3.03316 21.7012L3.19892 21.8384L3.19895 21.8384L3.36469 21.9756L3.36534 21.9749L3.47576 22.0648L3.6929 22.2471L3.6942 22.2456L3.77682 22.3149L3.77588 22.3161L4.0246 22.522L4.02485 22.5217L4.10757 22.5902L4.10736 22.5905L4.2914 22.7429L4.43607 22.8643L4.43561 22.8649L4.51517 22.9308L4.51858 22.9336L4.5186 22.9336L4.68433 23.0708L4.68436 23.0708L4.8501 23.208L4.85012 23.208L5.01587 23.3453L5.01598 23.3451L5.09912 23.414L5.09894 23.4142L5.26282 23.5495L5.26123 23.5514L5.50995 23.7539L5.51025 23.7536L5.59329 23.8224L5.59283 23.8229L5.76817 23.9681L6.00394 24.1661L6.00497 24.1648L6.08731 24.234L6.08685 24.2345L6.16598 24.3L6.16983 24.3033L6.16985 24.3032L6.33558 24.4405L6.3356 24.4404L6.50135 24.5777L6.5014 24.5776L6.58451 24.6464L6.58435 24.6466L6.7469 24.7831L6.7467 24.7834L6.78116 24.8119L6.82962 24.8526L6.8299 24.8522L6.91262 24.9207L6.91235 24.9211L7.16108 25.127L7.16178 25.1262L7.24525 25.1941L7.24414 25.1955L7.43804 25.3534L7.5727 25.4664L7.57227 25.4669L7.64737 25.5291L7.65518 25.5357L7.65522 25.5356L7.82099 25.6729L7.82102 25.6729L7.98676 25.8101L7.98684 25.81L8.07449 25.8826L8.31497 26.0845L8.31598 26.0833L8.39856 26.1527L8.39789 26.1535L8.64661 26.3594L8.64664 26.3594L8.81238 26.4966L8.81246 26.4965L8.90044 26.5694L9.14059 26.7711L9.14216 26.7692L9.22549 26.838L9.22339 26.8405L9.47211 27.043L9.47246 27.0426L9.63807 27.1797L9.6381 27.1797L9.7211 27.2484L9.72089 27.2487L9.88371 27.3854L9.8833 27.3859L9.95409 27.4445L9.96616 27.4546L9.96622 27.4545L10.132 27.5918L10.1321 27.5917L10.2979 27.729L10.2979 27.729L10.4637 27.8663L10.4637 27.8662L10.5636 27.949L10.7095 28.0714L10.709 28.0719L10.7841 28.1341L10.792 28.1407L10.792 28.1406L10.875 28.2093L10.8748 28.2096L11.0408 28.3471L11.0406 28.3473L11.0643 28.3666L11.1235 28.4156L11.1239 28.4151L11.2729 28.5365L11.4517 28.6866L11.4525 28.6857L11.535 28.755L11.5346 28.7555L11.6096 28.8176L11.6175 28.8243L11.6176 28.8242L11.7833 28.9615L11.7834 28.9614L11.9491 29.0987L11.9491 29.0986L12.0459 29.1787L12.1948 29.3038L12.1944 29.3043L12.2695 29.3665L12.2773 29.3731L12.2774 29.373L12.4431 29.5103L12.4432 29.5103L12.6089 29.6475L12.6089 29.6475L12.692 29.7163L12.6918 29.7165L12.8672 29.8617L13.0205 29.9904L13.02 29.9909L13.0544 30.0189L13.1029 30.0596L13.1036 30.0589L13.2687 30.1934L13.4345 30.3306L13.4346 30.3305L13.5176 30.3993L13.5174 30.3996L13.7627 30.6055L13.7637 30.6043L13.8464 30.6737L13.8457 30.6745L14.0944 30.8804L14.0947 30.8801L14.1774 30.9487L14.1772 30.9489L14.343 31.0861L14.3486 31.0907L14.5883 31.292L14.5893 31.2909L14.6719 31.3603L14.6713 31.361L14.92 31.567L14.9209 31.5659L15.0043 31.6338L15.0029 31.6354L15.216 31.8089L15.3315 31.9059L15.3311 31.9064L15.406 31.9684L15.414 31.9751L15.414 31.9751L15.5798 32.1123L15.5798 32.1123L15.6629 32.1811L15.6628 32.1813L15.8711 32.3538L16.0738 32.524L16.0745 32.5231L16.1571 32.5924L16.1567 32.5929L16.2315 32.6549L16.2396 32.6617L16.2396 32.6616L16.4054 32.7989L16.4055 32.7988L16.4885 32.8676L16.4883 32.8678L16.7011 33.044L16.8994 33.2105L16.9007 33.2089L16.9839 33.2776L16.9823 33.2794L17.231 33.482L17.2311 33.4819L17.3139 33.5504L17.3969 33.6192L17.3969 33.6191L17.4797 33.6876L17.4845 33.6917L17.6425 33.8243L17.642 33.8248L17.7172 33.8871L17.7249 33.8936L17.725 33.8935L17.8081 33.9623L17.8079 33.9625L18.0566 34.1685L18.0567 34.1684L18.1395 34.237L18.2225 34.3057L18.3232 34.3891L18.4685 34.5111L18.4678 34.5119L18.6335 34.6491L18.7166 34.7178L18.8823 34.855L18.8829 34.8543L18.9663 34.9221L18.9651 34.9235L19.2104 35.126L19.2114 35.1248L19.2938 35.194L19.2934 35.1945L19.3762 35.2632L19.5248 35.3867L36.4173 15.2922L36.2687 15.1687L36.0234 14.9628L36.0224 14.964L35.9401 14.8949L35.9406 14.8943L35.8587 14.8265L35.8576 14.8256L35.6919 14.6884L35.6918 14.6884L35.609 14.6199L35.526 14.5511L35.443 14.4824L35.4431 14.4822L35.2771 14.3451L35.2772 14.345L35.0319 14.1425L34.8662 14.0052L34.8661 14.0053L34.783 13.9365L34.7832 13.9363L34.6096 13.7926L34.4546 13.6624L34.4551 13.6619L34.3777 13.5978L34.3721 13.5931L34.2063 13.4559L34.0406 13.3187L34.0405 13.3188L33.8747 13.1815L33.8747 13.1816L33.7916 13.1128L33.7918 13.1126L33.6293 12.9761L33.6295 12.9759L33.5939 12.9464L33.5466 12.9066L33.5463 12.9069L33.4635 12.8384L33.4637 12.8381L33.4354 12.8151L33.3808 12.7699L33.3804 12.7703L33.2968 12.7022L33.2978 12.7009L33.0836 12.5265L32.8868 12.3612L32.886 12.3621L32.8037 12.293L32.8039 12.2927L32.7641 12.2597L32.7209 12.2235L32.7207 12.2238L32.6379 12.1552L32.6381 12.1551L32.3893 11.9491L32.3893 11.9492L32.2984 11.8739L32.1436 11.744L32.1441 11.7434L32.0661 11.6789L32.0611 11.6747L31.9781 11.6059L31.9783 11.6057L31.7295 11.3998L31.7293 11.4001L31.6464 11.3315L31.6465 11.3313L31.4807 11.1941L31.3978 11.1254L31.3977 11.1255L31.2355 10.9916L31.1524 10.9228L31.1526 10.9226L30.9039 10.7167L30.9036 10.717L30.8208 10.6484L30.821 10.6482L30.5757 10.4423L30.5747 10.4435L30.4921 10.3741L30.4928 10.3733L30.2441 10.1674L30.244 10.1674L30.0782 10.0302L30.0782 10.0302L29.9878 9.9553L29.7501 9.75574L29.7491 9.75694L29.6665 9.68755L29.6671 9.68679L29.4184 9.48083L29.4178 9.48154L29.2526 9.34705L29.2526 9.34708L29.1621 9.27219L29.0069 9.14185L29.0073 9.14138L28.9385 9.08437L28.9245 9.07263L28.9244 9.07273L28.7586 8.93542L28.7586 8.93546L28.5928 8.79822L28.5928 8.79825L28.427 8.66101L28.427 8.66106L28.3439 8.59229L28.3441 8.59206L28.1816 8.45559L28.1818 8.45535L28.1462 8.42585L28.0989 8.38611L28.0986 8.38643L28.0158 8.31784L28.0159 8.31765L27.85 8.18024L27.8502 8.17996L27.6768 8.03635L27.4391 7.83679L27.4375 7.83871L27.2732 7.703L27.2731 7.70304L27.1074 7.5658L27.1074 7.56583L26.9416 7.42859L26.9416 7.42868L26.8467 7.3501L26.6956 7.22325L26.6963 7.22244L26.4476 7.01648L26.4475 7.01651L26.2818 6.87927L26.2814 6.87969L26.1984 6.81091L26.1989 6.81033L26.0238 6.66539L25.8703 6.53644L25.8707 6.53591L25.7931 6.47163L25.7878 6.46716L25.7877 6.4672L25.622 6.32996L25.6213 6.33072L25.5379 6.26281L25.5391 6.26148L25.3438 6.10249L25.128 5.92126L25.127 5.92246L25.0446 5.85334L25.0451 5.85281L24.9674 5.7885L24.9621 5.78406L24.9621 5.78409L24.7964 5.64685L24.7963 5.64695L24.6305 5.50964L24.6304 5.50968L24.5396 5.43441L24.3023 5.23523L24.3016 5.23611L24.2191 5.16681L24.2195 5.16628L24.1419 5.10202L24.1366 5.09753L24.1366 5.09757L23.9708 4.96033L23.9707 4.96048L23.8876 4.89169L23.8879 4.89138L23.6391 4.68542L23.6388 4.68587L23.5579 4.61906L23.5596 4.61695L23.3109 4.41443L23.3108 4.4145L23.1451 4.27722L23.145 4.27726L23.059 4.20599L22.817 4.00281L22.816 4.00404L22.7336 3.93485L22.734 3.93435L22.6608 3.87373L22.6511 3.8656L22.6511 3.86567L22.5678 3.79671L22.5682 3.79617L22.3195 3.59021L22.3192 3.59056L22.2333 3.51946L21.9914 3.31628L21.9906 3.3172L21.9079 3.24778L21.9083 3.24734L21.8439 3.19397L21.8255 3.17859L21.8254 3.17871L21.6596 3.04138L21.659 3.04209L21.5757 2.97423L21.5768 2.97291L21.3645 2.80005L21.2482 2.70237L21.2485 2.70193L21.184 2.64853L21.1658 2.63318L21.1657 2.6333L21.0825 2.56448L21.0828 2.56423L20.834 2.35828L20.8338 2.35857L20.7508 2.28988L20.7513 2.28933L20.5253 2.10217L20.4223 2.01573L20.423 2.01492L20.1743 1.80896L20.1742 1.80906L20.0084 1.67175L20.0084 1.67179L19.9179 1.5969L19.6803 1.39734L19.6787 1.39922L19.5958 1.33074L19.5973 1.32887L19.3759 1.14859L19.1828 0.988647L19.1827 0.988713L19.0922 0.913789L18.8546 0.714233L18.8538 0.715146L18.7715 0.64602L18.7717 0.645776L18.736 0.616178L18.6888 0.576538L18.6885 0.576863L18.6057 0.508273L18.6058 0.508081L18.3571 0.302124L18.3571 0.30216L18.2666 0.227272L18.1115 0.0970204L18.112 0.0964595L18.03 0.0285407L18.029 0.02771L17.9459 -0.0410466L17.9461 -0.0412358L17.6974 -0.247192L17.6965 -0.246166L17.5852 -0.336805L17.3692 -0.518188L17.3682 -0.517017L17.2859 -0.586113L17.2864 -0.586646L17.2083 -0.651265L17.2034 -0.655396L17.2034 -0.655362L17.1203 -0.724149L17.1205 -0.724341L16.8717 -0.930298L16.8715 -0.929945L16.7886 -0.998523L16.7888 -0.998755L16.5436 -1.20471L16.5426 -1.20358L16.4603 -1.27267L16.4607 -1.27317L16.3875 -1.33381L16.3779 -1.34192L16.3778 -1.34185L16.212 -1.47913L16.2119 -1.47897L16.1288 -1.54776L16.1291 -1.54807L15.8804 -1.75403L-1.01208 18.3439L-0.929059 18.4127L-0.929138 18.4127L-0.883858 18.4501Z" fill="white"/>
</g>
<path d="M115.135 12.3849C113.884 11.2624 112.399 10.6926 110.727 10.6926C109.78 10.6926 108.834 10.8986 107.922 11.3036C107.006 11.7121 106.219 12.2991 105.583 13.0508L105.427 13.2328L107.3 15.0006L107.476 14.8118C108.423 13.7923 109.528 13.2739 110.761 13.2739C111.652 13.2739 112.44 13.5554 113.11 14.1149C113.684 14.5921 114.046 15.1344 114.198 15.7283H109.901V18.1894H114.154C113.874 18.9343 113.445 19.4938 112.882 19.8508C112.229 20.2662 111.504 20.4756 110.727 20.4756C109.566 20.4756 108.471 19.9572 107.476 18.9343L107.293 18.7455L105.469 20.6335L105.649 20.8085C106.557 21.6976 107.421 22.3017 108.222 22.5969C109.02 22.8921 109.87 23.0432 110.758 23.0432C112.627 23.0432 114.157 22.4459 115.304 21.2685C116.451 20.0945 117.031 18.6048 117.031 16.8473C117.031 15.0898 116.392 13.5108 115.135 12.3815V12.3849Z" fill="white"/>
</g>
<defs>
<clipPath id="clip0_1561_5657">
<rect width="140" height="34" fill="white"/>
</clipPath>
</defs>
</svg>
