<svg width="84" height="33" viewBox="0 0 84 33" fill="none" xmlns="http://www.w3.org/2000/svg">
<g clip-path="url(#clip0_1453_1093)">
<path d="M35.2766 25.1624H36.6648L42.9914 10.8676C43.0891 10.6656 43.1339 10.353 43.4962 10.353C43.8585 10.353 43.9033 10.6656 44.001 10.8676L50.3276 25.1624H51.7158L45.1979 10.6427C44.6728 9.45339 44.1924 9.27423 43.4962 9.27423C42.8 9.27423 42.3237 9.45339 41.7945 10.6427L35.2766 25.1624Z" fill="black"/>
<path d="M53.0104 25.1624H54.3986L60.7252 10.8676C60.8229 10.6656 60.8677 10.353 61.23 10.353C61.5924 10.353 61.6371 10.6656 61.7348 10.8676L68.0614 25.1624H69.4497L62.9318 10.6427C62.4066 9.45339 61.9262 9.27423 61.23 9.27423C60.5339 9.27423 60.0535 9.45339 59.5283 10.6427L53.0104 25.1624Z" fill="black"/>
<path d="M84 25.1625V24.0837H77.5065C74.7259 24.0837 73.4069 22.8944 72.8572 22.1777C71.8517 20.8779 71.754 19.1701 71.754 17.5538C71.754 15.8042 71.8517 13.7381 72.9997 12.3467C74.3921 10.6618 76.619 10.5284 77.8648 10.5284H83.7354V9.44965H77.3111C74.3391 9.44965 72.7351 10.7953 72.157 11.3556C70.5286 12.9948 70.3616 15.3963 70.3616 17.5272C70.3616 20.1765 70.7932 22.0367 72.2303 23.3861C72.9712 24.0837 74.5061 25.1587 77.2378 25.1587H83.9959L84 25.1625Z" fill="black"/>
<path fill-rule="evenodd" clip-rule="evenodd" d="M26.9592 4.3533L30.1184 11.6036C30.1794 11.7447 30.4034 11.7142 30.4196 11.5617L31.3275 2.53882L31.6776 10.8946L31.698 12.3774C31.698 12.5414 31.9422 12.5795 31.9992 12.427L36.8073 6.10352e-05L34.4134 0.404127L32.5733 0.712895L25.2045 1.95559L18.4016 3.10298C21.9557 6.64809 25.4528 9.83488 29.0273 13.2733C29.1209 13.3647 29.2879 13.2809 29.2553 13.1589L26.9592 4.35711V4.3533Z" fill="#2A5096"/>
<path fill-rule="evenodd" clip-rule="evenodd" d="M25.2126 26.4664L28.5469 19.1856C28.612 19.0407 28.437 18.9035 28.2945 18.9912L19.1955 24.8425L27.0243 18.3317C27.1546 18.2212 27.0446 18.0191 26.8736 18.0611L16.0322 20.4931L26.2304 16.9518C26.3973 16.8946 26.3688 16.6659 26.1897 16.6468L18.4016 15.8082L27.3174 15.4956C27.4843 15.488 27.5413 15.2822 27.3988 15.2021L17.0663 9.28978L27.5576 14.07C27.7245 14.1462 27.8833 13.9518 27.7571 13.8222L24.0076 9.96069L17.5222 3.31647L0 6.02295L12.0628 19.5134L16.3579 24.3165L24.1256 33.0001L28.4614 21.995L25.2126 26.4664Z" fill="#6AAD4D"/>
<g clip-path="url(#clip1_1453_1093)">
<path d="M35.2766 25.1624H36.6648L42.9914 10.8676C43.0891 10.6656 43.1339 10.353 43.4962 10.353C43.8585 10.353 43.9033 10.6656 44.001 10.8676L50.3276 25.1624H51.7158L45.1979 10.6427C44.6728 9.45339 44.1924 9.27423 43.4962 9.27423C42.8 9.27423 42.3237 9.45339 41.7945 10.6427L35.2766 25.1624Z" fill="black"/>
<path d="M53.0104 25.1624H54.3986L60.7252 10.8676C60.8229 10.6656 60.8677 10.353 61.23 10.353C61.5924 10.353 61.6371 10.6656 61.7348 10.8676L68.0614 25.1624H69.4497L62.9318 10.6427C62.4066 9.45339 61.9262 9.27423 61.23 9.27423C60.5339 9.27423 60.0535 9.45339 59.5283 10.6427L53.0104 25.1624Z" fill="black"/>
<path d="M84 25.1625V24.0837H77.5065C74.7259 24.0837 73.4069 22.8944 72.8572 22.1777C71.8517 20.8779 71.754 19.1701 71.754 17.5538C71.754 15.8042 71.8517 13.7381 72.9997 12.3467C74.3921 10.6618 76.619 10.5284 77.8648 10.5284H83.7354V9.44965H77.3111C74.3391 9.44965 72.7351 10.7953 72.157 11.3556C70.5286 12.9948 70.3616 15.3963 70.3616 17.5272C70.3616 20.1765 70.7932 22.0367 72.2303 23.3861C72.9712 24.0837 74.5061 25.1587 77.2378 25.1587H83.9959L84 25.1625Z" fill="black"/>
<path fill-rule="evenodd" clip-rule="evenodd" d="M26.9592 4.3533L30.1184 11.6036C30.1794 11.7447 30.4034 11.7142 30.4196 11.5617L31.3275 2.53882L31.6776 10.8946L31.698 12.3774C31.698 12.5414 31.9422 12.5795 31.9992 12.427L36.8073 6.10352e-05L34.4134 0.404127L32.5733 0.712895L25.2045 1.95559L18.4016 3.10298C21.9557 6.64809 25.4528 9.83488 29.0273 13.2733C29.1209 13.3647 29.2879 13.2809 29.2553 13.1589L26.9592 4.35711V4.3533Z" fill="#2A5096"/>
<path fill-rule="evenodd" clip-rule="evenodd" d="M25.2126 26.4664L28.5469 19.1856C28.612 19.0407 28.437 18.9035 28.2945 18.9912L19.1955 24.8425L27.0243 18.3317C27.1546 18.2212 27.0446 18.0191 26.8736 18.0611L16.0322 20.4931L26.2304 16.9518C26.3973 16.8946 26.3688 16.6659 26.1897 16.6468L18.4016 15.8082L27.3174 15.4956C27.4843 15.488 27.5413 15.2822 27.3988 15.2021L17.0663 9.28978L27.5576 14.07C27.7245 14.1462 27.8833 13.9518 27.7571 13.8222L24.0076 9.96069L17.5222 3.31647L0 6.02295L12.0628 19.5134L16.3579 24.3165L24.1256 33.0001L28.4614 21.995L25.2126 26.4664Z" fill="#6AAD4D"/>
</g>
</g>
<defs>
<clipPath id="clip0_1453_1093">
<rect width="84" height="33" fill="white"/>
</clipPath>
<clipPath id="clip1_1453_1093">
<rect width="84" height="33" fill="white"/>
</clipPath>
</defs>
</svg>
