<svg width="84" height="33" viewBox="0 0 84 33" fill="none" xmlns="http://www.w3.org/2000/svg">
<g clip-path="url(#clip0_1561_5495)">
<path d="M35.2766 25.1626H36.6648L42.9914 10.8678C43.0891 10.6658 43.1339 10.3532 43.4962 10.3532C43.8585 10.3532 43.9033 10.6658 44.001 10.8678L50.3276 25.1626H51.7158L45.1979 10.6429C44.6728 9.45358 44.1924 9.27441 43.4962 9.27441C42.8 9.27441 42.3237 9.45358 41.7945 10.6429L35.2766 25.1626Z" fill="white"/>
<path d="M53.0104 25.1626H54.3986L60.7252 10.8678C60.8229 10.6658 60.8677 10.3532 61.23 10.3532C61.5924 10.3532 61.6371 10.6658 61.7348 10.8678L68.0614 25.1626H69.4497L62.9318 10.6429C62.4066 9.45358 61.9262 9.27441 61.23 9.27441C60.5339 9.27441 60.0535 9.45358 59.5283 10.6429L53.0104 25.1626Z" fill="white"/>
<path d="M84 25.1627V24.0839H77.5065C74.7259 24.0839 73.4069 22.8946 72.8572 22.1779C71.8517 20.878 71.754 19.1703 71.754 17.554C71.754 15.8043 71.8517 13.7383 72.9997 12.3469C74.3921 10.662 76.619 10.5286 77.8648 10.5286H83.7354V9.44983H77.3111C74.3391 9.44983 72.7351 10.7954 72.157 11.3558C70.5286 12.9949 70.3616 15.3965 70.3616 17.5273C70.3616 20.1766 70.7932 22.0369 72.2303 23.3863C72.9712 24.0839 74.5061 25.1588 77.2378 25.1588H83.9959L84 25.1627Z" fill="white"/>
<path fill-rule="evenodd" clip-rule="evenodd" d="M26.9592 4.35336L30.1184 11.6037C30.1794 11.7447 30.4034 11.7142 30.4196 11.5617L31.3275 2.53888L31.6776 10.8947L31.698 12.3775C31.698 12.5414 31.9422 12.5795 31.9992 12.4271L36.8073 0.00012207L34.4134 0.404188L32.5733 0.712956L25.2045 1.95565L18.4016 3.10304C21.9557 6.64815 25.4528 9.83494 29.0273 13.2733C29.1209 13.3648 29.2879 13.2809 29.2553 13.159L26.9592 4.35717V4.35336Z" fill="white"/>
<path fill-rule="evenodd" clip-rule="evenodd" d="M25.2126 26.4665L28.5469 19.1857C28.612 19.0408 28.437 18.9036 28.2945 18.9912L19.1955 24.8426L27.0243 18.3318C27.1546 18.2212 27.0446 18.0192 26.8736 18.0611L16.0322 20.4931L26.2304 16.9519C26.3973 16.8947 26.3688 16.666 26.1897 16.6469L18.4016 15.8083L27.3174 15.4957C27.4843 15.4881 27.5413 15.2822 27.3988 15.2022L17.0663 9.28984L27.5576 14.07C27.7245 14.1463 27.8833 13.9519 27.7571 13.8222L24.0076 9.96075L17.5222 3.31653L0 6.02301L12.0628 19.5135L16.3579 24.3165L24.1256 33.0001L28.4614 21.9951L25.2126 26.4665Z" fill="white"/>
<g clip-path="url(#clip1_1561_5495)">
<path d="M35.2766 25.1626H36.6648L42.9914 10.8678C43.0891 10.6658 43.1339 10.3532 43.4962 10.3532C43.8585 10.3532 43.9033 10.6658 44.001 10.8678L50.3276 25.1626H51.7158L45.1979 10.6429C44.6728 9.45358 44.1924 9.27441 43.4962 9.27441C42.8 9.27441 42.3237 9.45358 41.7945 10.6429L35.2766 25.1626Z" fill="white"/>
<path d="M53.0104 25.1626H54.3986L60.7252 10.8678C60.8229 10.6658 60.8677 10.3532 61.23 10.3532C61.5924 10.3532 61.6371 10.6658 61.7348 10.8678L68.0614 25.1626H69.4497L62.9318 10.6429C62.4066 9.45358 61.9262 9.27441 61.23 9.27441C60.5339 9.27441 60.0535 9.45358 59.5283 10.6429L53.0104 25.1626Z" fill="white"/>
<path d="M84 25.1627V24.0839H77.5065C74.7259 24.0839 73.4069 22.8946 72.8572 22.1779C71.8517 20.878 71.754 19.1703 71.754 17.554C71.754 15.8043 71.8517 13.7383 72.9997 12.3469C74.3921 10.662 76.619 10.5286 77.8648 10.5286H83.7354V9.44983H77.3111C74.3391 9.44983 72.7351 10.7954 72.157 11.3558C70.5286 12.9949 70.3616 15.3965 70.3616 17.5273C70.3616 20.1766 70.7932 22.0369 72.2303 23.3863C72.9712 24.0839 74.5061 25.1588 77.2378 25.1588H83.9959L84 25.1627Z" fill="white"/>
<path fill-rule="evenodd" clip-rule="evenodd" d="M26.9592 4.35336L30.1184 11.6037C30.1794 11.7447 30.4034 11.7142 30.4196 11.5617L31.3275 2.53888L31.6776 10.8947L31.698 12.3775C31.698 12.5414 31.9422 12.5795 31.9992 12.4271L36.8073 0.00012207L34.4134 0.404188L32.5733 0.712956L25.2045 1.95565L18.4016 3.10304C21.9557 6.64815 25.4528 9.83494 29.0273 13.2733C29.1209 13.3648 29.2879 13.2809 29.2553 13.159L26.9592 4.35717V4.35336Z" fill="white"/>
<path fill-rule="evenodd" clip-rule="evenodd" d="M25.2126 26.4665L28.5469 19.1857C28.612 19.0408 28.437 18.9036 28.2945 18.9912L19.1955 24.8426L27.0243 18.3318C27.1546 18.2212 27.0446 18.0192 26.8736 18.0611L16.0322 20.4931L26.2304 16.9519C26.3973 16.8947 26.3688 16.666 26.1897 16.6469L18.4016 15.8083L27.3174 15.4957C27.4843 15.4881 27.5413 15.2822 27.3988 15.2022L17.0663 9.28984L27.5576 14.07C27.7245 14.1463 27.8833 13.9519 27.7571 13.8222L24.0076 9.96075L17.5222 3.31653L0 6.02301L12.0628 19.5135L16.3579 24.3165L24.1256 33.0001L28.4614 21.9951L25.2126 26.4665Z" fill="white"/>
</g>
</g>
<defs>
<clipPath id="clip0_1561_5495">
<rect width="84" height="33" fill="white"/>
</clipPath>
<clipPath id="clip1_1561_5495">
<rect width="84" height="33" fill="white"/>
</clipPath>
</defs>
</svg>
