<svg width="134" height="16" viewBox="0 0 134 16" fill="none" xmlns="http://www.w3.org/2000/svg">
<g clip-path="url(#clip0_1453_361)">
<path d="M29.8251 14.5398V3.81666C29.8251 3.04445 30.0916 2.38543 30.6261 1.8396C31.1598 1.29376 31.8043 1.02118 32.5594 1.02118H40.7612C41.5164 1.02118 42.1608 1.29443 42.6946 1.8396C43.2284 2.38543 43.4949 3.04445 43.4949 3.81666V9.40829C43.4949 10.1805 43.2277 10.8395 42.6946 11.3853C42.1608 11.9312 41.5164 12.2038 40.7612 12.2038H33.0081C32.8777 12.2038 32.7703 12.2473 32.6858 12.3337C32.6007 12.4208 32.5588 12.5306 32.5588 12.6632V14.5405C32.5588 14.6738 32.5162 14.7836 32.4317 14.87C32.3466 14.9571 32.2392 14.9999 32.1095 14.9999H30.2737C30.1434 14.9999 30.036 14.9571 29.9515 14.87C29.8676 14.7829 29.8251 14.6731 29.8251 14.5398ZM40.3119 3.81666H33.0081C32.8777 3.81666 32.7703 3.86019 32.6858 3.94659C32.6007 4.03365 32.5588 4.14349 32.5588 4.2761V8.94885C32.5588 9.08213 32.6007 9.19196 32.6858 9.27836C32.7703 9.36542 32.8777 9.40829 33.0081 9.40829H40.3113C40.4416 9.40829 40.549 9.36542 40.6335 9.27836C40.718 9.19196 40.7606 9.08213 40.7606 8.94885V4.27543C40.7606 4.14282 40.718 4.03298 40.6335 3.94592C40.549 3.85952 40.4416 3.81666 40.3119 3.81666Z" fill="black"/>
<path d="M45.467 1.47995C45.467 1.34734 45.509 1.2375 45.5941 1.15044C45.6786 1.06404 45.786 1.02051 45.9163 1.02051H47.7521C47.8818 1.02051 47.9892 1.06404 48.0743 1.15044C48.1588 1.2375 48.2014 1.34734 48.2014 1.47995V6.1527C48.2014 6.28598 48.2433 6.39581 48.3285 6.48221C48.4129 6.56927 48.5204 6.61214 48.6507 6.61214H55.9539C56.0842 6.61214 56.1916 6.56927 56.2761 6.48221C56.3606 6.39581 56.4032 6.28598 56.4032 6.1527V1.47995C56.4032 1.34734 56.4451 1.2375 56.5302 1.15044C56.6147 1.06404 56.7221 1.02051 56.8525 1.02051H58.6883C58.8179 1.02051 58.9253 1.06404 59.0105 1.15044C59.095 1.2375 59.1375 1.34734 59.1375 1.47995V12.2038C59.1375 12.976 58.8703 13.635 58.3372 14.1808C57.8034 14.7267 57.159 14.9992 56.4038 14.9992H47.2832C47.1528 14.9992 47.0454 14.9564 46.961 14.8693C46.8758 14.7829 46.8339 14.6731 46.8339 14.5398V12.6625C46.8339 12.5299 46.8758 12.4201 46.961 12.333C47.0454 12.2466 47.1528 12.2031 47.2832 12.2031H55.9532C56.0836 12.2031 56.191 12.1602 56.2755 12.0732C56.3599 11.9868 56.4025 11.8769 56.4025 11.7437V9.86639C56.4025 9.73378 56.3599 9.62394 56.2755 9.53687C56.191 9.45048 56.0836 9.40695 55.9532 9.40695H48.2014C47.4463 9.40695 46.8018 9.13436 46.268 8.58853C45.7343 8.04269 45.467 7.38367 45.467 6.61147V1.47995Z" fill="black"/>
<path d="M61.0891 14.5198V1.45993C61.0891 1.32732 61.131 1.21748 61.2162 1.13042C61.3007 1.04402 61.4081 1.00049 61.5384 1.00049H63.3742C63.5039 1.00049 63.6113 1.04402 63.6964 1.13042C63.7809 1.21748 63.8235 1.32732 63.8235 1.45993V6.13268C63.8235 6.26595 63.8654 6.37579 63.9505 6.46219C64.035 6.54925 64.1424 6.59212 64.2728 6.59212H71.576C71.7063 6.59212 71.8137 6.54925 71.8982 6.46219C71.9827 6.37579 72.0253 6.26595 72.0253 6.13268V1.45993C72.0253 1.32732 72.0672 1.21748 72.1523 1.13042C72.2368 1.04402 72.3442 1.00049 72.4745 1.00049H74.3103C74.44 1.00049 74.5474 1.04402 74.6326 1.13042C74.717 1.21748 74.7596 1.32732 74.7596 1.45993V14.5198C74.7596 14.6531 74.717 14.7629 74.6326 14.8493C74.5474 14.9364 74.44 14.9792 74.3103 14.9792H72.4745C72.3442 14.9792 72.2368 14.9364 72.1523 14.8493C72.0672 14.7629 72.0253 14.6531 72.0253 14.5198V9.84704C72.0253 9.71443 71.9827 9.60459 71.8982 9.51753C71.8137 9.43113 71.7063 9.3876 71.576 9.3876H64.2721C64.1418 9.3876 64.0344 9.43113 63.9499 9.51753C63.8647 9.60459 63.8228 9.71443 63.8228 9.84704V14.5198C63.8228 14.6531 63.7803 14.7629 63.6958 14.8493C63.6106 14.9364 63.5032 14.9792 63.3735 14.9792H61.5377C61.4074 14.9792 61.3 14.9364 61.2155 14.8493C61.1317 14.7629 61.0891 14.6531 61.0891 14.5198Z" fill="black"/>
<path d="M76.731 12.2038V3.81666C76.731 3.04445 76.9975 2.38543 77.5319 1.8396C78.0657 1.29376 78.7102 1.02118 79.4653 1.02118H88.5847C88.7143 1.02118 88.8218 1.06471 88.9069 1.15111C88.9914 1.23817 89.0339 1.34801 89.0339 1.48062V3.35789C89.0339 3.49117 88.9914 3.601 88.9069 3.6874C88.8218 3.77447 88.7143 3.81733 88.5847 3.81733H79.9139C79.7836 3.81733 79.6762 3.86086 79.5917 3.94726C79.5066 4.03432 79.4647 4.14416 79.4647 4.27677V6.15404C79.4647 6.28732 79.5066 6.39715 79.5917 6.48355C79.6762 6.57061 79.7836 6.61348 79.9139 6.61348H88.5847C88.7143 6.61348 88.8218 6.65701 88.9069 6.74341C88.9914 6.83047 89.0339 6.94031 89.0339 7.07292V8.95019C89.0339 9.08347 88.9914 9.1933 88.9069 9.2797C88.8218 9.36676 88.7143 9.40963 88.5847 9.40963H79.9139C79.7836 9.40963 79.6762 9.45316 79.5917 9.53956C79.5066 9.62662 79.4647 9.73646 79.4647 9.86907V11.7463C79.4647 11.8796 79.5066 11.9895 79.5917 12.0758C79.6762 12.1629 79.7836 12.2058 79.9139 12.2058H88.5847C88.7143 12.2058 88.8218 12.2493 88.9069 12.3357C88.9914 12.4228 89.0339 12.5326 89.0339 12.6652V14.5425C89.0339 14.6758 88.9914 14.7856 88.9069 14.872C88.8218 14.9591 88.7143 15.0019 88.5847 15.0019H79.4653C78.7102 15.0019 78.0657 14.7293 77.5319 14.1835C76.9982 13.635 76.731 12.976 76.731 12.2038Z" fill="black"/>
<path d="M91.0061 14.5398V1.47995C91.0061 1.34734 91.048 1.2375 91.1332 1.15044C91.2177 1.06404 91.3251 1.02051 91.4554 1.02051H93.2912C93.4209 1.02051 93.5283 1.06404 93.6134 1.15044C93.6979 1.2375 93.7405 1.34734 93.7405 1.47995V6.1527C93.7405 6.28598 93.7824 6.39581 93.8675 6.48221C93.952 6.56927 94.0594 6.61214 94.1898 6.61214H95.8887C96.2011 6.61214 96.448 6.49225 96.6307 6.25249L100.771 1.38016C100.953 1.14039 101.2 1.02051 101.513 1.02051H104.227C104.318 1.02051 104.377 1.06069 104.403 1.14039C104.429 1.20736 104.422 1.28706 104.383 1.38016L99.0717 7.65023C98.8634 7.88999 98.8634 8.12976 99.0717 8.36885L104.383 14.6389C104.422 14.732 104.428 14.8124 104.403 14.8787C104.377 14.9584 104.318 14.9986 104.227 14.9986H101.513C101.2 14.9986 100.953 14.8787 100.771 14.6389L96.6307 9.76659C96.448 9.52683 96.2011 9.40695 95.8887 9.40695H94.1898C94.0594 9.40695 93.952 9.45048 93.8675 9.53687C93.7824 9.62394 93.7405 9.73378 93.7405 9.86639V14.5391C93.7405 14.6724 93.6979 14.7822 93.6134 14.8686C93.5283 14.9557 93.4209 14.9986 93.2912 14.9986H91.4554C91.3251 14.9986 91.2177 14.9557 91.1332 14.8686C91.048 14.7829 91.0061 14.6731 91.0061 14.5398Z" fill="black"/>
<path d="M105.389 12.2038V3.81666C105.389 3.04445 105.655 2.38543 106.19 1.8396C106.724 1.29376 107.368 1.02118 108.123 1.02118H117.243C117.372 1.02118 117.48 1.06471 117.565 1.15111C117.649 1.23817 117.692 1.34801 117.692 1.48062V3.35789C117.692 3.49117 117.649 3.601 117.565 3.6874C117.48 3.77447 117.372 3.81733 117.243 3.81733H108.572C108.442 3.81733 108.334 3.86086 108.25 3.94726C108.165 4.03432 108.123 4.14416 108.123 4.27677V11.745C108.123 11.8783 108.165 11.9881 108.25 12.0745C108.334 12.1616 108.442 12.2044 108.572 12.2044H117.243C117.372 12.2044 117.48 12.248 117.565 12.3344C117.649 12.4214 117.692 12.5313 117.692 12.6639V14.5411C117.692 14.6744 117.649 14.7843 117.565 14.8707C117.48 14.9577 117.372 15.0006 117.243 15.0006H108.123C107.367 15.0006 106.723 14.728 106.189 14.1822C105.655 13.635 105.389 12.976 105.389 12.2038Z" fill="black"/>
<path d="M119.663 1.47995C119.663 1.34734 119.705 1.2375 119.79 1.15044C119.875 1.06404 119.982 1.02051 120.113 1.02051H132.884C133.014 1.02051 133.121 1.06404 133.206 1.15044C133.291 1.2375 133.333 1.34734 133.333 1.47995V3.35722C133.333 3.4905 133.291 3.60033 133.206 3.68673C133.121 3.77379 133.014 3.81666 132.884 3.81666H128.314C128.184 3.81666 128.077 3.86019 127.992 3.94659C127.908 4.03365 127.865 4.14349 127.865 4.2761V14.5398C127.865 14.6731 127.823 14.7829 127.738 14.8693C127.653 14.9564 127.546 14.9992 127.416 14.9992H125.58C125.45 14.9992 125.342 14.9564 125.258 14.8693C125.173 14.7829 125.131 14.6731 125.131 14.5398V4.27543C125.131 4.14282 125.088 4.03298 125.004 3.94592C124.919 3.85952 124.812 3.81599 124.682 3.81599H120.112C119.982 3.81599 119.874 3.77312 119.79 3.68606C119.705 3.59966 119.663 3.48983 119.663 3.35655V1.47995H119.663Z" fill="black"/>
<path d="M23.4402 0.370851C23.1972 0.123718 22.8901 -0.000183105 22.5181 -0.000183105H1.61902C1.2457 -0.000183105 0.938536 0.123718 0.696864 0.370851C0.453882 0.619323 0.333374 0.933429 0.333374 1.31451V14.6858C0.333374 15.0669 0.453882 15.3817 0.696864 15.6288C0.938536 15.8766 1.2457 15.9998 1.61902 15.9998H22.5187C22.8907 15.9998 23.1979 15.8766 23.4409 15.6288C23.6825 15.3817 23.8043 15.0669 23.8043 14.6858V1.31451C23.8037 0.933429 23.6825 0.619323 23.4402 0.370851Z" fill="#FF5500"/>
<path d="M21.241 8.30801L17.259 12.38C17.1738 12.4671 17.0762 12.5106 16.9669 12.5106C16.8817 12.5106 16.7841 12.4671 16.6747 12.38L15.469 11.147C15.2738 10.9354 15.2738 10.7298 15.469 10.5309L17.9348 8.00931L15.469 5.469C15.2738 5.25736 15.2738 5.05175 15.469 4.85284L16.6747 3.61986C16.7599 3.53279 16.8575 3.48926 16.9669 3.48926C17.0887 3.48926 17.1863 3.53279 17.259 3.61986L21.241 7.69185C21.4355 7.89144 21.4355 8.09704 21.241 8.30801Z" fill="#215AA8"/>
<path d="M15.1761 8.30801L11.1941 12.38C11.109 12.4671 11.0114 12.5106 10.902 12.5106C10.8169 12.5106 10.7193 12.4671 10.6099 12.38L9.40419 11.147C9.20902 10.9354 9.20902 10.7298 9.40419 10.5309L11.87 8.00931L9.40419 5.469C9.20902 5.25736 9.20902 5.05175 9.40419 4.85284L10.6099 3.61986C10.6951 3.53279 10.7927 3.48926 10.902 3.48926C11.0238 3.48926 11.1214 3.53279 11.1941 3.61986L15.1761 7.69185C15.3707 7.89144 15.3707 8.09704 15.1761 8.30801Z" fill="#215AA8"/>
<path d="M9.0846 8.30783L5.10258 12.3798C5.01744 12.4669 4.91985 12.5104 4.81048 12.5104C4.72534 12.5104 4.62775 12.4669 4.51838 12.3798L3.31264 11.1468C3.11747 10.9352 3.11747 10.7296 3.31264 10.5307L5.77848 8.00913L3.31264 5.46882C3.11747 5.25718 3.11747 5.05157 3.31264 4.85266L4.51838 3.61967C4.60352 3.53261 4.7011 3.48907 4.81048 3.48907C4.9323 3.48907 5.02988 3.53261 5.10258 3.61967L9.0846 7.69167C9.27977 7.89125 9.27977 8.09686 9.0846 8.30783Z" fill="#215AA8"/>
</g>
<defs>
<clipPath id="clip0_1453_361">
<rect width="133" height="16" fill="white" transform="translate(0.333374 -0.000183105)"/>
</clipPath>
</defs>
</svg>
