<svg width="133" height="16" viewBox="0 0 133 16" fill="none" xmlns="http://www.w3.org/2000/svg">
<g clip-path="url(#clip0_1561_5873)">
<path d="M29.4917 14.54V3.81684C29.4917 3.04464 29.7583 2.38562 30.2927 1.83978C30.8265 1.29394 31.4709 1.02136 32.2261 1.02136H40.4278C41.183 1.02136 41.8274 1.29461 42.3612 1.83978C42.895 2.38562 43.1615 3.04464 43.1615 3.81684V9.40847C43.1615 10.1807 42.8943 10.8397 42.3612 11.3855C41.8274 11.9314 41.183 12.2039 40.4278 12.2039H32.6747C32.5444 12.2039 32.437 12.2475 32.3525 12.3339C32.2673 12.4209 32.2254 12.5308 32.2254 12.6634V14.5407C32.2254 14.6739 32.1828 14.7838 32.0983 14.8702C32.0132 14.9572 31.9058 15.0001 31.7761 15.0001H29.9403C29.81 15.0001 29.7026 14.9572 29.6181 14.8702C29.5343 14.7831 29.4917 14.6733 29.4917 14.54ZM39.9785 3.81684H32.6747C32.5444 3.81684 32.437 3.86037 32.3525 3.94677C32.2673 4.03384 32.2254 4.14367 32.2254 4.27628V8.94903C32.2254 9.08231 32.2673 9.19215 32.3525 9.27854C32.437 9.36561 32.5444 9.40847 32.6747 9.40847H39.9779C40.1082 9.40847 40.2156 9.36561 40.3001 9.27854C40.3846 9.19215 40.4272 9.08231 40.4272 8.94903V4.27561C40.4272 4.143 40.3846 4.03317 40.3001 3.9461C40.2156 3.8597 40.1082 3.81684 39.9785 3.81684Z" fill="white"/>
<path d="M45.1337 1.48019C45.1337 1.34758 45.1756 1.23775 45.2607 1.15068C45.3452 1.06428 45.4526 1.02075 45.583 1.02075H47.4187C47.5484 1.02075 47.6558 1.06428 47.741 1.15068C47.8255 1.23775 47.868 1.34758 47.868 1.48019V6.15294C47.868 6.28622 47.9099 6.39606 47.9951 6.48245C48.0796 6.56952 48.187 6.61238 48.3173 6.61238H55.6205C55.7508 6.61238 55.8583 6.56952 55.9427 6.48245C56.0272 6.39606 56.0698 6.28622 56.0698 6.15294V1.48019C56.0698 1.34758 56.1117 1.23775 56.1969 1.15068C56.2813 1.06428 56.3888 1.02075 56.5191 1.02075H58.3549C58.4846 1.02075 58.592 1.06428 58.6771 1.15068C58.7616 1.23775 58.8042 1.34758 58.8042 1.48019V12.204C58.8042 12.9762 58.537 13.6352 58.0038 14.1811C57.4701 14.7269 56.8256 14.9995 56.0705 14.9995H46.9498C46.8195 14.9995 46.7121 14.9566 46.6276 14.8696C46.5424 14.7832 46.5005 14.6733 46.5005 14.54V12.6628C46.5005 12.5302 46.5424 12.4203 46.6276 12.3333C46.7121 12.2469 46.8195 12.2033 46.9498 12.2033H55.6199C55.7502 12.2033 55.8576 12.1605 55.9421 12.0734C56.0266 11.987 56.0691 11.8772 56.0691 11.7439V9.86663C56.0691 9.73402 56.0266 9.62418 55.9421 9.53712C55.8576 9.45072 55.7502 9.40719 55.6199 9.40719H47.868C47.1129 9.40719 46.4684 9.13461 45.9347 8.58877C45.4009 8.04294 45.1337 7.38392 45.1337 6.61171V1.48019Z" fill="white"/>
<path d="M60.7557 14.52V1.46017C60.7557 1.32756 60.7977 1.21773 60.8828 1.13066C60.9673 1.04427 61.0747 1.00073 61.205 1.00073H63.0408C63.1705 1.00073 63.2779 1.04427 63.363 1.13066C63.4475 1.21773 63.4901 1.32756 63.4901 1.46017V6.13292C63.4901 6.2662 63.532 6.37604 63.6172 6.46243C63.7016 6.5495 63.8091 6.59236 63.9394 6.59236H71.2426C71.3729 6.59236 71.4803 6.5495 71.5648 6.46243C71.6493 6.37604 71.6919 6.2662 71.6919 6.13292V1.46017C71.6919 1.32756 71.7338 1.21773 71.8189 1.13066C71.9034 1.04427 72.0108 1.00073 72.1412 1.00073H73.977C74.1066 1.00073 74.214 1.04427 74.2992 1.13066C74.3837 1.21773 74.4262 1.32756 74.4262 1.46017V14.52C74.4262 14.6533 74.3837 14.7631 74.2992 14.8495C74.214 14.9366 74.1066 14.9795 73.977 14.9795H72.1412C72.0108 14.9795 71.9034 14.9366 71.8189 14.8495C71.7338 14.7631 71.6919 14.6533 71.6919 14.52V9.84728C71.6919 9.71467 71.6493 9.60484 71.5648 9.51777C71.4803 9.43137 71.3729 9.38784 71.2426 9.38784H63.9387C63.8084 9.38784 63.701 9.43137 63.6165 9.51777C63.5314 9.60484 63.4894 9.71467 63.4894 9.84728V14.52C63.4894 14.6533 63.4469 14.7631 63.3624 14.8495C63.2772 14.9366 63.1698 14.9795 63.0402 14.9795H61.2044C61.074 14.9795 60.9666 14.9366 60.8821 14.8495C60.7983 14.7631 60.7557 14.6533 60.7557 14.52Z" fill="white"/>
<path d="M76.3976 12.204V3.81684C76.3976 3.04464 76.6641 2.38562 77.1986 1.83978C77.7323 1.29395 78.3768 1.02136 79.1319 1.02136H88.2513C88.381 1.02136 88.4884 1.0649 88.5735 1.15129C88.658 1.23836 88.7006 1.34819 88.7006 1.4808V3.35807C88.7006 3.49135 88.658 3.60119 88.5735 3.68758C88.4884 3.77465 88.381 3.81751 88.2513 3.81751H79.5806C79.4502 3.81751 79.3428 3.86104 79.2584 3.94744C79.1732 4.03451 79.1313 4.14434 79.1313 4.27695V6.15422C79.1313 6.2875 79.1732 6.39734 79.2584 6.48373C79.3428 6.5708 79.4502 6.61366 79.5806 6.61366H88.2513C88.381 6.61366 88.4884 6.65719 88.5735 6.74359C88.658 6.83066 88.7006 6.94049 88.7006 7.0731V8.95037C88.7006 9.08365 88.658 9.19349 88.5735 9.27988C88.4884 9.36695 88.381 9.40981 88.2513 9.40981H79.5806C79.4502 9.40981 79.3428 9.45334 79.2584 9.53974C79.1732 9.62681 79.1313 9.73664 79.1313 9.86925V11.7465C79.1313 11.8798 79.1732 11.9896 79.2584 12.076C79.3428 12.1631 79.4502 12.206 79.5806 12.206H88.2513C88.381 12.206 88.4884 12.2495 88.5735 12.3359C88.658 12.423 88.7006 12.5328 88.7006 12.6654V14.5427C88.7006 14.6759 88.658 14.7858 88.5735 14.8722C88.4884 14.9592 88.381 15.0021 88.2513 15.0021H79.1319C78.3768 15.0021 77.7323 14.7295 77.1986 14.1837C76.6648 13.6352 76.3976 12.9762 76.3976 12.204Z" fill="white"/>
<path d="M90.6727 14.54V1.48019C90.6727 1.34758 90.7146 1.23775 90.7998 1.15068C90.8843 1.06428 90.9917 1.02075 91.122 1.02075H92.9578C93.0875 1.02075 93.1949 1.06428 93.28 1.15068C93.3645 1.23775 93.4071 1.34758 93.4071 1.48019V6.15294C93.4071 6.28622 93.449 6.39606 93.5342 6.48245C93.6186 6.56952 93.7261 6.61238 93.8564 6.61238H95.5553C95.8677 6.61238 96.1146 6.4925 96.2973 6.25273L100.437 1.3804C100.619 1.14063 100.867 1.02075 101.179 1.02075H103.894C103.985 1.02075 104.043 1.06094 104.069 1.14063C104.096 1.20761 104.089 1.28731 104.05 1.3804L98.7383 7.65047C98.53 7.89024 98.53 8.13 98.7383 8.3691L104.05 14.6392C104.089 14.7323 104.095 14.8126 104.069 14.8789C104.043 14.9586 103.984 14.9988 103.894 14.9988H101.179C100.867 14.9988 100.619 14.8789 100.437 14.6392L96.2973 9.76684C96.1146 9.52707 95.8677 9.40719 95.5553 9.40719H93.8564C93.7261 9.40719 93.6186 9.45072 93.5342 9.53712C93.449 9.62418 93.4071 9.73402 93.4071 9.86663V14.5394C93.4071 14.6727 93.3645 14.7825 93.28 14.8689C93.1949 14.956 93.0875 14.9988 92.9578 14.9988H91.122C90.9917 14.9988 90.8843 14.956 90.7998 14.8689C90.7146 14.7832 90.6727 14.6733 90.6727 14.54Z" fill="white"/>
<path d="M105.056 12.204V3.81684C105.056 3.04464 105.322 2.38562 105.857 1.83978C106.39 1.29395 107.035 1.02136 107.79 1.02136H116.909C117.039 1.02136 117.146 1.0649 117.232 1.15129C117.316 1.23836 117.359 1.34819 117.359 1.4808V3.35807C117.359 3.49135 117.316 3.60119 117.232 3.68758C117.146 3.77465 117.039 3.81751 116.909 3.81751H108.239C108.108 3.81751 108.001 3.86104 107.916 3.94744C107.831 4.03451 107.789 4.14434 107.789 4.27695V11.7452C107.789 11.8785 107.831 11.9883 107.916 12.0747C108.001 12.1618 108.108 12.2046 108.239 12.2046H116.909C117.039 12.2046 117.146 12.2482 117.232 12.3345C117.316 12.4216 117.359 12.5315 117.359 12.6641V14.5413C117.359 14.6746 117.316 14.7844 117.232 14.8708C117.146 14.9579 117.039 15.0008 116.909 15.0008H107.789C107.034 15.0008 106.39 14.7282 105.856 14.1824C105.322 13.6352 105.056 12.9762 105.056 12.204Z" fill="white"/>
<path d="M119.33 1.48019C119.33 1.34758 119.372 1.23775 119.457 1.15068C119.542 1.06428 119.649 1.02075 119.779 1.02075H132.551C132.68 1.02075 132.788 1.06428 132.873 1.15068C132.957 1.23775 133 1.34758 133 1.48019V3.35746C133 3.49074 132.957 3.60058 132.873 3.68697C132.788 3.77404 132.68 3.8169 132.551 3.8169H127.981C127.851 3.8169 127.743 3.86043 127.659 3.94683C127.574 4.0339 127.532 4.14373 127.532 4.27634V14.54C127.532 14.6733 127.489 14.7832 127.405 14.8696C127.32 14.9566 127.212 14.9995 127.082 14.9995H125.247C125.116 14.9995 125.009 14.9566 124.924 14.8696C124.839 14.7832 124.797 14.6733 124.797 14.54V4.27567C124.797 4.14306 124.755 4.03323 124.67 3.94616C124.585 3.85976 124.478 3.81623 124.348 3.81623H119.779C119.648 3.81623 119.541 3.77337 119.456 3.6863C119.371 3.59991 119.329 3.49007 119.329 3.35679V1.48019H119.33Z" fill="white"/>
<path d="M23.1068 0.371034C22.8638 0.123901 22.5567 0 22.1847 0H1.28564C0.912327 0 0.605162 0.123901 0.36349 0.371034C0.120508 0.619506 0 0.933612 0 1.31469V14.686C0 15.0671 0.120508 15.3818 0.36349 15.629C0.605162 15.8768 0.912327 16 1.28564 16H22.1853C22.5573 16 22.8645 15.8768 23.1075 15.629C23.3492 15.3818 23.471 15.0671 23.471 14.686V1.31469C23.4703 0.933612 23.3492 0.619506 23.1068 0.371034Z" fill="white"/>
<path d="M20.9076 8.30826L16.9256 12.3803C16.8404 12.4673 16.7429 12.5109 16.6335 12.5109C16.5483 12.5109 16.4507 12.4673 16.3414 12.3803L15.1356 11.1473C14.9405 10.9356 14.9405 10.73 15.1356 10.5311L17.6015 8.00955L15.1356 5.46924C14.9405 5.25761 14.9405 5.052 15.1356 4.85309L16.3414 3.6201C16.4265 3.53303 16.5241 3.4895 16.6335 3.4895C16.7553 3.4895 16.8529 3.53303 16.9256 3.6201L20.9076 7.6921C21.1021 7.89168 21.1021 8.09729 20.9076 8.30826Z" fill="black"/>
<path d="M14.8428 8.30826L10.8608 12.3803C10.7756 12.4673 10.678 12.5109 10.5687 12.5109C10.4835 12.5109 10.3859 12.4673 10.2766 12.3803L9.07082 11.1473C8.87565 10.9356 8.87565 10.73 9.07082 10.5311L11.5367 8.00955L9.07082 5.46924C8.87565 5.25761 8.87565 5.052 9.07082 4.85309L10.2766 3.6201C10.3617 3.53303 10.4593 3.4895 10.5687 3.4895C10.6905 3.4895 10.7881 3.53303 10.8608 3.6201L14.8428 7.6921C15.0373 7.89168 15.0373 8.09729 14.8428 8.30826Z" fill="black"/>
<path d="M8.75122 8.30801L4.76921 12.38C4.68406 12.4671 4.58648 12.5106 4.4771 12.5106C4.39196 12.5106 4.29438 12.4671 4.185 12.38L2.97926 11.147C2.78409 10.9354 2.78409 10.7298 2.97926 10.5309L5.4451 8.00931L2.97926 5.469C2.78409 5.25736 2.78409 5.05175 2.97926 4.85284L4.185 3.61986C4.27014 3.53279 4.36773 3.48926 4.4771 3.48926C4.59892 3.48926 4.69651 3.53279 4.76921 3.61986L8.75122 7.69185C8.94639 7.89144 8.94639 8.09704 8.75122 8.30801Z" fill="black"/>
</g>
<defs>
<clipPath id="clip0_1561_5873">
<rect width="133" height="16" fill="white"/>
</clipPath>
</defs>
</svg>
