<svg width="162" height="38" viewBox="0 0 162 38" fill="none" xmlns="http://www.w3.org/2000/svg">
<mask id="mask0_1453_2098" style="mask-type:luminance" maskUnits="userSpaceOnUse" x="5" y="0" width="153" height="37">
<path d="M157.667 0.999756H5.66675V36.6034H157.667V0.999756Z" fill="white"/>
</mask>
<g mask="url(#mask0_1453_2098)">
<path d="M103.069 17.429V15.7744C103.069 15.3823 103.393 15.0616 103.789 15.0616H110.844C116.035 15.0616 117.178 21.7108 113.344 23.6455C112.964 23.839 112.876 24.338 113.123 24.6791L114.667 26.7767C115.012 27.2502 114.672 27.907 114.085 27.907H112.032C111.801 27.907 111.585 27.795 111.451 27.6117L109.254 24.6078C109.12 24.4245 108.904 24.3125 108.672 24.3125H106.908C106.511 24.3125 106.187 24.6333 106.187 25.0253V27.1942C106.187 27.5862 105.863 27.907 105.467 27.907H103.795C103.398 27.907 103.074 27.5862 103.074 27.1942V19.6336C103.074 19.2416 103.398 18.9208 103.795 18.9208H105.467C105.863 18.9208 106.187 19.2416 106.187 19.6336V20.5042C106.187 20.8962 106.511 21.217 106.908 21.217H111.142C111.266 21.217 111.389 21.1915 111.492 21.1304C112.12 20.7791 112.439 20.2955 112.439 19.6845C112.439 19.0735 112.13 18.595 111.508 18.2284C111.399 18.1673 111.271 18.1367 111.142 18.1367H103.795C103.398 18.1367 103.074 17.816 103.074 17.424" fill="#00246B"/>
<path d="M71.4299 17.429V15.7744C71.4299 15.3823 71.7541 15.0616 72.1503 15.0616H79.2046C84.3963 15.0616 85.5386 21.7108 81.7053 23.6455C81.3245 23.839 81.2371 24.338 81.484 24.6791L83.0276 26.7767C83.3724 27.2502 83.0328 27.907 82.4462 27.907H80.3932C80.1617 27.907 79.9456 27.795 79.8118 27.6117L77.6147 24.6078C77.4809 24.4245 77.2648 24.3125 77.0333 24.3125H75.2684C74.8722 24.3125 74.548 24.6333 74.548 25.0253V27.1942C74.548 27.5862 74.2239 27.907 73.8277 27.907H72.1554C71.7592 27.907 71.4351 27.5862 71.4351 27.1942V19.6336C71.4351 19.2416 71.7592 18.9208 72.1554 18.9208H73.8277C74.2239 18.9208 74.548 19.2416 74.548 19.6336V20.5042C74.548 20.8962 74.8722 21.217 75.2684 21.217H79.5031C79.6265 21.217 79.75 21.1915 79.8529 21.1304C80.4807 20.7791 80.7997 20.2955 80.7997 19.6845C80.7997 19.0735 80.491 18.595 79.8684 18.2284C79.7603 18.1673 79.6317 18.1367 79.5031 18.1367H72.1554C71.7592 18.1367 71.4351 17.816 71.4351 17.424" fill="#00246B"/>
<path d="M99.529 23.9816C99.529 23.9816 99.5392 23.9613 99.5444 23.9511C99.601 23.8136 99.6524 23.6711 99.6988 23.5336C99.7142 23.4929 99.7296 23.4521 99.7399 23.4114C99.9406 22.7903 100.043 22.1488 100.043 21.4869C100.043 21.3087 100.033 21.1356 100.018 20.9574C100.018 20.9472 100.018 20.937 100.018 20.9268C100.002 20.7232 99.9715 20.5195 99.9354 20.3159C99.9354 20.3159 99.9354 20.3108 99.9354 20.3057C99.8994 20.1275 99.8583 19.9493 99.8068 19.7762C99.8017 19.7457 99.7965 19.7202 99.7862 19.6896C99.7862 19.6896 99.7862 19.6795 99.7811 19.6744C99.7502 19.5675 99.709 19.4605 99.673 19.3536C99.637 19.2467 99.601 19.1398 99.5547 19.0329C99.5547 19.0329 99.5547 19.0227 99.5495 19.0176C99.5392 18.9921 99.5238 18.9667 99.5135 18.9412C99.3592 18.5797 99.1739 18.2386 98.9475 17.9077C98.9475 17.9077 98.9475 17.9077 98.9475 17.9026C98.8446 17.7499 98.7366 17.6022 98.6234 17.4596C98.2014 16.9454 97.7178 16.5076 97.1724 16.1461C97.1466 16.1257 97.1158 16.1104 97.09 16.0952C96.9563 16.0086 96.8225 15.9221 96.6836 15.8457C96.6733 15.8406 96.6578 15.8355 96.6475 15.8304C96.5601 15.7846 96.4674 15.7439 96.3748 15.6981C96.2771 15.6522 96.1793 15.6013 96.0815 15.5606C96.0713 15.5606 96.061 15.5504 96.0455 15.5453C95.9015 15.4842 95.7574 15.4384 95.6082 15.3875C95.5721 15.3773 95.5361 15.362 95.5001 15.3467C94.8724 15.1482 94.2241 15.0515 93.5552 15.0515C93.3699 15.0515 93.1898 15.0616 93.0097 15.0769C93.0046 15.0769 92.9995 15.0769 92.9892 15.0769C92.593 15.1125 92.2071 15.1838 91.8263 15.2857C91.7954 15.2907 91.7697 15.2958 91.7388 15.306C91.7388 15.306 91.7285 15.306 91.7234 15.3111C91.6153 15.3417 91.5073 15.3824 91.3992 15.4231C91.2912 15.4588 91.1831 15.4944 91.0802 15.5351C91.0802 15.5351 91.0699 15.5351 91.0648 15.5402C91.0339 15.5504 91.0082 15.5708 90.9773 15.5809C90.8127 15.6522 90.648 15.7286 90.4885 15.8101C90.4834 15.8101 90.4731 15.8202 90.4679 15.8202C90.293 15.917 90.118 16.0137 89.9534 16.1257C89.9328 16.141 89.9122 16.1563 89.8916 16.1715C89.7579 16.2632 89.6241 16.3548 89.4903 16.4567C89.4749 16.4719 89.4594 16.4872 89.4388 16.4974L88.8163 17.0422C88.7854 17.0676 88.7545 17.0982 88.7288 17.1287C87.9775 18.0044 87.4836 18.9514 87.2366 19.9697C87.1389 20.3821 87.4373 20.7945 87.8644 20.8403L89.4234 21.0083C89.7784 21.049 90.1026 20.8148 90.2004 20.4737C90.3599 19.9137 90.6583 19.4249 91.0854 19.0125C91.2191 18.8852 91.3632 18.7681 91.5073 18.6612C91.8366 18.4219 92.1865 18.2488 92.5569 18.1419C92.5827 18.1317 92.6135 18.1266 92.6444 18.1215C92.7216 18.1012 92.7988 18.0808 92.8811 18.0655C92.9171 18.0604 92.9583 18.0553 92.9943 18.0502C93.0715 18.0401 93.1487 18.0248 93.2258 18.0197C93.2361 18.0197 93.2464 18.0197 93.2516 18.0197C93.4728 18.0044 93.6992 18.0095 93.9359 18.035C94.2858 18.0757 94.61 18.1572 94.9135 18.2793C95.3149 18.4525 95.6853 18.7019 96.0198 19.0329C96.1587 19.1703 96.2822 19.318 96.3903 19.4656C96.4211 19.5064 96.452 19.5471 96.4777 19.5827C96.4829 19.5929 96.488 19.6031 96.4983 19.6133C96.5549 19.6998 96.6115 19.7864 96.6578 19.878C96.7093 19.9748 96.7556 20.0715 96.7916 20.1682C96.8122 20.2191 96.8328 20.2751 96.8482 20.3312C96.8636 20.377 96.8842 20.4228 96.8945 20.4635C96.9563 20.6672 96.9974 20.881 97.018 21.0999C97.018 21.105 97.018 21.1101 97.018 21.1152C97.018 21.1661 97.018 21.2221 97.0231 21.273C97.0283 21.4563 97.0232 21.6396 97.0077 21.828C96.9563 22.2964 96.8276 22.719 96.6218 23.1008C96.4623 23.3859 96.2616 23.6507 96.0095 23.9002C95.8397 24.0682 95.6648 24.2107 95.4847 24.3329C95.4795 24.3329 95.4692 24.3431 95.4641 24.3482C95.3972 24.394 95.3303 24.4297 95.2634 24.4704C95.2326 24.4908 95.1965 24.5111 95.1657 24.5264C95.0936 24.562 95.0216 24.5977 94.9496 24.6282C94.9238 24.6384 94.8981 24.6537 94.8672 24.6639C94.5637 24.7911 94.2395 24.8675 93.8999 24.8981C93.8999 24.8981 93.8948 24.8981 93.8896 24.8981C93.8382 24.8981 93.7816 24.8981 93.725 24.9032C93.5397 24.9082 93.3545 24.9032 93.1641 24.8879C92.7113 24.837 92.2894 24.7148 91.9035 24.5111C91.7337 24.4246 91.5845 24.3227 91.4353 24.2107C91.3632 24.1547 91.2912 24.0936 91.2191 24.0325C91.1523 23.9765 91.0905 23.9104 91.0288 23.8493C90.7303 23.5438 90.4936 23.2027 90.3238 22.8259C90.2261 22.6121 90.1541 22.388 90.1077 22.164C90.0357 21.8178 89.7373 21.5633 89.3822 21.5734L87.8232 21.6142C87.391 21.6243 87.0565 22.0062 87.1234 22.4288C87.2057 22.9685 87.3601 23.4929 87.5814 23.9969C87.9107 24.7555 88.3635 25.4225 88.95 25.9978C89.552 26.5935 90.2518 27.0568 91.0442 27.3826C91.8366 27.7136 92.6701 27.8765 93.5346 27.8765C93.7044 27.8765 93.8742 27.8663 94.044 27.851C94.0645 27.851 94.0851 27.851 94.1057 27.851C94.3115 27.8358 94.5122 27.8052 94.7129 27.7696C94.7129 27.7696 94.7232 27.7696 94.7283 27.7696C94.9084 27.7339 95.0885 27.6932 95.2634 27.6423C95.2943 27.6321 95.32 27.6321 95.3457 27.6219C95.3457 27.6219 95.356 27.6219 95.3612 27.6219C95.4692 27.5914 95.5773 27.5506 95.6853 27.5099C95.7934 27.4743 95.9066 27.4386 96.0095 27.3928C96.0095 27.3928 96.0198 27.3928 96.0249 27.3877C96.0507 27.3775 96.0764 27.3623 96.1021 27.3521C96.2719 27.2808 96.4417 27.2044 96.6064 27.1179C96.7916 27.0211 96.9665 26.9142 97.1415 26.7971C97.1518 26.792 97.1569 26.7869 97.1672 26.7819C97.3164 26.6851 97.4605 26.5833 97.5994 26.4713C98.1191 26.0589 98.5616 25.5752 98.9269 25.0355C98.9475 25.005 98.9681 24.9693 98.9887 24.9337C99.071 24.8064 99.1533 24.6791 99.2254 24.5468C99.2305 24.5366 99.2357 24.5264 99.2408 24.5162C99.2923 24.4246 99.3334 24.3329 99.3746 24.2413C99.4209 24.1446 99.4724 24.0529 99.5135 23.9562" fill="#00246B"/>
<path d="M60.9181 25.3567C60.9181 25.0461 60.7072 24.7763 60.4088 24.6796C59.9817 24.5421 59.5958 24.3028 59.251 23.9566C58.6593 23.3813 58.3609 22.6939 58.3609 21.8844V15.7799C58.3609 15.3879 58.0367 15.0671 57.6405 15.0671H55.9683C55.5721 15.0671 55.2479 15.3879 55.2479 15.7799V21.8844C55.2479 22.6787 55.4023 23.4475 55.711 24.1857C56.0197 24.9239 56.4622 25.5756 57.0437 26.1357C57.6097 26.711 58.2683 27.1488 59.0144 27.4543C59.3488 27.5918 59.6884 27.6936 60.0331 27.77C60.4859 27.8667 60.9181 27.5307 60.9181 27.0725V25.3567Z" fill="#00246B"/>
<path d="M65.0651 15.0616C64.6689 15.0616 64.3447 15.3823 64.3447 15.7744V21.8789C64.3447 22.6833 64.0463 23.3757 63.4546 23.951C63.1098 24.2972 62.7239 24.5365 62.2969 24.674C61.9984 24.7707 61.7875 25.0406 61.7875 25.3511V27.0669C61.7875 27.5251 62.2197 27.8612 62.6725 27.7644C63.0172 27.6931 63.3568 27.5862 63.6913 27.4488C64.4374 27.1433 65.1011 26.7054 65.6722 26.1403C66.2485 25.5701 66.6859 24.9184 66.9946 24.1801C67.3033 23.4419 67.4577 22.6731 67.4577 21.8789V15.7744C67.4577 15.3823 67.1335 15.0616 66.7373 15.0616H65.0651Z" fill="#00246B"/>
<path d="M124.165 15.0616H124.145C123.841 15.0616 123.568 15.2398 123.45 15.5147L118.541 26.8684C118.33 27.3622 118.696 27.907 119.236 27.907H120.985C121.289 27.907 121.562 27.7288 121.68 27.4539L124.86 20.1071C124.901 20.0155 124.922 19.9136 124.922 19.8118V15.8049C124.922 15.3925 124.582 15.0565 124.165 15.0565" fill="#00246B"/>
<path d="M126.543 15.0616C126.126 15.0616 125.786 15.3976 125.786 15.81V19.8169C125.786 19.9187 125.807 20.0154 125.848 20.1122L126.892 22.5255L128.225 25.6057L129.028 27.464C129.146 27.739 129.419 27.9172 129.722 27.9172H131.472C132.012 27.9172 132.377 27.3673 132.166 26.8734L127.237 15.5198C127.119 15.2449 126.846 15.0667 126.543 15.0667" fill="#00246B"/>
<path d="M45.3636 15.0616C45.0549 15.0616 44.7822 15.2398 44.6587 15.5198L39.7552 26.8531C39.5391 27.3521 39.9095 27.907 40.4601 27.907H42.1838C42.4874 27.907 42.7652 27.7288 42.8887 27.4488L46.0634 20.1071C46.1046 20.0155 46.1252 19.9136 46.1252 19.8118V15.8151C46.1252 15.3976 45.7804 15.0565 45.3585 15.0565" fill="#00246B"/>
<path d="M47.751 15.0616C47.3342 15.0616 46.9946 15.3976 46.9946 15.81V19.8169C46.9946 19.9187 47.0152 20.0154 47.0564 20.1122L48.1009 22.5255L49.4335 25.6057L50.2362 27.464C50.3546 27.739 50.6273 27.9172 50.9309 27.9172H52.6803C53.2206 27.9172 53.5859 27.3673 53.3749 26.8734L48.4456 15.5198C48.3273 15.2449 48.0546 15.0667 47.751 15.0667" fill="#00246B"/>
<path d="M140.08 17.7043C140.064 17.6076 140.039 17.5109 139.998 17.4345C139.931 17.3123 139.838 17.2156 139.72 17.1494C139.601 17.0781 139.462 17.0475 139.303 17.0475C139.143 17.0475 139.005 17.0832 138.886 17.1494C138.763 17.2156 138.67 17.3123 138.603 17.4396C138.562 17.521 138.536 17.6076 138.521 17.7094H140.085L140.08 17.7043Z" fill="#00246B"/>
<path d="M148.23 14.8427H135.279C134.656 14.8427 134.147 15.3416 134.147 15.9627V16.4668H135.449V15.698H136.375V16.4668H137.173V17.1745H136.375V18.4626C136.375 18.595 136.411 18.7019 136.483 18.7731C136.555 18.8444 136.653 18.8801 136.776 18.8801C136.926 18.8801 137.049 18.8393 137.152 18.763L137.404 19.4096C137.312 19.4758 137.193 19.5267 137.059 19.5572C136.926 19.5929 136.792 19.6081 136.648 19.6081C136.272 19.6081 135.979 19.5114 135.768 19.323C135.557 19.1346 135.454 18.8495 135.454 18.4728V17.1745H134.183H134.152V19.2466C134.152 19.8627 134.656 20.3667 135.284 20.3667H148.235C148.858 20.3667 149.367 19.8678 149.367 19.2466V15.9627C149.367 15.3467 148.863 14.8427 148.235 14.8427M140.954 18.1113C140.954 18.1571 140.944 18.1978 140.944 18.2386H138.526C138.546 18.32 138.572 18.4015 138.613 18.4728C138.69 18.6051 138.799 18.707 138.943 18.7731C139.082 18.8444 139.251 18.875 139.437 18.875C139.606 18.875 139.756 18.8495 139.884 18.7986C140.013 18.7477 140.131 18.6713 140.239 18.5695L140.733 19.099C140.584 19.2619 140.404 19.3892 140.183 19.4808C139.961 19.5674 139.704 19.6132 139.416 19.6132C139.051 19.6132 138.732 19.5419 138.454 19.3994C138.176 19.2568 137.965 19.0634 137.816 18.819C137.667 18.5746 137.589 18.2946 137.589 17.9789C137.589 17.6632 137.661 17.3781 137.811 17.1337C137.96 16.8894 138.161 16.6959 138.418 16.5584C138.675 16.421 138.968 16.3497 139.292 16.3497C139.617 16.3497 139.889 16.4159 140.141 16.5482C140.394 16.6806 140.594 16.869 140.738 17.1134C140.888 17.3578 140.96 17.6531 140.96 17.9942C140.96 18.0298 140.96 18.0705 140.954 18.1164M142.39 18.4473C142.462 18.5746 142.565 18.6764 142.688 18.7477C142.817 18.819 142.956 18.8546 143.116 18.8546C143.26 18.8546 143.399 18.819 143.522 18.7528C143.645 18.6866 143.754 18.5746 143.836 18.4218L144.556 18.8088C144.438 19.0634 144.253 19.2619 144.001 19.3994C143.754 19.5368 143.455 19.6081 143.121 19.6081C142.786 19.6081 142.467 19.5368 142.2 19.3994C141.932 19.2619 141.716 19.0684 141.567 18.819C141.412 18.5695 141.335 18.2895 141.335 17.9789C141.335 17.6683 141.412 17.3781 141.567 17.1337C141.721 16.8894 141.932 16.6959 142.2 16.5584C142.467 16.421 142.776 16.3497 143.121 16.3497C143.465 16.3497 143.754 16.421 144.001 16.5584C144.253 16.6959 144.433 16.8995 144.556 17.1541L143.836 17.536C143.754 17.3883 143.651 17.2763 143.522 17.205C143.399 17.1337 143.26 17.0981 143.116 17.0981C142.956 17.0981 142.812 17.1337 142.688 17.205C142.56 17.2763 142.462 17.373 142.39 17.5054C142.318 17.6327 142.282 17.7905 142.282 17.9738C142.282 18.1571 142.318 18.3149 142.39 18.4422M148.343 19.5623H147.417V17.8924C147.417 17.6378 147.36 17.4494 147.247 17.3272C147.134 17.205 146.975 17.1439 146.769 17.1439C146.62 17.1439 146.491 17.1745 146.373 17.2356C146.254 17.2967 146.167 17.3883 146.1 17.5156C146.033 17.6429 146.002 17.8007 146.002 17.9993V19.5674H145.076V15.199H146.002V16.7315C146.084 16.6501 146.177 16.5788 146.285 16.5228C146.501 16.4108 146.743 16.3497 147.016 16.3497C147.268 16.3497 147.494 16.4006 147.695 16.5024C147.896 16.6042 148.055 16.757 148.168 16.9606C148.281 17.1643 148.338 17.429 148.338 17.7498V19.5623H148.343Z" fill="#00246B"/>
<path d="M30.2515 21.6652C31.6407 23.5083 31.651 26.0488 30.2515 27.8919C28.8519 26.0488 28.8622 23.5083 30.2515 21.6652Z" fill="#00246B"/>
<path d="M15.9524 21.6652C17.3417 23.5083 17.352 26.0488 15.9524 27.8919C14.5529 26.0488 14.5632 23.5083 15.9524 21.6652Z" fill="#00246B"/>
<path d="M32.6338 25.9929C33.987 26.4257 33.9922 27.3065 32.6338 27.7392C31.2754 27.3065 31.2806 26.4257 32.6338 25.9929Z" fill="#00246B"/>
<path d="M13.5701 25.9929C14.9233 26.4257 14.9285 27.3065 13.5701 27.7392C12.2117 27.3065 12.2168 26.4257 13.5701 25.9929Z" fill="#00246B"/>
<path d="M27.8692 14.7919C28.6718 16.8997 28.8725 19.0534 28.8982 21.2579C28.8777 23.4624 28.677 25.6161 27.8692 27.7239C27.0613 25.6161 26.8607 23.4624 26.8401 21.2579C26.8658 19.0585 27.0665 16.8997 27.8692 14.7919Z" fill="#00246B"/>
<path d="M18.3347 14.7919C19.1374 16.8997 19.3381 19.0534 19.3638 21.2579C19.3432 23.4624 19.1426 25.6161 18.3347 27.7239C17.5269 25.6161 17.3262 23.4624 17.3057 21.2579C17.3314 19.0585 17.5321 16.8997 18.3347 14.7919Z" fill="#00246B"/>
<path d="M25.4868 9.81787C26.2947 12.7657 26.4902 15.7544 26.5159 18.7735C26.4953 21.7927 26.2998 24.7762 25.4868 27.7291C24.6739 24.7813 24.4783 21.7927 24.4578 18.7735C24.4835 15.7544 24.679 12.7708 25.4868 9.81787Z" fill="#00246B"/>
<path d="M20.7171 9.81787C21.5249 12.7657 21.7204 15.7544 21.7461 18.7735C21.7256 21.7927 21.53 24.7762 20.7171 27.7291C19.9041 24.7813 19.7086 21.7927 19.688 18.7735C19.7137 15.7544 19.9092 12.7708 20.7171 9.81787Z" fill="#00246B"/>
<path d="M23.1045 8.00525C23.9175 11.2637 24.1079 14.5578 24.1336 17.8773C24.113 21.1969 23.9175 24.4909 23.1045 27.7494C22.2915 24.4909 22.096 21.202 22.0754 17.8773C22.1012 14.5578 22.2915 11.2637 23.1045 8.00525Z" fill="#00246B"/>
</g>
</svg>
