<svg width="68" height="34" viewBox="0 0 68 34" fill="none" xmlns="http://www.w3.org/2000/svg">
<g clip-path="url(#clip0_1453_1064)">
<path d="M4.85899 31.1388L6.23961 31.2196C6.17324 31.8111 5.95021 32.2671 5.57054 32.5824C5.19087 32.8977 4.72359 33.0567 4.16603 33.0567C3.49696 33.0567 2.95798 32.8378 2.54645 32.4052C2.13492 31.9701 1.93048 31.3734 1.93048 30.6073C1.93048 29.8412 2.1243 29.2392 2.51459 28.7728C2.90488 28.3064 3.44651 28.0745 4.14479 28.0745C4.79527 28.0745 5.29707 28.2517 5.64754 28.606C5.99801 28.9604 6.19448 29.4295 6.23961 30.0158L4.82979 30.0887C4.82979 29.7656 4.76607 29.5337 4.64128 29.3878C4.51384 29.2445 4.36515 29.1715 4.19523 29.1715C3.71998 29.1715 3.48103 29.6405 3.48103 30.5812C3.48103 31.1076 3.54209 31.4646 3.66688 31.6522C3.78901 31.8424 3.96424 31.9362 4.18727 31.9362C4.58552 31.9362 4.8112 31.6704 4.85899 31.1362V31.1388ZM7.71847 32.9837V28.1526H11.7887V32.9837H10.3204V29.1871H9.18406V32.9837H7.71582H7.71847ZM17.2713 31.8294V32.9837H13.5675V28.1526H17.2713V29.2679H15.049V29.9689H16.8465V31.0424H15.049V31.832H17.2713V31.8294ZM18.798 32.9837V28.1526H20.2662V31.845H21.3256V28.1526H22.7938V31.845H23.3699V34H22.4194L22.2973 32.9837H18.8006H18.798ZM24.6258 32.9837V28.1526H28.6986V32.9837H27.2304V29.1871H26.094V32.9837H24.6258ZM32.6042 33.0567C31.9112 33.0567 31.3457 32.83 30.9103 32.3792C30.4722 31.9284 30.2545 31.3265 30.2545 30.5708C30.2545 29.8151 30.4616 29.2523 30.8811 28.7806C31.2979 28.309 31.8767 28.0745 32.6175 28.0745C33.3025 28.0745 33.86 28.296 34.2928 28.7389C34.7229 29.1819 34.9406 29.776 34.9406 30.5161C34.9406 31.2561 34.7229 31.8971 34.2875 32.3609C33.8521 32.8248 33.2918 33.0567 32.6042 33.0567ZM32.5962 31.9597C32.8511 31.9597 33.0343 31.8502 33.1458 31.6313C33.2573 31.4151 33.3131 31.0138 33.3131 30.4327C33.3131 29.591 33.0847 29.1715 32.6254 29.1715C32.1289 29.1715 31.882 29.651 31.882 30.6073C31.882 31.5063 32.121 31.9571 32.5962 31.9571V31.9597ZM39.2126 31.1388L40.5959 31.2196C40.5295 31.8111 40.3065 32.2671 39.9268 32.5824C39.5471 32.8977 39.0772 33.0567 38.5223 33.0567C37.8532 33.0567 37.3142 32.8378 36.9027 32.4052C36.4912 31.9701 36.2867 31.3734 36.2867 30.6073C36.2867 29.8412 36.4805 29.2392 36.8708 28.7728C37.2585 28.3064 37.8028 28.0745 38.501 28.0745C39.1515 28.0745 39.6533 28.2517 40.0038 28.606C40.3543 28.9604 40.5507 29.4295 40.5985 30.0158L39.1887 30.0887C39.1887 29.7656 39.125 29.5337 39.0002 29.3878C38.8727 29.2445 38.7241 29.1715 38.5541 29.1715C38.0789 29.1715 37.8399 29.6405 37.8399 30.5812C37.8399 31.1076 37.901 31.4646 38.0258 31.6522C38.1479 31.8424 38.3231 31.9362 38.5462 31.9362C38.9444 31.9362 39.1701 31.6704 39.2179 31.1362L39.2126 31.1388ZM44.1775 29.3096V32.9837H42.7465V29.3096H41.7269V28.1526H45.1997V29.3096H44.1775ZM49.0548 32.9837L48.7761 32.0326H47.4565L47.1618 32.9837H45.9352L47.4565 28.1526H49.0548L50.5948 32.9837H49.0548ZM47.7114 30.9747H48.5105L48.1096 29.5728L47.7087 30.9747H47.7114ZM51.9727 32.9837V28.1526H54.4711C54.9915 28.1526 55.3685 28.2803 55.6075 28.5383C55.8438 28.7963 55.9659 29.0907 55.9659 29.4216C55.9659 29.6614 55.8969 29.8803 55.7562 30.0731C55.6181 30.2685 55.4137 30.4014 55.1375 30.4744C55.7747 30.6255 56.0933 31.0007 56.0933 31.6001C56.0933 31.9597 55.9818 32.2802 55.7562 32.5616C55.5331 32.843 55.0526 32.9837 54.3145 32.9837H51.9701H51.9727ZM53.364 30.0027H54.0622C54.2375 30.0027 54.3623 29.9584 54.4339 29.8724C54.5056 29.7864 54.5428 29.69 54.5428 29.591C54.5428 29.3226 54.3729 29.1871 54.0357 29.1871H53.3613V30.0001L53.364 30.0027ZM53.364 31.9049H54.0994C54.2826 31.9049 54.4154 31.8606 54.503 31.772C54.5879 31.6834 54.6304 31.5844 54.6304 31.4724C54.6304 31.3603 54.5879 31.2587 54.5056 31.1675C54.4233 31.0737 54.272 31.0268 54.049 31.0268H53.364V31.9049ZM62.0805 32.9837H60.4237L59.5715 31.1571L59.0617 31.8685V32.9837H57.6386V28.1526H59.0617V30.1487L60.4211 28.1526H61.7778L60.5326 29.9193L62.0752 32.9863L62.0805 32.9837ZM66.1268 32.9837L65.848 32.0326H64.5284L64.2337 32.9837H63.0071L64.5284 28.1526H66.1268L67.6667 32.9837H66.1268ZM64.7833 30.9747H65.5825L65.1816 29.5728L64.7806 30.9747H64.7833Z" fill="#1D2362"/>
<path d="M59.3537 0.737427C53.2657 0.737427 48.2689 5.52943 48.0751 11.4601H49.3415C49.5247 10.5612 50.3319 9.88626 51.301 9.88626C52.27 9.88626 53.0772 10.5638 53.2604 11.4601H54.5932C54.9569 8.23681 57.7607 5.70922 61.1379 5.70922H67.2657V0.737427H59.3563H59.3537Z" fill="#006DB1"/>
<path d="M54.5534 12.2341H53.2604C53.0772 13.1331 52.27 13.808 51.301 13.808C50.3319 13.808 49.5247 13.1305 49.3415 12.2341H48.0645V12.5572C48.0645 18.6521 53.1435 23.6369 59.3537 23.6369H67.2631V18.6364H61.1352C57.535 18.6364 54.5852 15.7623 54.5507 12.2341H54.5534Z" fill="#1D2362"/>
<path d="M45.2502 12.2341C45.067 13.133 44.2598 13.8079 43.2907 13.8079C42.3216 13.8079 41.5145 13.1304 41.3313 12.2341H29.9173V14.6235H39.64C38.6497 16.9713 36.2894 18.6338 33.552 18.6338H27.4242V23.6343H35.3336C41.5437 23.6343 46.6228 18.6494 46.6228 12.5546V12.2314H45.2475L45.2502 12.2341Z" fill="#1D2362"/>
<path d="M39.2818 9.00032H29.9174V11.4628H41.3315C41.5147 10.5638 42.3218 9.88889 43.2909 9.88889C44.26 9.88889 45.0671 10.5664 45.2503 11.4628H46.615C46.4212 5.53205 41.4217 0.740051 35.3364 0.740051H27.427V5.71185H33.5548C36.0028 5.71185 38.1507 7.04079 39.2844 9.00032H39.2818Z" fill="#006DB1"/>
<path d="M1.90397 11.4628C2.08717 10.5638 2.8943 9.88887 3.86339 9.88887C4.83248 9.88887 5.63961 10.5664 5.82281 11.4628H7.16626C7.49814 7.96582 10.1957 5.21674 13.4454 5.21674H14.1543C17.4041 5.21674 20.1016 7.96582 20.4335 11.4628H21.5513C21.7345 10.5638 22.5416 9.88887 23.5107 9.88887C24.4798 9.88887 25.2869 10.5664 25.4701 11.4628H26.8746C26.487 5.09427 21.0628 0 14.4809 0H13.0844C6.5025 0 1.07559 5.09427 0.690613 11.4628H1.90662H1.90397Z" fill="#006DB1"/>
<path d="M25.4701 12.2341C25.2869 13.1331 24.4798 13.808 23.5107 13.808C22.5416 13.808 21.7344 13.1305 21.5513 12.2341H20.4653C20.4414 16.0463 17.6112 19.1602 14.1516 19.1602H13.4428C9.98323 19.1602 7.15296 16.0489 7.12906 12.2341H5.82012C5.63693 13.1331 4.82979 13.808 3.8607 13.808C2.89161 13.808 2.08448 13.1305 1.90128 12.2341H0.666687C0.693237 18.9152 6.26883 24.3743 13.0843 24.3743H14.4809C21.2937 24.3743 26.872 18.9152 26.8985 12.2341H25.4701Z" fill="#1D2362"/>
</g>
<defs>
<clipPath id="clip0_1453_1064">
<rect width="67" height="34" fill="white" transform="translate(0.666687)"/>
</clipPath>
</defs>
</svg>
