<svg width="67" height="34" viewBox="0 0 67 34" fill="none" xmlns="http://www.w3.org/2000/svg">
<g clip-path="url(#clip0_1561_5435)">
<path d="M4.19231 31.1388L5.57293 31.2196C5.50655 31.8111 5.28353 32.2671 4.90386 32.5824C4.52419 32.8977 4.0569 33.0567 3.49934 33.0567C2.83027 33.0567 2.2913 32.8378 1.87976 32.4052C1.46823 31.9701 1.26379 31.3734 1.26379 30.6073C1.26379 29.8412 1.45761 29.2392 1.8479 28.7728C2.23819 28.3064 2.77982 28.0745 3.4781 28.0745C4.12858 28.0745 4.63039 28.2517 4.98085 28.606C5.33132 28.9604 5.52779 29.4295 5.57293 30.0158L4.1631 30.0887C4.1631 29.7656 4.09938 29.5337 3.97459 29.3878C3.84715 29.2445 3.69847 29.1715 3.52855 29.1715C3.05329 29.1715 2.81434 29.6405 2.81434 30.5812C2.81434 31.1076 2.8754 31.4646 3.00019 31.6522C3.12232 31.8424 3.29756 31.9362 3.52058 31.9362C3.91884 31.9362 4.14451 31.6704 4.19231 31.1362V31.1388ZM7.05179 32.9837V28.1526H11.122V32.9837H9.65373V29.1871H8.51737V32.9837H7.04913H7.05179ZM16.6046 31.8294V32.9837H12.9008V28.1526H16.6046V29.2679H14.3824V29.9689H16.1798V31.0424H14.3824V31.832H16.6046V31.8294ZM18.1313 32.9837V28.1526H19.5995V31.845H20.6589V28.1526H22.1271V31.845H22.7033V34H21.7528L21.6306 32.9837H18.1339H18.1313ZM23.9591 32.9837V28.1526H28.0319V32.9837H26.5637V29.1871H25.4273V32.9837H23.9591ZM31.9375 33.0567C31.2445 33.0567 30.679 32.83 30.2436 32.3792C29.8055 31.9284 29.5878 31.3265 29.5878 30.5708C29.5878 29.8151 29.7949 29.2523 30.2144 28.7806C30.6312 28.309 31.21 28.0745 31.9508 28.0745C32.6358 28.0745 33.1933 28.296 33.6261 28.7389C34.0562 29.1819 34.2739 29.776 34.2739 30.5161C34.2739 31.2561 34.0562 31.8971 33.6208 32.3609C33.1854 32.8248 32.6252 33.0567 31.9375 33.0567ZM31.9295 31.9597C32.1844 31.9597 32.3676 31.8502 32.4791 31.6313C32.5906 31.4151 32.6464 31.0138 32.6464 30.4327C32.6464 29.591 32.4181 29.1715 31.9587 29.1715C31.4622 29.1715 31.2153 29.651 31.2153 30.6073C31.2153 31.5063 31.4543 31.9571 31.9295 31.9571V31.9597ZM38.5459 31.1388L39.9292 31.2196C39.8628 31.8111 39.6398 32.2671 39.2601 32.5824C38.8804 32.8977 38.4105 33.0567 37.8556 33.0567C37.1865 33.0567 36.6475 32.8378 36.236 32.4052C35.8245 31.9701 35.62 31.3734 35.62 30.6073C35.62 29.8412 35.8139 29.2392 36.2042 28.7728C36.5918 28.3064 37.1361 28.0745 37.8344 28.0745C38.4848 28.0745 38.9866 28.2517 39.3371 28.606C39.6876 28.9604 39.884 29.4295 39.9318 30.0158L38.522 30.0887C38.522 29.7656 38.4583 29.5337 38.3335 29.3878C38.2061 29.2445 38.0574 29.1715 37.8875 29.1715C37.4122 29.1715 37.1732 29.6405 37.1732 30.5812C37.1732 31.1076 37.2343 31.4646 37.3591 31.6522C37.4812 31.8424 37.6565 31.9362 37.8795 31.9362C38.2777 31.9362 38.5034 31.6704 38.5512 31.1362L38.5459 31.1388ZM43.5108 29.3096V32.9837H42.0798V29.3096H41.0602V28.1526H44.533V29.3096H43.5108ZM48.3881 32.9837L48.1094 32.0326H46.7898L46.4951 32.9837H45.2685L46.7898 28.1526H48.3881L49.9281 32.9837H48.3881ZM47.0447 30.9747H47.8439L47.4429 29.5728L47.042 30.9747H47.0447ZM51.306 32.9837V28.1526H53.8044C54.3248 28.1526 54.7018 28.2803 54.9408 28.5383C55.1771 28.7963 55.2992 29.0907 55.2992 29.4216C55.2992 29.6614 55.2302 29.8803 55.0895 30.0731C54.9514 30.2685 54.747 30.4014 54.4708 30.4744C55.1081 30.6255 55.4267 31.0007 55.4267 31.6001C55.4267 31.9597 55.3152 32.2802 55.0895 32.5616C54.8664 32.843 54.3859 32.9837 53.6478 32.9837H51.3034H51.306ZM52.6973 30.0027H53.3956C53.5708 30.0027 53.6956 29.9584 53.7673 29.8724C53.8389 29.7864 53.8761 29.69 53.8761 29.591C53.8761 29.3226 53.7062 29.1871 53.369 29.1871H52.6946V30.0001L52.6973 30.0027ZM52.6973 31.9049H53.4327C53.6159 31.9049 53.7487 31.8606 53.8363 31.772C53.9213 31.6834 53.9637 31.5844 53.9637 31.4724C53.9637 31.3603 53.9212 31.2587 53.8389 31.1675C53.7566 31.0737 53.6053 31.0268 53.3823 31.0268H52.6973V31.9049ZM61.4138 32.9837H59.757L58.9048 31.1571L58.395 31.8685V32.9837H56.9719V28.1526H58.395V30.1487L59.7544 28.1526H61.1111L59.8659 29.9193L61.4085 32.9863L61.4138 32.9837ZM65.4601 32.9837L65.1813 32.0326H63.8617L63.567 32.9837H62.3404L63.8617 28.1526H65.4601L67 32.9837H65.4601ZM64.1166 30.9747H64.9158L64.5149 29.5728L64.114 30.9747H64.1166Z" fill="white"/>
<path d="M58.6871 0.737427C52.5991 0.737427 47.6023 5.52943 47.4084 11.4601H48.6749C48.8581 10.5612 49.6652 9.88626 50.6343 9.88626C51.6034 9.88626 52.4105 10.5638 52.5937 11.4601H53.9266C54.2903 8.23681 57.094 5.70922 60.4713 5.70922H66.5991V0.737427H58.6897H58.6871Z" fill="white"/>
<path d="M53.8868 12.234H52.5937C52.4105 13.133 51.6034 13.8079 50.6343 13.8079C49.6652 13.8079 48.8581 13.1304 48.6749 12.234H47.3978V12.5571C47.3978 18.652 52.4769 23.6368 58.6871 23.6368H66.5964V18.6364H60.4686C56.8684 18.6364 53.9186 15.7622 53.8841 12.234H53.8868Z" fill="white"/>
<path d="M44.5835 12.2341C44.4003 13.133 43.5931 13.8079 42.6241 13.8079C41.655 13.8079 40.8478 13.1304 40.6646 12.2341H29.2506V14.6235H38.9734C37.983 16.9713 35.6227 18.6338 32.8854 18.6338H26.7575V23.6343H34.6669C40.877 23.6343 45.9561 18.6494 45.9561 12.5546V12.2314H44.5808L44.5835 12.2341Z" fill="white"/>
<path d="M38.6151 9.00026H29.2507V11.4627H40.6648C40.848 10.5637 41.6551 9.88883 42.6242 9.88883C43.5933 9.88883 44.4004 10.5663 44.5836 11.4627H45.9483C45.7545 5.53199 40.755 0.73999 34.6697 0.73999H26.7603V5.71179H32.8881C35.3361 5.71179 37.484 7.04073 38.6177 9.00026H38.6151Z" fill="white"/>
<path d="M1.23725 11.4628C1.42045 10.5638 2.22758 9.88887 3.19667 9.88887C4.16576 9.88887 4.97289 10.5664 5.15609 11.4628H6.49954C6.83142 7.96582 9.52895 5.21674 12.7787 5.21674H13.4876C16.7374 5.21674 19.4349 7.96582 19.7668 11.4628H20.8846C21.0678 10.5638 21.8749 9.88887 22.844 9.88887C23.8131 9.88887 24.6202 10.5664 24.8034 11.4628H26.2079C25.8203 5.09427 20.396 0 13.8142 0H12.4176C5.83578 0 0.408876 5.09427 0.0238953 11.4628H1.2399H1.23725Z" fill="white"/>
<path d="M24.8034 12.234C24.6202 13.133 23.8131 13.8079 22.844 13.8079C21.8749 13.8079 21.0678 13.1304 20.8846 12.234H19.7987C19.7748 16.0462 16.9445 19.1601 13.485 19.1601H12.7761C9.31654 19.1601 6.48627 16.0488 6.46237 12.234H5.15344C4.97024 13.133 4.16311 13.8079 3.19402 13.8079C2.22493 13.8079 1.41779 13.1304 1.23459 12.234H0C0.0265504 18.9152 5.60214 24.3743 12.4176 24.3743H13.8142C20.627 24.3743 26.2053 18.9152 26.2318 12.234H24.8034Z" fill="white"/>
</g>
<defs>
<clipPath id="clip0_1561_5435">
<rect width="67" height="34" fill="white"/>
</clipPath>
</defs>
</svg>
