<svg width="175" height="26" viewBox="0 0 175 26" fill="none" xmlns="http://www.w3.org/2000/svg">
<path d="M65.6016 0.0595703H37.3215V5.73992H65.6016V0.0595703Z" fill="black"/>
<path d="M80.8099 5.68035H98.3876V0H80.8099C74.7057 0 69.738 4.86332 69.738 10.8427V15.1581C69.738 21.1367 74.7057 26 80.8099 26H98.3876V20.3204H80.8099C77.9032 20.3204 75.5385 18.0046 75.5385 15.1581V10.8427C75.5385 7.99615 77.9032 5.68035 80.8099 5.68035Z" fill="black"/>
<path d="M59.418 10.1475H37.2742V25.923H59.418C63.8597 25.923 67.4733 22.385 67.4733 18.0352C67.4733 13.6854 63.8597 10.1475 59.418 10.1475ZM59.418 20.2426H43.0754V15.8271H59.418C60.6607 15.8271 61.6728 16.8175 61.6728 18.0352C61.6728 19.2529 60.6615 20.2434 59.418 20.2434" fill="black"/>
<path d="M26.384 0L16.7884 8.5366C15.6938 9.51285 15.048 10.904 15.0106 12.3534C14.9778 13.8081 15.5632 15.2261 16.6151 16.245L26.6077 25.9828H34.8362L20.979 12.4865L35.0095 0H26.384Z" fill="black"/>
<path d="M5.97981 0.0722656L0 5.73916H5.97981V25.9826H11.7802V0.0722656H5.97981Z" fill="black"/>
<path d="M106.446 13.2787V5.73926H111.471V7.06908H107.899V13.2787H106.446Z" fill="black"/>
<path d="M114.848 9.39408H116.581C116.656 9.39408 116.738 9.39034 116.827 9.38287C116.916 9.37614 116.997 9.36194 117.073 9.34175C117.268 9.28943 117.42 9.20122 117.528 9.07713C117.635 8.95379 117.709 8.81476 117.749 8.66376C117.79 8.51201 117.811 8.36774 117.811 8.23244C117.811 8.09714 117.79 7.95213 117.749 7.80038C117.709 7.64864 117.635 7.51035 117.528 7.38701C117.421 7.26367 117.269 7.17471 117.073 7.12313C116.997 7.10146 116.916 7.088 116.827 7.08127C116.738 7.0738 116.656 7.07006 116.581 7.07006H114.848V9.39483V9.39408ZM113.395 13.2789V5.74023H116.645C116.72 5.74023 116.821 5.74322 116.948 5.74846C117.074 5.75369 117.186 5.7649 117.286 5.78209C117.746 5.85161 118.124 6.00037 118.418 6.22761C118.712 6.45486 118.928 6.74041 119.067 7.08352C119.206 7.42737 119.276 7.8101 119.276 8.23244C119.276 8.65479 119.205 9.03751 119.065 9.38062C118.924 9.72523 118.707 10.01 118.413 10.2373C118.119 10.4638 117.744 10.6118 117.287 10.682C117.187 10.6955 117.074 10.7067 116.945 10.7134C116.816 10.7209 116.717 10.7247 116.646 10.7247H114.849V13.2789H113.396H113.395Z" fill="black"/>
<path d="M122.334 13.2787L123.402 11.1632L120.773 5.73926H122.419L124.162 9.66594L125.968 5.73926H127.519L123.883 13.2787H122.334Z" fill="black"/>
<path d="M129.336 13.2787V5.73926H135.687V13.2787H134.232V7.06908H130.79V13.2787H129.336Z" fill="black"/>
<path d="M138.253 13.2787V5.73926H144.604V13.2787H143.149V7.06908H139.707V13.2787H138.253Z" fill="black"/>
<path d="M148.047 10.3786H152.11V11.7084H148.047V10.3786ZM146.636 13.2789L148.988 5.74023H151.159L153.51 13.2789H152.014L149.917 6.63052H150.195L148.132 13.2789H146.635H146.636Z" fill="black"/>
<path d="M110.829 18.3042L107.9 21.7809V18.3042H106.446V25.8421H107.9V22.4088L110.969 25.8421H112.807L109.386 22.0216L112.604 18.3042H110.829Z" fill="black"/>
<path d="M117.501 24.6596C117.99 24.667 118.396 24.5639 118.72 24.3508C119.044 24.1371 119.288 23.8358 119.45 23.4449C119.612 23.0539 119.693 22.5964 119.693 22.0732C119.693 21.5499 119.612 21.0962 119.45 20.7127C119.288 20.3285 119.044 20.0302 118.72 19.8172C118.396 19.6041 117.99 19.4943 117.501 19.4875C117.012 19.48 116.606 19.5825 116.282 19.7962C115.958 20.0085 115.714 20.3105 115.552 20.7015C115.39 21.0932 115.309 21.5499 115.309 22.0732C115.309 22.5964 115.39 23.0509 115.552 23.4344C115.714 23.8179 115.958 24.1161 116.282 24.3292C116.606 24.5422 117.012 24.6521 117.501 24.6588M117.501 25.9999C116.732 25.9999 116.067 25.8354 115.51 25.508C114.952 25.1798 114.523 24.7209 114.222 24.1311C113.92 23.5413 113.769 22.8551 113.769 22.0732C113.769 21.2913 113.92 20.6058 114.222 20.0153C114.523 19.4255 114.952 18.9673 115.51 18.6391C116.067 18.3102 116.732 18.1465 117.501 18.1465C118.27 18.1465 118.934 18.3102 119.492 18.6391C120.05 18.9673 120.479 19.4262 120.781 20.0153C121.082 20.6051 121.232 21.2913 121.232 22.0732C121.232 22.8551 121.082 23.5405 120.781 24.1311C120.479 24.7209 120.05 25.1798 119.492 25.508C118.934 25.8354 118.27 25.9999 117.501 25.9999Z" fill="black"/>
<path d="M129.764 18.3042L127.22 23.3088L124.675 18.3042H123.37V25.8421H124.728V21.3406L126.963 25.8421H127.476L129.71 21.3406V25.8421H131.069V18.3042H129.764Z" fill="black"/>
<path d="M133.634 18.3042V25.8421H135.089V19.6333H138.531V25.8421H139.985V18.3042H133.634Z" fill="black"/>
<path d="M145.438 19.6378L146.48 22.9425H144.413L145.438 19.6378ZM144.368 18.3042L142.016 25.8429H143.513L144 24.2731H146.899L147.393 25.8429H148.891L146.538 18.3042H144.367H144.368Z" fill="black"/>
<path d="M155.819 18.3042V21.4034H152.377V18.3042H150.923V25.8421H152.377V22.7325H155.819V25.8421H157.274V18.3042H155.819Z" fill="black"/>
<path d="M164.661 18.3042L161.315 23.3305V18.3042H159.84V25.8421H161.315L164.661 20.8173V25.8421H166.136V18.3042H164.661Z" fill="black"/>
<path d="M171.825 17.6764C171.511 17.6764 171.225 17.6017 170.969 17.4514C170.712 17.3012 170.507 17.1008 170.354 16.8497C170.201 16.5978 170.124 16.3189 170.124 16.0117H171.248C171.248 16.1679 171.303 16.3025 171.415 16.4124C171.528 16.5223 171.664 16.5768 171.825 16.5768C171.986 16.5768 172.122 16.5223 172.234 16.4124C172.346 16.3025 172.403 16.1687 172.403 16.0117H173.525C173.525 16.3189 173.449 16.5978 173.296 16.8497C173.142 17.1008 172.938 17.3012 172.681 17.4514C172.425 17.6017 172.139 17.6764 171.826 17.6764M168.703 25.843V18.3043H170.178V23.3306L173.525 18.3043H175V25.843H173.525V20.8175L170.178 25.843H168.703Z" fill="black"/>
</svg>
