<svg width="175" height="27" viewBox="0 0 175 27" fill="none" xmlns="http://www.w3.org/2000/svg">
<path d="M65.6016 0.55957H37.3215V6.23992H65.6016V0.55957Z" fill="white"/>
<path d="M80.8099 6.18035H98.3876V0.5H80.8099C74.7057 0.5 69.738 5.36332 69.738 11.3427V15.6581C69.738 21.6367 74.7057 26.5 80.8099 26.5H98.3876V20.8204H80.8099C77.9032 20.8204 75.5385 18.5046 75.5385 15.6581V11.3427C75.5385 8.49615 77.9032 6.18035 80.8099 6.18035Z" fill="white"/>
<path d="M59.418 10.6475H37.2742V26.423H59.418C63.8597 26.423 67.4733 22.885 67.4733 18.5352C67.4733 14.1854 63.8597 10.6475 59.418 10.6475ZM59.418 20.7426H43.0754V16.3271H59.418C60.6607 16.3271 61.6728 17.3175 61.6728 18.5352C61.6728 19.7529 60.6615 20.7434 59.418 20.7434" fill="white"/>
<path d="M26.384 0.5L16.7884 9.0366C15.6938 10.0129 15.048 11.404 15.0106 12.8534C14.9778 14.3081 15.5632 15.7261 16.6151 16.745L26.6077 26.4828H34.8362L20.979 12.9865L35.0095 0.5H26.384Z" fill="white"/>
<path d="M5.97981 0.572266L0 6.23916H5.97981V26.4826H11.7802V0.572266H5.97981Z" fill="white"/>
<path d="M106.446 13.7787V6.23926H111.471V7.56908H107.899V13.7787H106.446Z" fill="white"/>
<path d="M114.848 9.89408H116.581C116.656 9.89408 116.738 9.89034 116.827 9.88287C116.916 9.87614 116.997 9.86194 117.073 9.84175C117.268 9.78943 117.42 9.70122 117.528 9.57713C117.635 9.45379 117.709 9.31476 117.749 9.16376C117.79 9.01201 117.811 8.86774 117.811 8.73244C117.811 8.59714 117.79 8.45213 117.749 8.30038C117.709 8.14864 117.635 8.01035 117.528 7.88701C117.421 7.76367 117.269 7.67471 117.073 7.62313C116.997 7.60146 116.916 7.588 116.827 7.58127C116.738 7.5738 116.656 7.57006 116.581 7.57006H114.848V9.89483V9.89408ZM113.395 13.7789V6.24023H116.645C116.72 6.24023 116.821 6.24322 116.948 6.24846C117.074 6.25369 117.186 6.2649 117.286 6.28209C117.746 6.35161 118.124 6.50037 118.418 6.72761C118.712 6.95486 118.928 7.24041 119.067 7.58352C119.206 7.92737 119.276 8.3101 119.276 8.73244C119.276 9.15479 119.205 9.53751 119.065 9.88062C118.924 10.2252 118.707 10.51 118.413 10.7373C118.119 10.9638 117.744 11.1118 117.287 11.182C117.187 11.1955 117.074 11.2067 116.945 11.2134C116.816 11.2209 116.717 11.2247 116.646 11.2247H114.849V13.7789H113.396H113.395Z" fill="white"/>
<path d="M122.334 13.7787L123.402 11.6632L120.773 6.23926H122.419L124.162 10.1659L125.968 6.23926H127.519L123.883 13.7787H122.334Z" fill="white"/>
<path d="M129.336 13.7787V6.23926H135.687V13.7787H134.232V7.56908H130.79V13.7787H129.336Z" fill="white"/>
<path d="M138.253 13.7787V6.23926H144.604V13.7787H143.149V7.56908H139.707V13.7787H138.253Z" fill="white"/>
<path d="M148.047 10.8786H152.11V12.2084H148.047V10.8786ZM146.636 13.7789L148.988 6.24023H151.159L153.51 13.7789H152.014L149.917 7.13052H150.195L148.132 13.7789H146.635H146.636Z" fill="white"/>
<path d="M110.829 18.8042L107.9 22.2809V18.8042H106.446V26.3421H107.9V22.9088L110.969 26.3421H112.807L109.386 22.5216L112.604 18.8042H110.829Z" fill="white"/>
<path d="M117.501 25.1596C117.99 25.167 118.396 25.0639 118.72 24.8508C119.044 24.6371 119.288 24.3358 119.45 23.9449C119.612 23.5539 119.693 23.0964 119.693 22.5732C119.693 22.0499 119.612 21.5962 119.45 21.2127C119.288 20.8285 119.044 20.5302 118.72 20.3172C118.396 20.1041 117.99 19.9943 117.501 19.9875C117.012 19.98 116.606 20.0825 116.282 20.2962C115.958 20.5085 115.714 20.8105 115.552 21.2015C115.39 21.5932 115.309 22.0499 115.309 22.5732C115.309 23.0964 115.39 23.5509 115.552 23.9344C115.714 24.3179 115.958 24.6161 116.282 24.8292C116.606 25.0422 117.012 25.1521 117.501 25.1588M117.501 26.4999C116.732 26.4999 116.067 26.3354 115.51 26.008C114.952 25.6798 114.523 25.2209 114.222 24.6311C113.92 24.0413 113.769 23.3551 113.769 22.5732C113.769 21.7913 113.92 21.1058 114.222 20.5153C114.523 19.9255 114.952 19.4673 115.51 19.1391C116.067 18.8102 116.732 18.6465 117.501 18.6465C118.27 18.6465 118.934 18.8102 119.492 19.1391C120.05 19.4673 120.479 19.9262 120.781 20.5153C121.082 21.1051 121.232 21.7913 121.232 22.5732C121.232 23.3551 121.082 24.0405 120.781 24.6311C120.479 25.2209 120.05 25.6798 119.492 26.008C118.934 26.3354 118.27 26.4999 117.501 26.4999Z" fill="white"/>
<path d="M129.764 18.8042L127.22 23.8088L124.675 18.8042H123.37V26.3421H124.728V21.8406L126.963 26.3421H127.476L129.71 21.8406V26.3421H131.069V18.8042H129.764Z" fill="white"/>
<path d="M133.634 18.8042V26.3421H135.089V20.1333H138.531V26.3421H139.985V18.8042H133.634Z" fill="white"/>
<path d="M145.438 20.1378L146.48 23.4425H144.413L145.438 20.1378ZM144.368 18.8042L142.016 26.3429H143.513L144 24.7731H146.899L147.393 26.3429H148.891L146.538 18.8042H144.367H144.368Z" fill="white"/>
<path d="M155.819 18.8042V21.9034H152.377V18.8042H150.923V26.3421H152.377V23.2325H155.819V26.3421H157.274V18.8042H155.819Z" fill="white"/>
<path d="M164.661 18.8042L161.315 23.8305V18.8042H159.84V26.3421H161.315L164.661 21.3173V26.3421H166.136V18.8042H164.661Z" fill="white"/>
<path d="M171.825 18.1764C171.511 18.1764 171.225 18.1017 170.969 17.9514C170.712 17.8012 170.507 17.6008 170.354 17.3497C170.201 17.0978 170.124 16.8189 170.124 16.5117H171.248C171.248 16.6679 171.303 16.8025 171.415 16.9124C171.528 17.0223 171.664 17.0768 171.825 17.0768C171.986 17.0768 172.122 17.0223 172.234 16.9124C172.346 16.8025 172.403 16.6687 172.403 16.5117H173.525C173.525 16.8189 173.449 17.0978 173.296 17.3497C173.142 17.6008 172.938 17.8012 172.681 17.9514C172.425 18.1017 172.139 18.1764 171.826 18.1764M168.703 26.343V18.8043H170.178V23.8306L173.525 18.8043H175V26.343H173.525V21.3175L170.178 26.343H168.703Z" fill="white"/>
</svg>
